<svg width="74" height="74" viewBox="0 0 74 74" fill="none" xmlns="http://www.w3.org/2000/svg">
<path fill-rule="evenodd" clip-rule="evenodd" d="M2 2V72H72V2H2ZM30.2656 66.5156C36.0938 66.5156 40.0938 63.4062 40.0938 56.5938V34.1406H33.5156V56.5C33.5156 59.7969 32.1406 60.6406 29.9844 60.6406C27.7188 60.6406 26.7812 59.0938 25.75 57.2656L20.3906 60.5C21.9531 63.7969 25 66.5156 30.2656 66.5156ZM43.6719 59.7969C45.5938 63.6094 49.5469 66.5156 55.6562 66.5156C61.8906 66.5156 66.5469 63.2656 66.5469 57.3594C66.5469 51.8594 63.4062 49.4062 57.8125 47.0156L56.1719 46.3125C53.3438 45.0781 52.125 44.2812 52.125 42.3125C52.125 40.7188 53.3438 39.5 55.2656 39.5C57.1562 39.5 58.375 40.2969 59.5 42.3125L64.625 39.0312C62.4688 35.2188 59.4688 33.7656 55.2812 33.7656C49.4219 33.7656 45.6562 37.5156 45.6562 42.4531C45.6562 47.8125 48.7969 50.3594 53.5469 52.375L55.1875 53.0781C58.2031 54.4062 59.9844 55.2031 59.9844 57.4531C59.9844 59.3438 58.2344 60.7031 55.5156 60.7031C52.2812 60.7031 50.4375 59 49.0312 56.7031L43.6719 59.7969Z" fill="#F7DF1E"/>
<path d="M55.6562 66.5156C49.5469 66.5156 45.5938 63.6094 43.6719 59.7969L49.0312 56.7031C50.4375 59 52.2812 60.7031 55.5156 60.7031C58.2344 60.7031 59.9844 59.3438 59.9844 57.4531C59.9844 55.2031 58.2031 54.4062 55.1875 53.0781L53.5469 52.375C48.7969 50.3594 45.6562 47.8125 45.6562 42.4531C45.6562 37.5156 49.4219 33.7656 55.2812 33.7656C59.4688 33.7656 62.4688 35.2188 64.625 39.0312L59.5 42.3125C58.375 40.2969 57.1562 39.5 55.2656 39.5C53.3438 39.5 52.125 40.7188 52.125 42.3125C52.125 44.2812 53.3438 45.0781 56.1719 46.3125L57.8125 47.0156C63.4062 49.4062 66.5469 51.8594 66.5469 57.3594C66.5469 63.2656 61.8906 66.5156 55.6562 66.5156Z" fill="#F7F7F7"/>
<path d="M40.0938 56.5938C40.0938 63.4062 36.0938 66.5156 30.2656 66.5156C25 66.5156 21.9531 63.7969 20.3906 60.5L25.75 57.2656C26.7812 59.0938 27.7188 60.6406 29.9844 60.6406C32.1406 60.6406 33.5156 59.7969 33.5156 56.5V34.1406H40.0938V56.5938Z" fill="#F6F6F6"/>
<path fill-rule="evenodd" clip-rule="evenodd" d="M2 2V72H72V2H2ZM30.2656 66.5156C36.0938 66.5156 40.0938 63.4062 40.0938 56.5938V34.1406H33.5156V56.5C33.5156 59.7969 32.1406 60.6406 29.9844 60.6406C27.7188 60.6406 26.7812 59.0938 25.75 57.2656L20.3906 60.5C21.9531 63.7969 25 66.5156 30.2656 66.5156ZM43.6719 59.7969C45.5938 63.6094 49.5469 66.5156 55.6562 66.5156C61.8906 66.5156 66.5469 63.2656 66.5469 57.3594C66.5469 51.8594 63.4062 49.4062 57.8125 47.0156L56.1719 46.3125C53.3438 45.0781 52.125 44.2812 52.125 42.3125C52.125 40.7188 53.3438 39.5 55.2656 39.5C57.1562 39.5 58.375 40.2969 59.5 42.3125L64.625 39.0312C62.4688 35.2188 59.4688 33.7656 55.2812 33.7656C49.4219 33.7656 45.6562 37.5156 45.6562 42.4531C45.6562 47.8125 48.7969 50.3594 53.5469 52.375L55.1875 53.0781C58.2031 54.4062 59.9844 55.2031 59.9844 57.4531C59.9844 59.3438 58.2344 60.7031 55.5156 60.7031C52.2812 60.7031 50.4375 59 49.0312 56.7031L43.6719 59.7969Z" stroke="black" stroke-width="3"/>
<path d="M55.6562 66.5156C49.5469 66.5156 45.5938 63.6094 43.6719 59.7969L49.0312 56.7031C50.4375 59 52.2812 60.7031 55.5156 60.7031C58.2344 60.7031 59.9844 59.3438 59.9844 57.4531C59.9844 55.2031 58.2031 54.4062 55.1875 53.0781L53.5469 52.375C48.7969 50.3594 45.6562 47.8125 45.6562 42.4531C45.6562 37.5156 49.4219 33.7656 55.2812 33.7656C59.4688 33.7656 62.4688 35.2188 64.625 39.0312L59.5 42.3125C58.375 40.2969 57.1562 39.5 55.2656 39.5C53.3438 39.5 52.125 40.7188 52.125 42.3125C52.125 44.2812 53.3438 45.0781 56.1719 46.3125L57.8125 47.0156C63.4062 49.4062 66.5469 51.8594 66.5469 57.3594C66.5469 63.2656 61.8906 66.5156 55.6562 66.5156Z" stroke="black" stroke-width="3"/>
<path d="M40.0938 56.5938C40.0938 63.4062 36.0938 66.5156 30.2656 66.5156C25 66.5156 21.9531 63.7969 20.3906 60.5L25.75 57.2656C26.7812 59.0938 27.7188 60.6406 29.9844 60.6406C32.1406 60.6406 33.5156 59.7969 33.5156 56.5V34.1406H40.0938V56.5938Z" stroke="black" stroke-width="3"/>
</svg>
