<svg width="70" height="70" viewBox="0 0 70 70" fill="none" xmlns="http://www.w3.org/2000/svg">
<path d="M9.02584 68.5C4.86937 68.5 1.5 65.1311 1.5 60.9742V9.02584C1.5 4.86937 4.86894 1.5 9.02584 1.5H60.9742C65.1306 1.5 68.5 4.86894 68.5 9.02584V60.9742C68.5 65.1306 65.1311 68.5 60.9742 68.5H9.02584Z" fill="#563D7C" stroke="black" stroke-width="3"/>
<path d="M19.708 12.3086H18.208V13.8086V56.1914V57.6914H19.708H40.2465C42.2725 57.6914 44.2512 57.438 46.1791 56.9295C48.1376 56.413 49.906 55.6095 51.4684 54.5092C53.0716 53.3802 54.3449 51.9227 55.283 50.1582C56.2509 48.3377 56.7051 46.236 56.7051 43.904C56.7051 41.0012 55.9974 38.4285 54.5139 36.2603C53.5451 34.8443 52.2707 33.7245 50.7278 32.884C51.6114 32.188 52.3641 31.3958 52.9726 30.5016C54.1483 28.7741 54.6869 26.6805 54.6869 24.3153C54.6869 22.1798 54.3356 20.2786 53.5569 18.6742L52.2074 19.3291L53.5569 18.6742C52.7947 17.1035 51.7052 15.8202 50.2935 14.8555L49.4472 16.094L50.2935 14.8555C48.919 13.9162 47.3061 13.2658 45.4876 12.8761C43.7052 12.4942 41.7577 12.3086 39.6529 12.3086H19.708ZM30.5275 29.4636V22.5505H37.7534C38.5008 22.5505 39.2133 22.6128 39.8924 22.7347C40.5086 22.8452 41.0152 23.0355 41.4336 23.2865C41.7927 23.5019 42.0876 23.8018 42.3226 24.2196C42.5149 24.5616 42.6642 25.097 42.6642 25.918C42.6642 27.3985 42.2336 28.1525 41.6686 28.571C40.9171 29.1277 39.8877 29.4636 38.4657 29.4636H30.5275ZM30.5275 47.4495V38.815H39.178C40.9708 38.815 42.2442 39.2268 43.1393 39.9054C43.8539 40.447 44.3856 41.4569 44.3856 43.3697C44.3856 44.3208 44.2225 44.9693 43.9951 45.4001C43.7298 45.9029 43.3928 46.2704 42.9851 46.538C42.5246 46.8401 41.9693 47.0718 41.2974 47.2157C40.5767 47.3702 39.8119 47.4495 38.9999 47.4495H30.5275Z" fill="white" stroke="black" stroke-width="3"/>
</svg>
