<svg width="74" height="74" viewBox="0 0 74 74" fill="none" xmlns="http://www.w3.org/2000/svg">
<path d="M6 2L11.6175 65L36.8263 72L62.1006 64.9912L67.7269 2H6.00438H6ZM55.4987 22.6063H25.9325L26.6369 30.5206H54.7988L52.6769 54.2419L36.8263 58.6344L20.9975 54.2419L19.9169 42.1056H27.6737L28.225 48.2744L36.8306 50.5931L36.8481 50.5887L45.4581 48.2656L46.3506 38.2469H19.5712L17.4887 14.88H56.1944L55.5031 22.6063H55.4987Z" fill="#E44F26"/>
<path d="M55.4987 22.6063H25.9325L26.6369 30.5206H54.7988L52.6769 54.2419L36.8263 58.6344L20.9975 54.2419L19.9169 42.1056H27.6737L28.225 48.2744L36.8306 50.5931L36.8481 50.5887L45.4581 48.2656L46.3506 38.2469H19.5712L17.4887 14.88H56.1944L55.5031 22.6063H55.4987Z" fill="white"/>
<path d="M6 2L11.6175 65L36.8263 72L62.1006 64.9912L67.7269 2H6.00438H6ZM55.4987 22.6063H25.9325L26.6369 30.5206H54.7988L52.6769 54.2419L36.8263 58.6344L20.9975 54.2419L19.9169 42.1056H27.6737L28.225 48.2744L36.8306 50.5931L36.8481 50.5887L45.4581 48.2656L46.3506 38.2469H19.5712L17.4887 14.88H56.1944L55.5031 22.6063H55.4987Z" stroke="black" stroke-width="3"/>
<path d="M55.4987 22.6063H25.9325L26.6369 30.5206H54.7988L52.6769 54.2419L36.8263 58.6344L20.9975 54.2419L19.9169 42.1056H27.6737L28.225 48.2744L36.8306 50.5931L36.8481 50.5887L45.4581 48.2656L46.3506 38.2469H19.5712L17.4887 14.88H56.1944L55.5031 22.6063H55.4987Z" stroke="black" stroke-width="3"/>
</svg>
