<svg width="63" height="71" viewBox="0 0 63 71" fill="none" xmlns="http://www.w3.org/2000/svg">
<mask id="path-1-outside-1_48_34" maskUnits="userSpaceOnUse" x="0" y="0" width="63" height="71" fill="black">
<rect fill="white" width="63" height="71"/>
<path d="M54.9852 36.3516C54.597 35.9079 54.1874 35.4631 53.7564 35.0171C54.0575 34.7006 54.3488 34.3844 54.6304 34.0686C59.947 28.095 62.1909 22.1043 60.1117 18.5027C58.1181 15.0495 52.1876 14.0205 44.7631 15.4641C44.0318 15.6071 43.3045 15.7685 42.5813 15.9482C42.4428 15.471 42.2956 14.9964 42.1395 14.5246C39.6209 6.93448 35.5522 1.99739 31.3937 2C27.4062 2.00182 23.5522 6.62549 21.0936 13.7782C20.8518 14.4838 20.628 15.1953 20.4223 15.9127C19.9388 15.794 19.4532 15.6845 18.9656 15.5839C11.1322 13.9756 4.82294 15.0349 2.74783 18.6385C0.758041 22.0941 2.83898 27.7426 7.80843 33.4447C8.30127 34.0089 8.80807 34.5605 9.32881 35.0993C8.71492 35.7317 8.13361 36.3637 7.5918 36.9922C2.7428 42.6139 0.780853 48.17 2.76743 51.6107C4.8191 55.1648 11.0396 56.3265 18.6109 54.8366C19.2245 54.715 19.8347 54.5781 20.4415 54.4261C20.6638 55.202 20.9077 55.9712 21.1731 56.7337C23.6208 63.7429 27.4532 68.2176 31.4266 68.2162C35.5302 68.2138 39.6438 63.406 42.1362 56.1028C42.333 55.5257 42.5194 54.9263 42.696 54.3092C43.4798 54.5042 44.2687 54.6772 45.0627 54.8283C52.3576 56.2085 58.1487 55.123 60.1316 51.6798C62.1793 48.1231 60.068 42.1578 54.9852 36.3516ZM5.19912 20.05C6.47662 17.8317 11.6328 16.9663 18.3962 18.3548C18.8285 18.4437 19.2681 18.543 19.7152 18.6528C19.0549 21.5738 18.5889 24.5354 18.3205 27.518C15.8801 29.2349 13.5534 31.1078 11.3549 33.1252C10.8706 32.6243 10.3991 32.1112 9.94061 31.586L9.94081 31.5862C5.68289 26.7005 3.99998 22.1324 5.19912 20.05ZM18.0671 39.0145C16.3767 37.7346 14.8058 36.4233 13.3799 35.1045C14.8048 33.7938 16.3767 32.487 18.0636 31.2105C18.0029 32.5108 17.9729 33.8122 17.9735 35.1146C17.9744 36.415 18.0056 37.715 18.0671 39.0145ZM18.0651 52.0611C15.1955 52.6992 12.2329 52.8037 9.3255 52.3695C8.52848 52.3074 7.75265 52.0826 7.04596 51.7088C6.33926 51.3351 5.71672 50.8204 5.2168 50.1966C4.01143 48.1085 5.58681 43.6478 9.73379 38.8397C10.2552 38.2372 10.7936 37.6504 11.3492 37.0793C13.5479 39.1072 15.8785 40.9875 18.3254 42.7079C18.5976 45.7286 19.069 48.7281 19.7365 51.6867C19.1826 51.8253 18.6254 51.9501 18.0651 52.0611ZM41.5755 25.4444C40.4651 24.7447 39.3409 24.0675 38.2031 23.4127C37.0834 22.7682 35.9502 22.1479 34.8035 21.5518C36.7668 20.7263 38.6967 20.0213 40.5599 19.4468C40.9991 21.4276 41.338 23.4294 41.5755 25.4444ZM23.7688 14.6976C25.8752 8.56886 28.992 4.82968 31.3953 4.82865C33.9548 4.82743 37.2803 8.86207 39.4548 15.4154C39.5961 15.8426 39.7296 16.2722 39.8555 16.7042C36.9986 17.5903 34.2035 18.6644 31.4885 19.9196C28.7848 18.6497 25.9985 17.5635 23.1486 16.6686C23.3391 16.0067 23.5458 15.3496 23.7688 14.6976ZM22.4432 19.4115C24.3866 20.0233 26.2979 20.7327 28.1698 21.537C25.8504 22.734 23.5909 24.0378 21.3914 25.4484C21.6571 23.3361 22.0107 21.3123 22.4432 19.4115ZM21.3963 44.7745C22.4931 45.4767 23.606 46.1529 24.735 46.8031C25.8865 47.4661 27.0535 48.1013 28.2357 48.7087C26.3495 49.5408 24.4218 50.2756 22.4602 50.9101C22.0227 48.9829 21.6652 46.9236 21.3963 44.7745ZM39.459 55.1886C38.5782 57.9933 37.1887 60.6119 35.3599 62.9136L35.3597 62.9138C34.9078 63.5731 34.3254 64.1327 33.6487 64.5581C32.9719 64.9835 32.2152 65.2656 31.4251 65.3869C29.0141 65.3883 25.9369 61.7947 23.8436 55.8007C23.5971 55.092 23.3703 54.3769 23.1632 53.6553C26.0268 52.7315 28.8244 51.6146 31.5368 50.3124C34.2742 51.5757 37.0915 52.6579 39.9706 53.552C39.8134 54.1015 39.6429 54.6471 39.459 55.1886ZM40.6583 50.8044C38.7737 50.2217 36.8158 49.5049 34.8242 48.6673C35.9469 48.0764 37.0778 47.4524 38.2168 46.7952C39.3856 46.1203 40.5247 45.4285 41.6339 44.7197C41.4129 46.7633 41.0873 48.7943 40.6583 50.8045V50.8044ZM42.1358 35.1023C42.1383 37.113 42.0755 39.122 41.9475 41.1295C40.3163 42.2334 38.5943 43.3113 36.8025 44.3457C35.0182 45.3759 33.2503 46.3226 31.516 47.1794C29.6911 46.3048 27.9013 45.3623 26.1467 44.352C24.402 43.3477 22.6973 42.2783 21.0326 41.1438C20.8804 39.137 20.8038 37.1265 20.8026 35.1124L20.803 35.1131C20.8016 33.1004 20.8766 31.0898 21.028 29.0813C22.6587 27.9677 24.3683 26.8906 26.1358 25.8701C27.9114 24.8448 29.7015 23.9021 31.4817 23.0478C33.2842 23.9237 35.0542 24.8625 36.7916 25.8641C38.5351 26.8662 40.2446 27.9242 41.9201 29.0381C42.064 31.0564 42.136 33.0778 42.1361 35.1023H42.1358ZM45.3034 18.241C51.6645 17.0037 56.4608 17.836 57.6623 19.917C58.9423 22.134 57.1078 27.0303 52.5179 32.188L52.5177 32.1882C52.2641 32.4727 52.001 32.7585 51.7284 33.0454C49.4918 31.0238 47.1203 29.1567 44.6301 27.4572C44.3788 24.5072 43.9304 21.5773 43.2877 18.6872C43.9727 18.5186 44.6446 18.3699 45.3034 18.241ZM44.8734 31.1025C46.553 32.3288 48.168 33.6415 49.7116 35.0352C48.1748 36.4518 46.565 37.7871 44.8887 39.0356C44.94 37.7248 44.9653 36.4132 44.9645 35.101C44.9639 33.7679 44.9335 32.435 44.8734 31.1025ZM57.6799 50.2679C56.4765 52.3576 51.8268 53.2289 45.5881 52.0486C44.8732 51.9136 44.1396 51.753 43.3873 51.5666C44.0144 48.6393 44.443 45.673 44.6701 42.6879C47.1561 40.9587 49.5201 39.0606 51.7455 37.0069C52.135 37.4115 52.5054 37.8141 52.8567 38.2149V38.2147C54.8468 40.3785 56.4214 42.8901 57.5021 45.624C57.8476 46.3448 58.0417 47.1288 58.0723 47.9275C58.1029 48.7263 57.9693 49.5228 57.6799 50.2679ZM28.4833 29.9363C27.4705 30.521 26.6538 31.3929 26.1366 32.4418C25.6193 33.4907 25.4247 34.6693 25.5774 35.8288C25.73 36.9883 26.2231 38.0764 26.9942 38.9557C27.7653 39.8349 28.7798 40.4657 29.9094 40.7684C31.039 41.0711 32.2331 41.0319 33.3404 40.656C34.4478 40.28 35.4189 39.5841 36.1308 38.6563C36.8427 37.7285 37.2634 36.6104 37.3399 35.4434C37.4163 34.2765 37.145 33.113 36.5602 32.1003C35.776 30.7424 34.4846 29.7515 32.9699 29.3457C31.4552 28.9399 29.8414 29.1523 28.4834 29.9363L28.4833 29.9363Z"/>
</mask>
<path d="M54.9852 36.3516C54.597 35.9079 54.1874 35.4631 53.7564 35.0171C54.0575 34.7006 54.3488 34.3844 54.6304 34.0686C59.947 28.095 62.1909 22.1043 60.1117 18.5027C58.1181 15.0495 52.1876 14.0205 44.7631 15.4641C44.0318 15.6071 43.3045 15.7685 42.5813 15.9482C42.4428 15.471 42.2956 14.9964 42.1395 14.5246C39.6209 6.93448 35.5522 1.99739 31.3937 2C27.4062 2.00182 23.5522 6.62549 21.0936 13.7782C20.8518 14.4838 20.628 15.1953 20.4223 15.9127C19.9388 15.794 19.4532 15.6845 18.9656 15.5839C11.1322 13.9756 4.82294 15.0349 2.74783 18.6385C0.758041 22.0941 2.83898 27.7426 7.80843 33.4447C8.30127 34.0089 8.80807 34.5605 9.32881 35.0993C8.71492 35.7317 8.13361 36.3637 7.5918 36.9922C2.7428 42.6139 0.780853 48.17 2.76743 51.6107C4.8191 55.1648 11.0396 56.3265 18.6109 54.8366C19.2245 54.715 19.8347 54.5781 20.4415 54.4261C20.6638 55.202 20.9077 55.9712 21.1731 56.7337C23.6208 63.7429 27.4532 68.2176 31.4266 68.2162C35.5302 68.2138 39.6438 63.406 42.1362 56.1028C42.333 55.5257 42.5194 54.9263 42.696 54.3092C43.4798 54.5042 44.2687 54.6772 45.0627 54.8283C52.3576 56.2085 58.1487 55.123 60.1316 51.6798C62.1793 48.1231 60.068 42.1578 54.9852 36.3516ZM5.19912 20.05C6.47662 17.8317 11.6328 16.9663 18.3962 18.3548C18.8285 18.4437 19.2681 18.543 19.7152 18.6528C19.0549 21.5738 18.5889 24.5354 18.3205 27.518C15.8801 29.2349 13.5534 31.1078 11.3549 33.1252C10.8706 32.6243 10.3991 32.1112 9.94061 31.586L9.94081 31.5862C5.68289 26.7005 3.99998 22.1324 5.19912 20.05ZM18.0671 39.0145C16.3767 37.7346 14.8058 36.4233 13.3799 35.1045C14.8048 33.7938 16.3767 32.487 18.0636 31.2105C18.0029 32.5108 17.9729 33.8122 17.9735 35.1146C17.9744 36.415 18.0056 37.715 18.0671 39.0145ZM18.0651 52.0611C15.1955 52.6992 12.2329 52.8037 9.3255 52.3695C8.52848 52.3074 7.75265 52.0826 7.04596 51.7088C6.33926 51.3351 5.71672 50.8204 5.2168 50.1966C4.01143 48.1085 5.58681 43.6478 9.73379 38.8397C10.2552 38.2372 10.7936 37.6504 11.3492 37.0793C13.5479 39.1072 15.8785 40.9875 18.3254 42.7079C18.5976 45.7286 19.069 48.7281 19.7365 51.6867C19.1826 51.8253 18.6254 51.9501 18.0651 52.0611ZM41.5755 25.4444C40.4651 24.7447 39.3409 24.0675 38.2031 23.4127C37.0834 22.7682 35.9502 22.1479 34.8035 21.5518C36.7668 20.7263 38.6967 20.0213 40.5599 19.4468C40.9991 21.4276 41.338 23.4294 41.5755 25.4444ZM23.7688 14.6976C25.8752 8.56886 28.992 4.82968 31.3953 4.82865C33.9548 4.82743 37.2803 8.86207 39.4548 15.4154C39.5961 15.8426 39.7296 16.2722 39.8555 16.7042C36.9986 17.5903 34.2035 18.6644 31.4885 19.9196C28.7848 18.6497 25.9985 17.5635 23.1486 16.6686C23.3391 16.0067 23.5458 15.3496 23.7688 14.6976ZM22.4432 19.4115C24.3866 20.0233 26.2979 20.7327 28.1698 21.537C25.8504 22.734 23.5909 24.0378 21.3914 25.4484C21.6571 23.3361 22.0107 21.3123 22.4432 19.4115ZM21.3963 44.7745C22.4931 45.4767 23.606 46.1529 24.735 46.8031C25.8865 47.4661 27.0535 48.1013 28.2357 48.7087C26.3495 49.5408 24.4218 50.2756 22.4602 50.9101C22.0227 48.9829 21.6652 46.9236 21.3963 44.7745ZM39.459 55.1886C38.5782 57.9933 37.1887 60.6119 35.3599 62.9136L35.3597 62.9138C34.9078 63.5731 34.3254 64.1327 33.6487 64.5581C32.9719 64.9835 32.2152 65.2656 31.4251 65.3869C29.0141 65.3883 25.9369 61.7947 23.8436 55.8007C23.5971 55.092 23.3703 54.3769 23.1632 53.6553C26.0268 52.7315 28.8244 51.6146 31.5368 50.3124C34.2742 51.5757 37.0915 52.6579 39.9706 53.552C39.8134 54.1015 39.6429 54.6471 39.459 55.1886ZM40.6583 50.8044C38.7737 50.2217 36.8158 49.5049 34.8242 48.6673C35.9469 48.0764 37.0778 47.4524 38.2168 46.7952C39.3856 46.1203 40.5247 45.4285 41.6339 44.7197C41.4129 46.7633 41.0873 48.7943 40.6583 50.8045V50.8044ZM42.1358 35.1023C42.1383 37.113 42.0755 39.122 41.9475 41.1295C40.3163 42.2334 38.5943 43.3113 36.8025 44.3457C35.0182 45.3759 33.2503 46.3226 31.516 47.1794C29.6911 46.3048 27.9013 45.3623 26.1467 44.352C24.402 43.3477 22.6973 42.2783 21.0326 41.1438C20.8804 39.137 20.8038 37.1265 20.8026 35.1124L20.803 35.1131C20.8016 33.1004 20.8766 31.0898 21.028 29.0813C22.6587 27.9677 24.3683 26.8906 26.1358 25.8701C27.9114 24.8448 29.7015 23.9021 31.4817 23.0478C33.2842 23.9237 35.0542 24.8625 36.7916 25.8641C38.5351 26.8662 40.2446 27.9242 41.9201 29.0381C42.064 31.0564 42.136 33.0778 42.1361 35.1023H42.1358ZM45.3034 18.241C51.6645 17.0037 56.4608 17.836 57.6623 19.917C58.9423 22.134 57.1078 27.0303 52.5179 32.188L52.5177 32.1882C52.2641 32.4727 52.001 32.7585 51.7284 33.0454C49.4918 31.0238 47.1203 29.1567 44.6301 27.4572C44.3788 24.5072 43.9304 21.5773 43.2877 18.6872C43.9727 18.5186 44.6446 18.3699 45.3034 18.241ZM44.8734 31.1025C46.553 32.3288 48.168 33.6415 49.7116 35.0352C48.1748 36.4518 46.565 37.7871 44.8887 39.0356C44.94 37.7248 44.9653 36.4132 44.9645 35.101C44.9639 33.7679 44.9335 32.435 44.8734 31.1025ZM57.6799 50.2679C56.4765 52.3576 51.8268 53.2289 45.5881 52.0486C44.8732 51.9136 44.1396 51.753 43.3873 51.5666C44.0144 48.6393 44.443 45.673 44.6701 42.6879C47.1561 40.9587 49.5201 39.0606 51.7455 37.0069C52.135 37.4115 52.5054 37.8141 52.8567 38.2149V38.2147C54.8468 40.3785 56.4214 42.8901 57.5021 45.624C57.8476 46.3448 58.0417 47.1288 58.0723 47.9275C58.1029 48.7263 57.9693 49.5228 57.6799 50.2679ZM28.4833 29.9363C27.4705 30.521 26.6538 31.3929 26.1366 32.4418C25.6193 33.4907 25.4247 34.6693 25.5774 35.8288C25.73 36.9883 26.2231 38.0764 26.9942 38.9557C27.7653 39.8349 28.7798 40.4657 29.9094 40.7684C31.039 41.0711 32.2331 41.0319 33.3404 40.656C34.4478 40.28 35.4189 39.5841 36.1308 38.6563C36.8427 37.7285 37.2634 36.6104 37.3399 35.4434C37.4163 34.2765 37.145 33.113 36.5602 32.1003C35.776 30.7424 34.4846 29.7515 32.9699 29.3457C31.4552 28.9399 29.8414 29.1523 28.4834 29.9363L28.4833 29.9363Z" fill="#00D8FF"/>
<path d="M54.9852 36.3516C54.597 35.9079 54.1874 35.4631 53.7564 35.0171C54.0575 34.7006 54.3488 34.3844 54.6304 34.0686C59.947 28.095 62.1909 22.1043 60.1117 18.5027C58.1181 15.0495 52.1876 14.0205 44.7631 15.4641C44.0318 15.6071 43.3045 15.7685 42.5813 15.9482C42.4428 15.471 42.2956 14.9964 42.1395 14.5246C39.6209 6.93448 35.5522 1.99739 31.3937 2C27.4062 2.00182 23.5522 6.62549 21.0936 13.7782C20.8518 14.4838 20.628 15.1953 20.4223 15.9127C19.9388 15.794 19.4532 15.6845 18.9656 15.5839C11.1322 13.9756 4.82294 15.0349 2.74783 18.6385C0.758041 22.0941 2.83898 27.7426 7.80843 33.4447C8.30127 34.0089 8.80807 34.5605 9.32881 35.0993C8.71492 35.7317 8.13361 36.3637 7.5918 36.9922C2.7428 42.6139 0.780853 48.17 2.76743 51.6107C4.8191 55.1648 11.0396 56.3265 18.6109 54.8366C19.2245 54.715 19.8347 54.5781 20.4415 54.4261C20.6638 55.202 20.9077 55.9712 21.1731 56.7337C23.6208 63.7429 27.4532 68.2176 31.4266 68.2162C35.5302 68.2138 39.6438 63.406 42.1362 56.1028C42.333 55.5257 42.5194 54.9263 42.696 54.3092C43.4798 54.5042 44.2687 54.6772 45.0627 54.8283C52.3576 56.2085 58.1487 55.123 60.1316 51.6798C62.1793 48.1231 60.068 42.1578 54.9852 36.3516ZM5.19912 20.05C6.47662 17.8317 11.6328 16.9663 18.3962 18.3548C18.8285 18.4437 19.2681 18.543 19.7152 18.6528C19.0549 21.5738 18.5889 24.5354 18.3205 27.518C15.8801 29.2349 13.5534 31.1078 11.3549 33.1252C10.8706 32.6243 10.3991 32.1112 9.94061 31.586L9.94081 31.5862C5.68289 26.7005 3.99998 22.1324 5.19912 20.05ZM18.0671 39.0145C16.3767 37.7346 14.8058 36.4233 13.3799 35.1045C14.8048 33.7938 16.3767 32.487 18.0636 31.2105C18.0029 32.5108 17.9729 33.8122 17.9735 35.1146C17.9744 36.415 18.0056 37.715 18.0671 39.0145ZM18.0651 52.0611C15.1955 52.6992 12.2329 52.8037 9.3255 52.3695C8.52848 52.3074 7.75265 52.0826 7.04596 51.7088C6.33926 51.3351 5.71672 50.8204 5.2168 50.1966C4.01143 48.1085 5.58681 43.6478 9.73379 38.8397C10.2552 38.2372 10.7936 37.6504 11.3492 37.0793C13.5479 39.1072 15.8785 40.9875 18.3254 42.7079C18.5976 45.7286 19.069 48.7281 19.7365 51.6867C19.1826 51.8253 18.6254 51.9501 18.0651 52.0611ZM41.5755 25.4444C40.4651 24.7447 39.3409 24.0675 38.2031 23.4127C37.0834 22.7682 35.9502 22.1479 34.8035 21.5518C36.7668 20.7263 38.6967 20.0213 40.5599 19.4468C40.9991 21.4276 41.338 23.4294 41.5755 25.4444ZM23.7688 14.6976C25.8752 8.56886 28.992 4.82968 31.3953 4.82865C33.9548 4.82743 37.2803 8.86207 39.4548 15.4154C39.5961 15.8426 39.7296 16.2722 39.8555 16.7042C36.9986 17.5903 34.2035 18.6644 31.4885 19.9196C28.7848 18.6497 25.9985 17.5635 23.1486 16.6686C23.3391 16.0067 23.5458 15.3496 23.7688 14.6976ZM22.4432 19.4115C24.3866 20.0233 26.2979 20.7327 28.1698 21.537C25.8504 22.734 23.5909 24.0378 21.3914 25.4484C21.6571 23.3361 22.0107 21.3123 22.4432 19.4115ZM21.3963 44.7745C22.4931 45.4767 23.606 46.1529 24.735 46.8031C25.8865 47.4661 27.0535 48.1013 28.2357 48.7087C26.3495 49.5408 24.4218 50.2756 22.4602 50.9101C22.0227 48.9829 21.6652 46.9236 21.3963 44.7745ZM39.459 55.1886C38.5782 57.9933 37.1887 60.6119 35.3599 62.9136L35.3597 62.9138C34.9078 63.5731 34.3254 64.1327 33.6487 64.5581C32.9719 64.9835 32.2152 65.2656 31.4251 65.3869C29.0141 65.3883 25.9369 61.7947 23.8436 55.8007C23.5971 55.092 23.3703 54.3769 23.1632 53.6553C26.0268 52.7315 28.8244 51.6146 31.5368 50.3124C34.2742 51.5757 37.0915 52.6579 39.9706 53.552C39.8134 54.1015 39.6429 54.6471 39.459 55.1886ZM40.6583 50.8044C38.7737 50.2217 36.8158 49.5049 34.8242 48.6673C35.9469 48.0764 37.0778 47.4524 38.2168 46.7952C39.3856 46.1203 40.5247 45.4285 41.6339 44.7197C41.4129 46.7633 41.0873 48.7943 40.6583 50.8045V50.8044ZM42.1358 35.1023C42.1383 37.113 42.0755 39.122 41.9475 41.1295C40.3163 42.2334 38.5943 43.3113 36.8025 44.3457C35.0182 45.3759 33.2503 46.3226 31.516 47.1794C29.6911 46.3048 27.9013 45.3623 26.1467 44.352C24.402 43.3477 22.6973 42.2783 21.0326 41.1438C20.8804 39.137 20.8038 37.1265 20.8026 35.1124L20.803 35.1131C20.8016 33.1004 20.8766 31.0898 21.028 29.0813C22.6587 27.9677 24.3683 26.8906 26.1358 25.8701C27.9114 24.8448 29.7015 23.9021 31.4817 23.0478C33.2842 23.9237 35.0542 24.8625 36.7916 25.8641C38.5351 26.8662 40.2446 27.9242 41.9201 29.0381C42.064 31.0564 42.136 33.0778 42.1361 35.1023H42.1358ZM45.3034 18.241C51.6645 17.0037 56.4608 17.836 57.6623 19.917C58.9423 22.134 57.1078 27.0303 52.5179 32.188L52.5177 32.1882C52.2641 32.4727 52.001 32.7585 51.7284 33.0454C49.4918 31.0238 47.1203 29.1567 44.6301 27.4572C44.3788 24.5072 43.9304 21.5773 43.2877 18.6872C43.9727 18.5186 44.6446 18.3699 45.3034 18.241ZM44.8734 31.1025C46.553 32.3288 48.168 33.6415 49.7116 35.0352C48.1748 36.4518 46.565 37.7871 44.8887 39.0356C44.94 37.7248 44.9653 36.4132 44.9645 35.101C44.9639 33.7679 44.9335 32.435 44.8734 31.1025ZM57.6799 50.2679C56.4765 52.3576 51.8268 53.2289 45.5881 52.0486C44.8732 51.9136 44.1396 51.753 43.3873 51.5666C44.0144 48.6393 44.443 45.673 44.6701 42.6879C47.1561 40.9587 49.5201 39.0606 51.7455 37.0069C52.135 37.4115 52.5054 37.8141 52.8567 38.2149V38.2147C54.8468 40.3785 56.4214 42.8901 57.5021 45.624C57.8476 46.3448 58.0417 47.1288 58.0723 47.9275C58.1029 48.7263 57.9693 49.5228 57.6799 50.2679ZM28.4833 29.9363C27.4705 30.521 26.6538 31.3929 26.1366 32.4418C25.6193 33.4907 25.4247 34.6693 25.5774 35.8288C25.73 36.9883 26.2231 38.0764 26.9942 38.9557C27.7653 39.8349 28.7798 40.4657 29.9094 40.7684C31.039 41.0711 32.2331 41.0319 33.3404 40.656C34.4478 40.28 35.4189 39.5841 36.1308 38.6563C36.8427 37.7285 37.2634 36.6104 37.3399 35.4434C37.4163 34.2765 37.145 33.113 36.5602 32.1003C35.776 30.7424 34.4846 29.7515 32.9699 29.3457C31.4552 28.9399 29.8414 29.1523 28.4834 29.9363L28.4833 29.9363Z" stroke="black" stroke-width="4" mask="url(#path-1-outside-1_48_34)"/>
</svg>
