<svg width="70" height="70" viewBox="0 0 70 70" fill="none" xmlns="http://www.w3.org/2000/svg">
<path d="M45.9352 46.036C52.0743 46.036 57.0509 41.095 57.0509 35C57.0509 28.905 52.0743 23.964 45.9352 23.964C39.7961 23.964 34.8195 28.905 34.8195 35C34.8195 41.095 39.7961 46.036 45.9352 46.036Z" fill="#19BCFE" stroke="black" stroke-width="3"/>
<path fill-rule="evenodd" clip-rule="evenodd" d="M23.7037 68.1081C29.8427 68.1081 34.8194 63.1671 34.8194 57.0721C34.8194 55.4082 34.8194 51.7296 34.8194 46.036C29.8258 46.036 26.1205 46.036 23.7037 46.036C17.5646 46.036 12.588 50.977 12.588 57.0721C12.588 63.1671 17.5646 68.1081 23.7037 68.1081Z" fill="#09CF83" stroke="black" stroke-width="3"/>
<path fill-rule="evenodd" clip-rule="evenodd" d="M23.7037 46.036H34.8194V23.964C29.4553 23.964 25.75 23.964 23.7037 23.964C17.5646 23.964 12.588 28.905 12.588 35C12.588 41.095 17.5646 46.036 23.7037 46.036Z" fill="#A259FF" stroke="black" stroke-width="3"/>
<path fill-rule="evenodd" clip-rule="evenodd" d="M23.7037 23.964H34.8194V1.89189C29.4553 1.89189 25.75 1.89189 23.7037 1.89189C17.5646 1.89189 12.588 6.83289 12.588 12.9279C12.588 19.023 17.5646 23.964 23.7037 23.964Z" fill="#F24E1E" stroke="black" stroke-width="3"/>
<path fill-rule="evenodd" clip-rule="evenodd" d="M45.9352 23.964H34.8195V1.89189H45.9352C52.0743 1.89189 57.0509 6.83289 57.0509 12.9279C57.0509 19.023 52.0743 23.964 45.9352 23.964Z" fill="#FF7262" stroke="black" stroke-width="3"/>
</svg>
