<svg width="70" height="70" viewBox="0 0 70 70" fill="none" xmlns="http://www.w3.org/2000/svg">
<path d="M20.7492 58.5931H6.0412C3.0613 58.5931 1.22567 55.3938 2.70031 52.8525L25.1671 14.134L23.8908 13.3934L25.1671 14.134C26.6505 11.5776 30.3655 11.5776 31.8489 14.134L37.7795 24.3546L21.2027 52.8352C20.1012 54.7276 20.0537 56.8164 20.7492 58.5931Z" fill="#80EEC0" stroke="black" stroke-width="3"/>
<path d="M67.8798 54.3122L67.8799 54.3123C68.9774 56.182 67.6311 58.5931 65.3354 58.5931H28.1487C25.8528 58.5931 24.5065 56.1819 25.6038 54.3122L44.197 22.6336C45.3234 20.7145 48.1605 20.7145 49.2869 22.6336L67.8798 54.3122Z" fill="#00DC82" stroke="black" stroke-width="3"/>
</svg>
