<svg width="71" height="70" viewBox="0 0 71 70" fill="none" xmlns="http://www.w3.org/2000/svg">
<mask id="path-1-outside-1_60_91" maskUnits="userSpaceOnUse" x="-0.744141" y="7.44615" width="71" height="55" fill="black">
<rect fill="white" x="-0.744141" y="7.44615" width="71" height="55"/>
<path d="M33.4347 46.7957C33.3747 46.9039 33.4047 46.8558 33.4347 46.7957V46.7957ZM58.3437 38.0818C56.3327 38.0812 54.3486 38.5438 52.5446 39.434C51.9547 38.2421 51.3448 37.2004 51.2448 36.4192C51.1248 35.5077 50.9948 34.9668 51.1348 33.8851C51.2748 32.8034 51.9047 31.2709 51.8947 31.1608C51.8847 31.0506 51.7547 30.4997 50.4649 30.4897C49.1751 30.4797 48.0653 30.7401 47.9363 31.0806C47.7085 31.703 47.5313 32.3428 47.4064 32.9937C47.1765 34.1656 44.8278 38.3522 43.498 40.5357C43.0581 39.6844 42.6882 38.9332 42.6082 38.3322C42.4882 37.4208 42.3582 36.8799 42.4982 35.7982C42.6382 34.7164 43.2681 33.184 43.2581 33.0738C43.2481 32.9636 43.1181 32.4128 41.8293 32.4028C40.5405 32.3927 39.4297 32.6532 39.2997 32.9937C39.1697 33.3342 39.0298 34.1355 38.7698 34.9067C38.5098 35.678 35.3813 42.6491 34.5625 44.462C34.1425 45.3835 33.7826 46.1246 33.5226 46.6254C33.4827 46.7056 33.4527 46.7556 33.4327 46.7957C33.4627 46.7456 33.4827 46.6955 33.4827 46.7156C33.2627 47.1463 33.1327 47.3867 33.1327 47.3867V47.3967C32.9627 47.7172 32.7728 48.0076 32.6828 48.0076C32.6228 48.0076 32.4928 47.1663 32.7128 46.0145C33.1827 43.5906 34.2925 39.8246 34.2825 39.6944C34.2725 39.6243 34.4925 38.9732 33.5526 38.6227C32.6428 38.2921 32.3128 38.843 32.2329 38.843C32.1529 38.843 32.0929 39.0433 32.0929 39.0433C32.0929 39.0433 33.1027 34.7966 30.1542 34.7966C28.3145 34.7966 25.7549 36.8198 24.4971 38.6527C23.7072 39.0834 21.9975 40.0149 20.1978 41.0065C19.5079 41.3871 18.798 41.7777 18.1281 42.1483C18.0781 42.0982 18.0381 42.0481 17.9881 41.9981C14.4097 38.172 7.80277 35.4676 8.08273 30.3294C8.18271 28.4565 8.83261 23.5386 20.7877 17.5691C30.5861 12.6813 38.4199 14.0234 39.7686 17.0082C41.7083 21.265 35.5803 29.1876 25.4049 30.3294C21.5266 30.7601 19.4879 29.2577 18.978 28.6968C18.4481 28.1059 18.3681 28.0758 18.1681 28.186C17.8382 28.3663 18.0481 28.8871 18.1681 29.1976C18.4681 29.9889 19.7179 31.3911 21.8465 32.0923C23.7162 32.7032 28.2635 33.0438 33.7616 30.9104C39.9386 28.5266 44.7468 21.886 43.3371 16.3271C41.9013 10.6781 32.5508 8.82514 23.7092 11.9702C18.4411 13.8431 12.744 16.7878 8.64564 20.624C3.77742 25.1912 2.99854 29.1676 3.31849 30.8302C4.45731 36.7297 12.574 40.5758 15.8225 43.4203C15.6625 43.5105 15.5125 43.5906 15.3726 43.6707C13.7438 44.482 7.55581 47.7272 6.00706 51.1527C4.25734 55.0389 6.29702 57.8233 7.6358 58.2039C11.8141 59.3658 16.0924 57.2724 18.3911 53.8369C20.6897 50.4015 20.4108 45.9143 19.3509 43.871C19.3409 43.841 19.3209 43.821 19.3109 43.7909C19.7309 43.5405 20.1608 43.2901 20.5907 43.0397C21.4196 42.5489 22.2295 42.0982 22.9393 41.7076C22.5394 42.7893 22.2495 44.0914 22.0995 45.9744C21.9195 48.1779 22.8294 51.0325 24.0092 52.1543C24.5291 52.645 25.158 52.6551 25.5479 52.6551C26.9277 52.6551 27.5476 51.5132 28.2365 50.1511C29.0864 48.4884 29.8362 46.5553 29.8362 46.5553C29.8362 46.5553 28.8964 51.7837 31.466 51.7837C32.4048 51.7837 33.3447 50.5717 33.7656 49.9507V49.9608C33.7656 49.9608 33.7856 49.9207 33.8356 49.8406C33.9356 49.6903 33.9856 49.6002 33.9856 49.6002V49.5701C34.3655 48.9191 35.1954 47.4267 36.4442 44.9628C38.0639 41.7777 39.6127 37.8014 39.6127 37.8014C39.7623 38.6755 39.9694 39.5387 40.2326 40.3855C40.5125 41.337 41.1024 42.3787 41.5724 43.3903C41.1924 43.9111 40.9625 44.2116 40.9625 44.2116C40.9632 44.2193 40.9668 44.2264 40.9725 44.2316C40.6725 44.6323 40.3326 45.0629 39.9826 45.4836C38.7038 47.006 37.1831 48.7488 36.9831 49.2496C36.7431 49.8406 36.8031 50.2813 37.263 50.6218C37.603 50.8822 38.2029 50.9223 38.8318 50.8722C39.9816 50.7921 40.7915 50.5116 41.1814 50.3314C41.9003 50.0731 42.5797 49.7158 43.2001 49.2697C44.4499 48.3482 45.2098 47.0261 45.1398 45.2833C45.0998 44.3218 44.7898 43.3602 44.4099 42.4588C44.5199 42.2985 44.6399 42.1283 44.7499 41.958C46.7285 39.0634 48.2583 35.8863 48.2583 35.8863C48.4079 36.7604 48.615 37.6237 48.8782 38.4704C49.1181 39.2817 49.5871 40.1731 50.017 41.0445C48.1583 42.5569 47.0085 44.3097 46.6086 45.4616C45.8687 47.595 46.4486 48.5565 47.5384 48.7769C48.0283 48.877 48.7282 48.6467 49.2481 48.4263C50.0203 48.1687 50.7483 47.7937 51.4068 47.3145C52.6566 46.3931 53.8654 45.101 53.7854 43.3482C53.7554 42.5569 53.5354 41.7657 53.2455 41.0045C54.8152 40.3434 56.8539 39.9828 59.4535 40.2833C65.0206 40.9344 66.1104 44.4199 65.9005 45.8722C65.6905 47.3246 64.5207 48.1358 64.1307 48.3762C63.7408 48.6166 63.6208 48.7068 63.6508 48.887C63.7008 49.1475 63.8808 49.1374 64.2107 49.0774C64.6707 48.9972 67.1293 47.8955 67.2392 45.2012C67.3992 41.7957 64.1307 38.0498 58.3407 38.0798L58.3437 38.0818ZM15.4326 52.5749C13.5938 54.5881 11.0143 55.3494 9.90544 54.7083C8.71563 54.0152 9.18555 51.0525 11.4542 48.9071C12.834 47.605 14.6127 46.4031 15.7925 45.6619C16.0624 45.5016 16.4524 45.2613 16.9323 44.9708C17.0123 44.9207 17.0523 44.9007 17.0523 44.9007C17.1423 44.8406 17.2423 44.7905 17.3422 44.7304C18.1711 47.7753 17.3722 50.4596 15.4326 52.5729V52.5749ZM28.8664 43.4203C28.2265 44.9928 26.8777 48.9992 26.0578 48.7889C25.358 48.6086 24.928 45.5537 25.9179 42.5489C26.4178 41.0365 27.4776 39.2337 28.1075 38.5325C29.1164 37.4007 30.2262 37.0401 30.4861 37.4909C30.8361 38.0818 29.2663 42.4388 28.8664 43.4203ZM39.9646 48.7288C39.6947 48.869 39.4447 48.9592 39.3247 48.8891C39.2347 48.839 39.4347 48.6487 39.4347 48.6487C39.4347 48.6487 40.8245 47.1563 41.3744 46.4752C41.6943 46.0746 42.0643 45.6038 42.4632 45.083C42.4632 45.1331 42.4732 45.1831 42.4732 45.2432C42.4602 47.0361 40.7415 48.248 39.9616 48.7288H39.9646ZM48.5212 46.7757C48.3213 46.6355 48.3513 46.1647 49.0212 44.7024C49.2811 44.1315 49.88 43.1699 50.9209 42.2485C51.0387 42.5973 51.1027 42.962 51.1108 43.3302C51.1008 45.5838 49.4911 46.4251 48.5222 46.7757H48.5212Z"/>
</mask>
<path d="M33.4347 46.7957C33.3747 46.9039 33.4047 46.8558 33.4347 46.7957V46.7957ZM58.3437 38.0818C56.3327 38.0812 54.3486 38.5438 52.5446 39.434C51.9547 38.2421 51.3448 37.2004 51.2448 36.4192C51.1248 35.5077 50.9948 34.9668 51.1348 33.8851C51.2748 32.8034 51.9047 31.2709 51.8947 31.1608C51.8847 31.0506 51.7547 30.4997 50.4649 30.4897C49.1751 30.4797 48.0653 30.7401 47.9363 31.0806C47.7085 31.703 47.5313 32.3428 47.4064 32.9937C47.1765 34.1656 44.8278 38.3522 43.498 40.5357C43.0581 39.6844 42.6882 38.9332 42.6082 38.3322C42.4882 37.4208 42.3582 36.8799 42.4982 35.7982C42.6382 34.7164 43.2681 33.184 43.2581 33.0738C43.2481 32.9636 43.1181 32.4128 41.8293 32.4028C40.5405 32.3927 39.4297 32.6532 39.2997 32.9937C39.1697 33.3342 39.0298 34.1355 38.7698 34.9067C38.5098 35.678 35.3813 42.6491 34.5625 44.462C34.1425 45.3835 33.7826 46.1246 33.5226 46.6254C33.4827 46.7056 33.4527 46.7556 33.4327 46.7957C33.4627 46.7456 33.4827 46.6955 33.4827 46.7156C33.2627 47.1463 33.1327 47.3867 33.1327 47.3867V47.3967C32.9627 47.7172 32.7728 48.0076 32.6828 48.0076C32.6228 48.0076 32.4928 47.1663 32.7128 46.0145C33.1827 43.5906 34.2925 39.8246 34.2825 39.6944C34.2725 39.6243 34.4925 38.9732 33.5526 38.6227C32.6428 38.2921 32.3128 38.843 32.2329 38.843C32.1529 38.843 32.0929 39.0433 32.0929 39.0433C32.0929 39.0433 33.1027 34.7966 30.1542 34.7966C28.3145 34.7966 25.7549 36.8198 24.4971 38.6527C23.7072 39.0834 21.9975 40.0149 20.1978 41.0065C19.5079 41.3871 18.798 41.7777 18.1281 42.1483C18.0781 42.0982 18.0381 42.0481 17.9881 41.9981C14.4097 38.172 7.80277 35.4676 8.08273 30.3294C8.18271 28.4565 8.83261 23.5386 20.7877 17.5691C30.5861 12.6813 38.4199 14.0234 39.7686 17.0082C41.7083 21.265 35.5803 29.1876 25.4049 30.3294C21.5266 30.7601 19.4879 29.2577 18.978 28.6968C18.4481 28.1059 18.3681 28.0758 18.1681 28.186C17.8382 28.3663 18.0481 28.8871 18.1681 29.1976C18.4681 29.9889 19.7179 31.3911 21.8465 32.0923C23.7162 32.7032 28.2635 33.0438 33.7616 30.9104C39.9386 28.5266 44.7468 21.886 43.3371 16.3271C41.9013 10.6781 32.5508 8.82514 23.7092 11.9702C18.4411 13.8431 12.744 16.7878 8.64564 20.624C3.77742 25.1912 2.99854 29.1676 3.31849 30.8302C4.45731 36.7297 12.574 40.5758 15.8225 43.4203C15.6625 43.5105 15.5125 43.5906 15.3726 43.6707C13.7438 44.482 7.55581 47.7272 6.00706 51.1527C4.25734 55.0389 6.29702 57.8233 7.6358 58.2039C11.8141 59.3658 16.0924 57.2724 18.3911 53.8369C20.6897 50.4015 20.4108 45.9143 19.3509 43.871C19.3409 43.841 19.3209 43.821 19.3109 43.7909C19.7309 43.5405 20.1608 43.2901 20.5907 43.0397C21.4196 42.5489 22.2295 42.0982 22.9393 41.7076C22.5394 42.7893 22.2495 44.0914 22.0995 45.9744C21.9195 48.1779 22.8294 51.0325 24.0092 52.1543C24.5291 52.645 25.158 52.6551 25.5479 52.6551C26.9277 52.6551 27.5476 51.5132 28.2365 50.1511C29.0864 48.4884 29.8362 46.5553 29.8362 46.5553C29.8362 46.5553 28.8964 51.7837 31.466 51.7837C32.4048 51.7837 33.3447 50.5717 33.7656 49.9507V49.9608C33.7656 49.9608 33.7856 49.9207 33.8356 49.8406C33.9356 49.6903 33.9856 49.6002 33.9856 49.6002V49.5701C34.3655 48.9191 35.1954 47.4267 36.4442 44.9628C38.0639 41.7777 39.6127 37.8014 39.6127 37.8014C39.7623 38.6755 39.9694 39.5387 40.2326 40.3855C40.5125 41.337 41.1024 42.3787 41.5724 43.3903C41.1924 43.9111 40.9625 44.2116 40.9625 44.2116C40.9632 44.2193 40.9668 44.2264 40.9725 44.2316C40.6725 44.6323 40.3326 45.0629 39.9826 45.4836C38.7038 47.006 37.1831 48.7488 36.9831 49.2496C36.7431 49.8406 36.8031 50.2813 37.263 50.6218C37.603 50.8822 38.2029 50.9223 38.8318 50.8722C39.9816 50.7921 40.7915 50.5116 41.1814 50.3314C41.9003 50.0731 42.5797 49.7158 43.2001 49.2697C44.4499 48.3482 45.2098 47.0261 45.1398 45.2833C45.0998 44.3218 44.7898 43.3602 44.4099 42.4588C44.5199 42.2985 44.6399 42.1283 44.7499 41.958C46.7285 39.0634 48.2583 35.8863 48.2583 35.8863C48.4079 36.7604 48.615 37.6237 48.8782 38.4704C49.1181 39.2817 49.5871 40.1731 50.017 41.0445C48.1583 42.5569 47.0085 44.3097 46.6086 45.4616C45.8687 47.595 46.4486 48.5565 47.5384 48.7769C48.0283 48.877 48.7282 48.6467 49.2481 48.4263C50.0203 48.1687 50.7483 47.7937 51.4068 47.3145C52.6566 46.3931 53.8654 45.101 53.7854 43.3482C53.7554 42.5569 53.5354 41.7657 53.2455 41.0045C54.8152 40.3434 56.8539 39.9828 59.4535 40.2833C65.0206 40.9344 66.1104 44.4199 65.9005 45.8722C65.6905 47.3246 64.5207 48.1358 64.1307 48.3762C63.7408 48.6166 63.6208 48.7068 63.6508 48.887C63.7008 49.1475 63.8808 49.1374 64.2107 49.0774C64.6707 48.9972 67.1293 47.8955 67.2392 45.2012C67.3992 41.7957 64.1307 38.0498 58.3407 38.0798L58.3437 38.0818ZM15.4326 52.5749C13.5938 54.5881 11.0143 55.3494 9.90544 54.7083C8.71563 54.0152 9.18555 51.0525 11.4542 48.9071C12.834 47.605 14.6127 46.4031 15.7925 45.6619C16.0624 45.5016 16.4524 45.2613 16.9323 44.9708C17.0123 44.9207 17.0523 44.9007 17.0523 44.9007C17.1423 44.8406 17.2423 44.7905 17.3422 44.7304C18.1711 47.7753 17.3722 50.4596 15.4326 52.5729V52.5749ZM28.8664 43.4203C28.2265 44.9928 26.8777 48.9992 26.0578 48.7889C25.358 48.6086 24.928 45.5537 25.9179 42.5489C26.4178 41.0365 27.4776 39.2337 28.1075 38.5325C29.1164 37.4007 30.2262 37.0401 30.4861 37.4909C30.8361 38.0818 29.2663 42.4388 28.8664 43.4203ZM39.9646 48.7288C39.6947 48.869 39.4447 48.9592 39.3247 48.8891C39.2347 48.839 39.4347 48.6487 39.4347 48.6487C39.4347 48.6487 40.8245 47.1563 41.3744 46.4752C41.6943 46.0746 42.0643 45.6038 42.4632 45.083C42.4632 45.1331 42.4732 45.1831 42.4732 45.2432C42.4602 47.0361 40.7415 48.248 39.9616 48.7288H39.9646ZM48.5212 46.7757C48.3213 46.6355 48.3513 46.1647 49.0212 44.7024C49.2811 44.1315 49.88 43.1699 50.9209 42.2485C51.0387 42.5973 51.1027 42.962 51.1108 43.3302C51.1008 45.5838 49.4911 46.4251 48.5222 46.7757H48.5212Z" fill="#CD6799"/>
<path d="M33.4347 46.7957C33.3747 46.9039 33.4047 46.8558 33.4347 46.7957V46.7957ZM58.3437 38.0818C56.3327 38.0812 54.3486 38.5438 52.5446 39.434C51.9547 38.2421 51.3448 37.2004 51.2448 36.4192C51.1248 35.5077 50.9948 34.9668 51.1348 33.8851C51.2748 32.8034 51.9047 31.2709 51.8947 31.1608C51.8847 31.0506 51.7547 30.4997 50.4649 30.4897C49.1751 30.4797 48.0653 30.7401 47.9363 31.0806C47.7085 31.703 47.5313 32.3428 47.4064 32.9937C47.1765 34.1656 44.8278 38.3522 43.498 40.5357C43.0581 39.6844 42.6882 38.9332 42.6082 38.3322C42.4882 37.4208 42.3582 36.8799 42.4982 35.7982C42.6382 34.7164 43.2681 33.184 43.2581 33.0738C43.2481 32.9636 43.1181 32.4128 41.8293 32.4028C40.5405 32.3927 39.4297 32.6532 39.2997 32.9937C39.1697 33.3342 39.0298 34.1355 38.7698 34.9067C38.5098 35.678 35.3813 42.6491 34.5625 44.462C34.1425 45.3835 33.7826 46.1246 33.5226 46.6254C33.4827 46.7056 33.4527 46.7556 33.4327 46.7957C33.4627 46.7456 33.4827 46.6955 33.4827 46.7156C33.2627 47.1463 33.1327 47.3867 33.1327 47.3867V47.3967C32.9627 47.7172 32.7728 48.0076 32.6828 48.0076C32.6228 48.0076 32.4928 47.1663 32.7128 46.0145C33.1827 43.5906 34.2925 39.8246 34.2825 39.6944C34.2725 39.6243 34.4925 38.9732 33.5526 38.6227C32.6428 38.2921 32.3128 38.843 32.2329 38.843C32.1529 38.843 32.0929 39.0433 32.0929 39.0433C32.0929 39.0433 33.1027 34.7966 30.1542 34.7966C28.3145 34.7966 25.7549 36.8198 24.4971 38.6527C23.7072 39.0834 21.9975 40.0149 20.1978 41.0065C19.5079 41.3871 18.798 41.7777 18.1281 42.1483C18.0781 42.0982 18.0381 42.0481 17.9881 41.9981C14.4097 38.172 7.80277 35.4676 8.08273 30.3294C8.18271 28.4565 8.83261 23.5386 20.7877 17.5691C30.5861 12.6813 38.4199 14.0234 39.7686 17.0082C41.7083 21.265 35.5803 29.1876 25.4049 30.3294C21.5266 30.7601 19.4879 29.2577 18.978 28.6968C18.4481 28.1059 18.3681 28.0758 18.1681 28.186C17.8382 28.3663 18.0481 28.8871 18.1681 29.1976C18.4681 29.9889 19.7179 31.3911 21.8465 32.0923C23.7162 32.7032 28.2635 33.0438 33.7616 30.9104C39.9386 28.5266 44.7468 21.886 43.3371 16.3271C41.9013 10.6781 32.5508 8.82514 23.7092 11.9702C18.4411 13.8431 12.744 16.7878 8.64564 20.624C3.77742 25.1912 2.99854 29.1676 3.31849 30.8302C4.45731 36.7297 12.574 40.5758 15.8225 43.4203C15.6625 43.5105 15.5125 43.5906 15.3726 43.6707C13.7438 44.482 7.55581 47.7272 6.00706 51.1527C4.25734 55.0389 6.29702 57.8233 7.6358 58.2039C11.8141 59.3658 16.0924 57.2724 18.3911 53.8369C20.6897 50.4015 20.4108 45.9143 19.3509 43.871C19.3409 43.841 19.3209 43.821 19.3109 43.7909C19.7309 43.5405 20.1608 43.2901 20.5907 43.0397C21.4196 42.5489 22.2295 42.0982 22.9393 41.7076C22.5394 42.7893 22.2495 44.0914 22.0995 45.9744C21.9195 48.1779 22.8294 51.0325 24.0092 52.1543C24.5291 52.645 25.158 52.6551 25.5479 52.6551C26.9277 52.6551 27.5476 51.5132 28.2365 50.1511C29.0864 48.4884 29.8362 46.5553 29.8362 46.5553C29.8362 46.5553 28.8964 51.7837 31.466 51.7837C32.4048 51.7837 33.3447 50.5717 33.7656 49.9507V49.9608C33.7656 49.9608 33.7856 49.9207 33.8356 49.8406C33.9356 49.6903 33.9856 49.6002 33.9856 49.6002V49.5701C34.3655 48.9191 35.1954 47.4267 36.4442 44.9628C38.0639 41.7777 39.6127 37.8014 39.6127 37.8014C39.7623 38.6755 39.9694 39.5387 40.2326 40.3855C40.5125 41.337 41.1024 42.3787 41.5724 43.3903C41.1924 43.9111 40.9625 44.2116 40.9625 44.2116C40.9632 44.2193 40.9668 44.2264 40.9725 44.2316C40.6725 44.6323 40.3326 45.0629 39.9826 45.4836C38.7038 47.006 37.1831 48.7488 36.9831 49.2496C36.7431 49.8406 36.8031 50.2813 37.263 50.6218C37.603 50.8822 38.2029 50.9223 38.8318 50.8722C39.9816 50.7921 40.7915 50.5116 41.1814 50.3314C41.9003 50.0731 42.5797 49.7158 43.2001 49.2697C44.4499 48.3482 45.2098 47.0261 45.1398 45.2833C45.0998 44.3218 44.7898 43.3602 44.4099 42.4588C44.5199 42.2985 44.6399 42.1283 44.7499 41.958C46.7285 39.0634 48.2583 35.8863 48.2583 35.8863C48.4079 36.7604 48.615 37.6237 48.8782 38.4704C49.1181 39.2817 49.5871 40.1731 50.017 41.0445C48.1583 42.5569 47.0085 44.3097 46.6086 45.4616C45.8687 47.595 46.4486 48.5565 47.5384 48.7769C48.0283 48.877 48.7282 48.6467 49.2481 48.4263C50.0203 48.1687 50.7483 47.7937 51.4068 47.3145C52.6566 46.3931 53.8654 45.101 53.7854 43.3482C53.7554 42.5569 53.5354 41.7657 53.2455 41.0045C54.8152 40.3434 56.8539 39.9828 59.4535 40.2833C65.0206 40.9344 66.1104 44.4199 65.9005 45.8722C65.6905 47.3246 64.5207 48.1358 64.1307 48.3762C63.7408 48.6166 63.6208 48.7068 63.6508 48.887C63.7008 49.1475 63.8808 49.1374 64.2107 49.0774C64.6707 48.9972 67.1293 47.8955 67.2392 45.2012C67.3992 41.7957 64.1307 38.0498 58.3407 38.0798L58.3437 38.0818ZM15.4326 52.5749C13.5938 54.5881 11.0143 55.3494 9.90544 54.7083C8.71563 54.0152 9.18555 51.0525 11.4542 48.9071C12.834 47.605 14.6127 46.4031 15.7925 45.6619C16.0624 45.5016 16.4524 45.2613 16.9323 44.9708C17.0123 44.9207 17.0523 44.9007 17.0523 44.9007C17.1423 44.8406 17.2423 44.7905 17.3422 44.7304C18.1711 47.7753 17.3722 50.4596 15.4326 52.5729V52.5749ZM28.8664 43.4203C28.2265 44.9928 26.8777 48.9992 26.0578 48.7889C25.358 48.6086 24.928 45.5537 25.9179 42.5489C26.4178 41.0365 27.4776 39.2337 28.1075 38.5325C29.1164 37.4007 30.2262 37.0401 30.4861 37.4909C30.8361 38.0818 29.2663 42.4388 28.8664 43.4203ZM39.9646 48.7288C39.6947 48.869 39.4447 48.9592 39.3247 48.8891C39.2347 48.839 39.4347 48.6487 39.4347 48.6487C39.4347 48.6487 40.8245 47.1563 41.3744 46.4752C41.6943 46.0746 42.0643 45.6038 42.4632 45.083C42.4632 45.1331 42.4732 45.1831 42.4732 45.2432C42.4602 47.0361 40.7415 48.248 39.9616 48.7288H39.9646ZM48.5212 46.7757C48.3213 46.6355 48.3513 46.1647 49.0212 44.7024C49.2811 44.1315 49.88 43.1699 50.9209 42.2485C51.0387 42.5973 51.1027 42.962 51.1108 43.3302C51.1008 45.5838 49.4911 46.4251 48.5222 46.7757H48.5212Z" stroke="black" stroke-width="6" mask="url(#path-1-outside-1_60_91)"/>
</svg>
