<svg width="70" height="70" viewBox="0 0 70 70" fill="none" xmlns="http://www.w3.org/2000/svg">
<path d="M21.2558 41.7752C24.92 41.7752 27.8904 38.7839 27.8904 35.0939C27.8904 31.4039 24.92 28.4126 21.2558 28.4126C17.5916 28.4126 14.6212 31.4039 14.6212 35.0939C14.6212 38.7839 17.5916 41.7752 21.2558 41.7752ZM8.75583 55.1379C12.42 55.1379 15.3904 52.1465 15.3904 48.4565C15.3904 44.7665 12.42 41.7752 8.75583 41.7752C5.09163 41.7752 2.12122 44.7665 2.12122 48.4565C2.12122 52.1465 5.09163 55.1379 8.75583 55.1379ZM61.2442 55.1379C64.9084 55.1379 67.8788 52.1465 67.8788 48.4565C67.8788 44.7665 64.9084 41.7752 61.2442 41.7752C57.58 41.7752 54.6096 44.7665 54.6096 48.4565C54.6096 52.1465 57.58 55.1379 61.2442 55.1379Z" fill="black" stroke="black" stroke-width="3"/>
<path d="M41.575 35.3754C41.3629 33.1432 41.2549 31.2853 39.5568 29.9795C37.4063 28.3258 34.9703 29.3989 31.9696 28.3082C29.0211 27.5899 26.8342 24.9536 26.8342 21.8114C26.8342 18.1165 29.858 15.1212 33.5881 15.1212C36.3508 15.1212 38.7261 16.7643 39.7724 19.1177C41.3736 22.1806 40.3329 25.2977 42.3448 26.8679C44.727 28.727 47.9386 27.3655 51.5222 29.127C52.6737 29.6599 53.6483 30.505 54.3351 31.5524C55.0219 32.5999 55.4208 33.8496 55.4208 35.1916C55.4208 38.3339 53.2338 40.9701 50.2854 41.6884C47.2847 42.7791 44.8487 41.7061 42.6982 43.3598C40.2799 45.2194 41.5745 48.3305 39.6036 51.6169C38.485 53.7809 36.2112 55.2621 33.5881 55.2621C29.858 55.2621 26.8342 52.2668 26.8342 48.5719C26.8342 45.8879 28.4298 43.573 30.7328 42.5073C34.3164 40.7458 37.528 42.1073 39.9102 40.2481C41.2845 39.1756 41.575 37.5211 41.575 35.3754Z" fill="#D0021B" stroke="black" stroke-width="3"/>
</svg>
