<svg width="70" height="70" viewBox="0 0 70 70" fill="none" xmlns="http://www.w3.org/2000/svg">
<path d="M67.9464 53.753L66.4929 54.1227C65.1823 54.4561 63.9874 54.4981 62.892 54.08C61.7956 53.6614 60.9479 52.8386 60.2178 51.7422C58.0692 48.5232 55.7651 45.4201 53.4431 42.293C52.5632 41.108 51.6807 39.9195 50.8032 38.7199L50.8022 38.7186C50.6257 38.4764 50.4466 38.2368 50.2558 37.9844C49.3167 39.2441 48.3813 40.4875 47.4523 41.7224C44.9177 45.0915 42.4304 48.3978 40.0427 51.8031L40.0425 51.8035C39.3671 52.7659 38.5923 53.5803 37.5675 54.0265C36.5201 54.4826 35.3577 54.4923 34.0338 54.1347L32.614 53.7512L33.4927 52.5718L47.1576 34.2319L34.4769 17.7206L33.4927 16.4391L35.0787 16.13C36.2628 15.8992 37.4105 15.8098 38.4899 16.1342C39.6055 16.4695 40.5147 17.2041 41.3026 18.356L67.9464 53.753ZM67.9464 53.753L67.0462 52.5534C65.806 50.9007 64.5753 49.2571 63.3504 47.6211C60.171 43.3746 57.0307 39.1803 53.864 35.0174L53.8636 35.0168C53.5135 34.5574 53.4494 34.342 53.4433 34.2298C53.4392 34.1543 53.4519 33.9607 53.7996 33.5286M67.9464 53.753L50.2711 30.4787M50.2711 30.4787C49.5443 29.5135 48.8205 28.5611 48.1022 27.616C45.7466 24.5163 43.4504 21.4948 41.3027 18.3562L50.2711 30.4787ZM50.2711 30.4787C50.9441 29.5908 51.6134 28.7121 52.2784 27.8392C54.6913 24.6717 57.0464 21.58 59.3105 18.3952C59.9976 17.4206 60.791 16.6296 61.8245 16.2169C62.8742 15.7977 64.0224 15.8272 65.2986 16.1986L66.6903 16.6035L65.8177 17.7608C65.3218 18.4184 64.8287 19.0734 64.3371 19.7263C63.1256 21.3355 61.9242 22.9312 60.7182 24.5181L60.7179 24.5186C60.1347 25.285 59.5524 26.0563 58.9686 26.8296C57.2756 29.0721 55.5708 31.3303 53.7996 33.5286M53.7996 33.5286L53.0209 32.9012L53.7999 33.5283C53.7998 33.5284 53.7997 33.5285 53.7996 33.5286ZM50.2469 36.3203C50.0399 36.5996 49.8329 36.8781 49.626 37.156L50.8773 37.1489C50.7852 37.0275 50.6902 36.9029 50.5919 36.7738C50.4816 36.629 50.3669 36.4784 50.2469 36.3203Z" fill="#202020" stroke="black" stroke-width="2"/>
<path d="M2.1672 27.9592L2.1559 27.9996L6.101 50.1965C11.165 55.5522 20.6594 56.7515 27.3241 52.9415L27.3247 52.9412C31.8502 50.3503 33.9777 46.2071 34.8996 41.4286L35.0704 40.5436L34.2077 40.2822C33.2984 40.0066 32.3244 39.8477 31.4541 40.2449C30.5447 40.6599 30.0519 41.5336 29.7413 42.5523L29.7404 42.5553C28.6998 46.0078 26.677 48.6337 23.316 49.7619C18.2311 51.4685 13.8447 50.7022 10.7937 48.2773C7.90921 45.9847 6.06424 42.0866 6.03824 36.9728L34.2764 36.6175L35.2255 36.6056L35.263 35.6572C35.5259 29.0167 34.2111 22.8666 28.6576 18.4967L28.657 18.4963C19.1784 11.048 5.48629 16.1045 2.1672 27.9592ZM18.9073 19.669C25.1216 19.7144 29.9082 24.6675 30.453 32.1267H6.12254C6.46438 28.4654 7.82928 25.4499 9.88367 23.3127C12.1236 20.9825 15.2356 19.6396 18.9066 19.669L18.9073 19.669Z" fill="#202020" stroke="black" stroke-width="2"/>
</svg>
