<svg width="70" height="70" viewBox="0 0 70 70" fill="none" xmlns="http://www.w3.org/2000/svg">
<path d="M58.8635 46.6057L58.8635 46.6058C54.3763 51.093 47.5733 52.6379 41.359 52.6579C38.2784 52.6679 35.4216 52.3014 33.1952 51.779C32.0812 51.5176 31.1483 51.2225 30.4363 50.9282C29.9769 50.7383 29.6585 50.5684 29.4523 50.4369C29.4348 50.3651 29.4158 50.2848 29.3956 50.1964C29.2894 49.7335 29.1494 49.0491 29.0208 48.1868C28.7633 46.4595 28.554 44.0338 28.7476 41.2534C29.1343 35.7008 31.1184 28.7906 37.4965 23.1211C43.9403 17.3933 50.3394 15.9649 55.1003 15.934C57.4933 15.9184 59.4852 16.2567 60.8705 16.5957C61.5623 16.765 62.1002 16.9338 62.4579 17.0573C62.5552 17.0909 62.6392 17.1211 62.7091 17.147C69.4492 24.1805 68.2046 37.2652 58.8635 46.6057Z" fill="#F68C2B" stroke="black" stroke-width="3"/>
<path d="M7.0214 48.8592L7.02116 48.859C1.69004 43.5298 1.20027 36.2436 4.91333 32.5303L3.85264 31.4697L4.91333 32.5303C6.55523 30.8883 8.70287 30.1627 11.1533 30.4835C13.6421 30.8094 16.5282 32.2338 19.455 35.0761C22.2348 37.7756 23.59 41.4479 24.0063 44.7294C24.2136 46.3636 24.181 47.8512 23.999 49.0077C23.8028 50.2549 23.4775 50.8386 23.3491 50.9671C23.294 51.0222 23.1025 51.1686 22.6888 51.3521C22.2962 51.5264 21.7802 51.7005 21.1571 51.8528C19.9111 52.1573 18.3253 52.3531 16.6159 52.326C13.1559 52.2711 9.4756 51.3137 7.0214 48.8592Z" fill="#2298BD" stroke="black" stroke-width="3"/>
</svg>
