<svg width="72" height="72" viewBox="0 0 72 72" fill="none" xmlns="http://www.w3.org/2000/svg">
<path d="M70.4531 36H1.54688M60.6094 11.3906L11.3906 60.6094M60.6094 60.6094L11.3906 11.3906M36 1.54688V70.4531M35.4531 1.54688C26.3641 1.69116 17.7004 5.42159 11.3497 11.9254C4.99892 18.4292 1.47582 27.1792 1.54796 36.2691C1.62011 45.359 5.28166 54.052 11.7348 60.4542C18.188 66.8563 26.9098 70.4488 36 70.4488C45.0902 70.4488 53.812 66.8563 60.2652 60.4542C66.7183 54.052 70.3799 45.359 70.452 36.2691C70.5242 27.1792 67.0011 18.4292 60.6503 11.9254C54.2996 5.42159 45.6359 1.69116 36.5469 1.54688H35.4531ZM35.4531 9.20312C28.395 9.3472 21.6788 12.2707 16.7639 17.3384C11.849 22.4061 9.13248 29.2086 9.20452 36.2679C9.27656 43.3271 12.1314 50.0727 17.1487 55.0391C22.166 60.0055 28.9404 62.7913 36 62.7913C43.0596 62.7913 49.834 60.0055 54.8513 55.0391C59.8686 50.0727 62.7234 43.3271 62.7955 36.2679C62.8675 29.2086 60.151 22.4061 55.2361 17.3384C50.3212 12.2707 43.605 9.3472 36.5469 9.20312H35.4531ZM35.4531 16.8594C30.4261 17.0031 25.6577 19.1194 22.1786 22.7509C18.6996 26.3823 16.7895 31.2371 16.8613 36.2657C16.9332 41.2942 18.9812 46.0924 22.5626 49.623C26.144 53.1536 30.971 55.1328 36 55.1328C41.029 55.1328 45.856 53.1536 49.4374 49.623C53.0188 46.0924 55.0668 41.2942 55.1387 36.2657C55.2105 31.2371 53.3004 26.3823 49.8214 22.7509C46.3424 19.1194 41.5739 17.0031 36.5469 16.8594H35.4531ZM35.4531 24.5156C32.458 24.6584 29.6376 25.9669 27.5944 28.1615C25.5513 30.3562 24.4475 33.2629 24.5189 36.2605C24.5903 39.2581 25.8313 42.1089 27.9766 44.2038C30.122 46.2986 33.0015 47.4713 36 47.4713C38.9985 47.4713 41.878 46.2986 44.0234 44.2038C46.1687 42.1089 47.4097 39.2581 47.4811 36.2605C47.5525 33.2629 46.4487 30.3562 44.4056 28.1615C42.3624 25.9669 39.542 24.6584 36.5469 24.5156H35.4531ZM35.4531 32.1719C34.4952 32.3101 33.6253 32.8061 33.0183 33.5599C32.4113 34.3138 32.1124 35.2695 32.1817 36.2349C32.251 37.2002 32.6834 38.1035 33.3918 38.7629C34.1003 39.4223 35.0322 39.7889 36 39.7889C36.9678 39.7889 37.8997 39.4223 38.6082 38.7629C39.3166 38.1035 39.749 37.2002 39.8183 36.2349C39.8876 35.2695 39.5887 34.3138 38.9817 33.5599C38.3748 32.8061 37.5048 32.3101 36.5469 32.1719H35.4531Z" stroke="black" stroke-width="3"/>
<path d="M29.3139 5.13246L29.0115 3.92307L27.8965 4.48057L16.959 9.94932L15.8949 10.4814L16.6021 11.4381L35.078 36.4349L35.1102 36.5641L35.2701 36.6949L53.7896 61.7506L54.4798 62.6844L55.3009 61.8634L60.7696 56.3946L61.5509 55.6133L60.6957 54.9135L36.8898 35.4359L29.3139 5.13246Z" fill="#FF6600" stroke="black" stroke-width="2"/>
<path d="M10.5824 27.3854L9.29688 27.0025V28.3438V43.6562V44.9975L10.5824 44.6146L36.2855 36.9584L39.5029 36L36.2855 35.0416L10.5824 27.3854Z" fill="#FFCC00" stroke="black" stroke-width="2"/>
<path d="M39.2812 56.1406H40.4673L40.2669 54.9717L36.9856 35.831H35.0144L31.7331 54.9717L31.5327 56.1406H32.7188H39.2812Z" fill="#77FF77" stroke="black" stroke-width="2"/>
<path d="M35.049 35.6909L36.8466 36.5322L48.8779 17.3915L49.4396 16.4979L48.5169 15.9852L43.595 13.2508L42.5336 12.6612L42.1583 13.8159L35.049 35.6909Z" fill="#CCFF33" stroke="black" stroke-width="2"/>
<path d="M35.6061 35.0809L35.6619 35.2835L35.5528 35.1056L21.334 42.2149L20.2623 42.7508L20.9812 43.7094L22.6219 45.8969L23.2177 46.6913L24.0163 46.1011L36.3874 36.9572L44.3353 35.8975L45.4447 35.7496L45.1733 34.6637L44.6264 32.4762L44.3416 31.3371L43.2623 31.7996L35.6061 35.0809Z" fill="#0044FF" stroke="black" stroke-width="2"/>
</svg>
