<svg width="70" height="70" viewBox="0 0 70 70" fill="none" xmlns="http://www.w3.org/2000/svg">
<path d="M35 11.2884L34.9942 11.2885C34.4988 11.2904 34.0057 11.341 33.5217 11.4391L28.8394 6.75702L33.4518 2.14455C33.8836 1.71274 34.441 1.5 35 1.5C35.559 1.5 36.1164 1.71274 36.5482 2.14455L67.8553 33.4518C68.7149 34.3113 68.7149 35.6885 67.8553 36.5481L36.5482 67.8553C35.6886 68.7149 34.3114 68.7149 33.4518 67.8553L2.14467 36.5481C1.28511 35.6885 1.28511 34.3113 2.14467 33.4518L22.9106 12.6858L27.5919 17.3671C27.494 17.8518 27.4437 18.3458 27.4423 18.8419L27.4423 18.8481C27.4442 20.2539 27.8381 21.6314 28.5799 22.8256C29.1515 23.746 29.9123 24.5295 30.8077 25.1264V44.8682C29.9114 45.4658 29.15 46.2502 28.5781 47.1718C27.8363 48.3673 27.443 49.7461 27.4423 51.1531V51.1538C27.4423 53.1582 28.2386 55.0805 29.6559 56.4978C31.0733 57.9152 32.9956 58.7114 35 58.7114C37.0044 58.7114 38.9267 57.9152 40.3441 56.4978C41.7614 55.0805 42.5577 53.1582 42.5577 51.1538V51.1518C42.5558 49.7459 42.1619 48.3685 41.4201 47.1743C40.8485 46.2539 40.0877 45.4704 39.1923 44.8735V28.9675L43.7457 33.5209C43.6478 34.0056 43.5975 34.4996 43.5961 34.9957V34.9999C43.5961 37.0044 44.3924 38.9267 45.8097 40.344C47.2271 41.7614 49.1494 42.5576 51.1538 42.5576C53.1582 42.5576 55.0805 41.7614 56.4979 40.344C57.9152 38.9267 58.7115 37.0044 58.7115 34.9999C58.7115 32.9955 57.9152 31.0732 56.4979 29.6559C55.0805 28.2385 53.1582 27.4423 51.1538 27.4422L51.148 27.4423C50.6526 27.4442 50.1595 27.4948 49.6755 27.5929L42.4081 20.3255C42.506 19.8406 42.5563 19.3465 42.5577 18.8503V18.8461C42.5577 16.8417 41.7614 14.9194 40.3441 13.502C38.9267 12.0847 37.0044 11.2884 35 11.2884Z" fill="#F1502F" stroke="black" stroke-width="3"/>
</svg>
