<svg width="70" height="70" viewBox="0 0 70 70" fill="none" xmlns="http://www.w3.org/2000/svg">
<path d="M5.89191 1.89189H63.8311L58.5614 61.3844L34.798 68.1081L11.1671 61.3816L5.89191 1.89189ZM53.0434 14.0674L16.6796 14.0591L17.2673 21.2932L45.2023 21.2988L44.4987 28.7922H26.1789L26.8411 35.8912H43.8973L42.8875 45.6111L34.8587 47.8294L26.7031 45.5946L26.1844 39.7731H18.9834L19.7835 50.4091L34.8615 55.1077L49.6856 50.8864L53.0434 14.0702V14.0674Z" fill="#1572B6"/>
<path d="M53.0434 14.0674L16.6796 14.0591L17.2673 21.2932L45.2023 21.2988L44.4987 28.7922H26.1789L26.8411 35.8912H43.8973L42.8875 45.6111L34.8587 47.8294L26.7031 45.5946L26.1844 39.7731H18.9834L19.7835 50.4091L34.8615 55.1077L49.6856 50.8864L53.0434 14.0702V14.0674Z" fill="white"/>
<path d="M5.89191 1.89189H63.8311L58.5614 61.3844L34.798 68.1081L11.1671 61.3816L5.89191 1.89189ZM53.0434 14.0674L16.6796 14.0591L17.2673 21.2932L45.2023 21.2988L44.4987 28.7922H26.1789L26.8411 35.8912H43.8973L42.8875 45.6111L34.8587 47.8294L26.7031 45.5946L26.1844 39.7731H18.9834L19.7835 50.4091L34.8615 55.1077L49.6856 50.8864L53.0434 14.0702V14.0674Z" stroke="black" stroke-width="3"/>
<path d="M53.0434 14.0674L16.6796 14.0591L17.2673 21.2932L45.2023 21.2988L44.4987 28.7922H26.1789L26.8411 35.8912H43.8973L42.8875 45.6111L34.8587 47.8294L26.7031 45.5946L26.1844 39.7731H18.9834L19.7835 50.4091L34.8615 55.1077L49.6856 50.8864L53.0434 14.0702V14.0674Z" stroke="black" stroke-width="3"/>
</svg>
