<svg width="34" height="73" viewBox="0 0 34 73" fill="none" xmlns="http://www.w3.org/2000/svg">
<path d="M18.1324 71L16.2691 70.3631C16.2691 70.3631 16.4966 60.8636 13.0871 60.1819C10.8149 57.5452 13.4516 -51.6362 21.6331 59.8179C21.6331 59.8179 18.8146 61.2266 18.3147 63.6362C17.7689 66 18.1324 71 18.1324 71Z" fill="black" stroke="black" stroke-width="2"/>
<path d="M19.4968 61.8181C19.4968 61.8181 35.8154 51.0906 31.9966 28.7721C28.3152 12.5457 19.6333 7.22747 18.6787 5.18186C17.6335 3.72732 16.6331 1.18225 16.6331 1.18225L17.3153 46.3177C17.3153 46.3635 15.9055 60.1356 19.4968 61.8181Z" fill="#499D4A" stroke="black" stroke-width="2"/>
<path d="M15.4484 62.4087C15.4484 62.4087 0.129664 51.9541 1.03893 33.5456C1.9024 15.1365 12.7205 6.09112 14.8115 4.45483C16.1754 3.0003 16.2207 2.45454 16.3118 1C17.2664 3.04561 17.0846 31.5911 17.2206 34.9543C17.6294 47.9087 16.4936 59.9548 15.4484 62.4087Z" fill="#58AA50" stroke="black" stroke-width="2"/>
</svg>
