<svg width="73" height="73" viewBox="0 0 73 73" fill="none" xmlns="http://www.w3.org/2000/svg">
<path fill-rule="evenodd" clip-rule="evenodd" d="M29.2078 2C23.7815 2 19.3828 6.25917 19.3828 11.5131V18.0992H36.3877V19.9286H11.825C6.39881 19.9286 2 24.1878 2 29.4417V43.7115C2 48.9654 6.39881 53.2245 11.825 53.2245H17.4933V45.1751C17.4933 39.9212 21.8922 35.6618 27.3185 35.6618H45.4569C50.0484 35.6618 53.7703 32.0579 53.7703 27.6124V11.5131C53.7703 6.25917 49.3717 2 43.9454 2H29.2078ZM26.9406 13.7085C28.8189 13.7085 30.3415 12.2341 30.3415 10.4155C30.3415 8.5968 28.8189 7.12245 26.9406 7.12245C25.0621 7.12245 23.5395 8.5968 23.5395 10.4155C23.5395 12.2341 25.0621 13.7085 26.9406 13.7085Z" fill="#116AB5"/>
<path d="M26.9406 13.7085C28.8189 13.7085 30.3415 12.2341 30.3415 10.4155C30.3415 8.5968 28.8189 7.12245 26.9406 7.12245C25.0621 7.12245 23.5395 8.5968 23.5395 10.4155C23.5395 12.2341 25.0621 13.7085 26.9406 13.7085Z" fill="#F5F5F5"/>
<path fill-rule="evenodd" clip-rule="evenodd" d="M29.2078 2C23.7815 2 19.3828 6.25917 19.3828 11.5131V18.0992H36.3877V19.9286H11.825C6.39881 19.9286 2 24.1878 2 29.4417V43.7115C2 48.9654 6.39881 53.2245 11.825 53.2245H17.4933V45.1751C17.4933 39.9212 21.8922 35.6618 27.3185 35.6618H45.4569C50.0484 35.6618 53.7703 32.0579 53.7703 27.6124V11.5131C53.7703 6.25917 49.3717 2 43.9454 2H29.2078ZM26.9406 13.7085C28.8189 13.7085 30.3415 12.2341 30.3415 10.4155C30.3415 8.5968 28.8189 7.12245 26.9406 7.12245C25.0621 7.12245 23.5395 8.5968 23.5395 10.4155C23.5395 12.2341 25.0621 13.7085 26.9406 13.7085Z" stroke="black" stroke-width="3"/>
<path d="M26.9406 13.7085C28.8189 13.7085 30.3415 12.2341 30.3415 10.4155C30.3415 8.5968 28.8189 7.12245 26.9406 7.12245C25.0621 7.12245 23.5395 8.5968 23.5395 10.4155C23.5395 12.2341 25.0621 13.7085 26.9406 13.7085Z" stroke="black" stroke-width="3"/>
<path fill-rule="evenodd" clip-rule="evenodd" d="M43.9449 71.1532C49.3712 71.1532 53.7701 66.8941 53.7701 61.6402V55.0541H36.7651V53.2247H61.3278C66.7541 53.2247 71.1527 48.9654 71.1527 43.7115V29.4417C71.1527 24.1878 66.7541 19.9286 61.3278 19.9286H55.6595V27.9781C55.6595 33.2323 51.2606 37.4914 45.8345 37.4914H27.6959C23.1043 37.4914 19.3824 41.0953 19.3824 45.5408V61.6402C19.3824 66.8941 23.7813 71.1532 29.2074 71.1532H43.9449ZM46.2124 59.4448C44.3339 59.4448 42.8113 60.919 42.8113 62.7378C42.8113 64.5565 44.3339 66.0307 46.2124 66.0307C48.0906 66.0307 49.6132 64.5565 49.6132 62.7378C49.6132 60.919 48.0906 59.4448 46.2124 59.4448Z" fill="#FFD841"/>
<path d="M46.2124 59.4448C44.3339 59.4448 42.8113 60.919 42.8113 62.7378C42.8113 64.5565 44.3339 66.0307 46.2124 66.0307C48.0906 66.0307 49.6132 64.5565 49.6132 62.7378C49.6132 60.919 48.0906 59.4448 46.2124 59.4448Z" fill="#F5F5F5"/>
<path fill-rule="evenodd" clip-rule="evenodd" d="M43.9449 71.1532C49.3712 71.1532 53.7701 66.8941 53.7701 61.6402V55.0541H36.7651V53.2247H61.3278C66.7541 53.2247 71.1527 48.9654 71.1527 43.7115V29.4417C71.1527 24.1878 66.7541 19.9286 61.3278 19.9286H55.6595V27.9781C55.6595 33.2323 51.2606 37.4914 45.8345 37.4914H27.6959C23.1043 37.4914 19.3824 41.0953 19.3824 45.5408V61.6402C19.3824 66.8941 23.7813 71.1532 29.2074 71.1532H43.9449ZM46.2124 59.4448C44.3339 59.4448 42.8113 60.919 42.8113 62.7378C42.8113 64.5565 44.3339 66.0307 46.2124 66.0307C48.0906 66.0307 49.6132 64.5565 49.6132 62.7378C49.6132 60.919 48.0906 59.4448 46.2124 59.4448Z" stroke="black" stroke-width="3"/>
<path d="M46.2124 59.4448C44.3339 59.4448 42.8113 60.919 42.8113 62.7378C42.8113 64.5565 44.3339 66.0307 46.2124 66.0307C48.0906 66.0307 49.6132 64.5565 49.6132 62.7378C49.6132 60.919 48.0906 59.4448 46.2124 59.4448Z" stroke="black" stroke-width="3"/>
</svg>
