<svg width="70" height="70" viewBox="0 0 70 70" fill="none" xmlns="http://www.w3.org/2000/svg">
<mask id="path-1-inside-1_1083_91" fill="white">
<path d="M44.9052 18.8105L46.0114 18.8364L47.1175 18.9138L48.2234 19.0418L49.3291 19.2188L50.4344 19.4428L51.5393 19.7112L52.6438 20.0209L53.7478 20.3685L54.8514 20.7502L55.9557 21.1623L57.0582 21.5997L58.1603 22.0583L59.262 22.5339L60.3633 23.0219L61.3643 23.473C61.4389 23.6438 61.512 23.8154 61.5834 23.9878C62.9516 27.2911 63.6916 30.819 63.7672 34.3907L63.7714 34.6345L63.7737 35L63.7714 35.3648C63.7378 38.0044 63.3413 40.6226 62.5962 43.1464L61.3881 42.8896L60.2852 42.6333L59.1823 42.3545L58.0794 42.053L56.9766 41.7284L55.8738 41.3808L54.7712 41.0107L53.6687 40.6187L52.5663 40.2058L51.4641 39.7734L50.3621 39.3232L49.2603 38.8573L48.1588 38.3783L47.0575 37.889L45.9566 37.3926L43.7556 36.3927L42.6556 35.897L41.556 35.4097L40.4568 34.9352L39.358 34.4779L38.2596 34.0422L37.1603 33.632L36.0625 33.2523L34.9653 32.9068L33.8684 32.5993L32.772 32.3329L31.676 32.1108L30.5804 31.9354L29.485 31.8086L28.3898 31.732L27.2946 31.7064L26.1995 31.732L25.1043 31.8086L24.0089 31.9354L22.9133 32.1108L21.8173 32.3329L20.7209 32.5993L19.624 32.9068L18.5267 33.2523L17.429 33.632L16.332 34.0413L15.2332 34.4772L14.134 34.9346L13.0344 35.4093L11.9344 35.8967L10.8341 36.3925L8.63243 37.3928L7.53118 37.8893L6.42426 38.3812C6.29169 37.261 6.22482 36.1318 6.22482 34.9993C6.22482 33.5859 6.32896 32.1776 6.535 30.7858L7.46223 30.639L8.56083 30.4462L9.65935 30.2335L10.7578 30L11.8563 29.7447L12.9547 29.4672L14.0531 29.1669L15.1516 28.8436L16.2502 28.4974L17.3488 28.1287L18.4476 27.738L19.5465 27.3264L20.6457 26.8952L21.745 26.4462L22.8445 25.9813L23.9443 25.5031L25.0444 25.0143L26.1447 24.5182L28.3464 23.5179L29.4477 23.0216L30.5494 22.5335L31.6515 22.0577L32.754 21.5989L33.8569 21.1614L34.959 20.7502L36.0625 20.3685L37.1666 20.0209L38.2711 19.7112L39.376 19.4428L40.4813 19.2188L41.5869 19.0418L42.6928 18.9138L43.799 18.8364L44.9052 18.8105Z"/>
</mask>
<path d="M44.9052 18.8105L46.0114 18.8364L47.1175 18.9138L48.2234 19.0418L49.3291 19.2188L50.4344 19.4428L51.5393 19.7112L52.6438 20.0209L53.7478 20.3685L54.8514 20.7502L55.9557 21.1623L57.0582 21.5997L58.1603 22.0583L59.262 22.5339L60.3633 23.0219L61.3643 23.473C61.4389 23.6438 61.512 23.8154 61.5834 23.9878C62.9516 27.2911 63.6916 30.819 63.7672 34.3907L63.7714 34.6345L63.7737 35L63.7714 35.3648C63.7378 38.0044 63.3413 40.6226 62.5962 43.1464L61.3881 42.8896L60.2852 42.6333L59.1823 42.3545L58.0794 42.053L56.9766 41.7284L55.8738 41.3808L54.7712 41.0107L53.6687 40.6187L52.5663 40.2058L51.4641 39.7734L50.3621 39.3232L49.2603 38.8573L48.1588 38.3783L47.0575 37.889L45.9566 37.3926L43.7556 36.3927L42.6556 35.897L41.556 35.4097L40.4568 34.9352L39.358 34.4779L38.2596 34.0422L37.1603 33.632L36.0625 33.2523L34.9653 32.9068L33.8684 32.5993L32.772 32.3329L31.676 32.1108L30.5804 31.9354L29.485 31.8086L28.3898 31.732L27.2946 31.7064L26.1995 31.732L25.1043 31.8086L24.0089 31.9354L22.9133 32.1108L21.8173 32.3329L20.7209 32.5993L19.624 32.9068L18.5267 33.2523L17.429 33.632L16.332 34.0413L15.2332 34.4772L14.134 34.9346L13.0344 35.4093L11.9344 35.8967L10.8341 36.3925L8.63243 37.3928L7.53118 37.8893L6.42426 38.3812C6.29169 37.261 6.22482 36.1318 6.22482 34.9993C6.22482 33.5859 6.32896 32.1776 6.535 30.7858L7.46223 30.639L8.56083 30.4462L9.65935 30.2335L10.7578 30L11.8563 29.7447L12.9547 29.4672L14.0531 29.1669L15.1516 28.8436L16.2502 28.4974L17.3488 28.1287L18.4476 27.738L19.5465 27.3264L20.6457 26.8952L21.745 26.4462L22.8445 25.9813L23.9443 25.5031L25.0444 25.0143L26.1447 24.5182L28.3464 23.5179L29.4477 23.0216L30.5494 22.5335L31.6515 22.0577L32.754 21.5989L33.8569 21.1614L34.959 20.7502L36.0625 20.3685L37.1666 20.0209L38.2711 19.7112L39.376 19.4428L40.4813 19.2188L41.5869 19.0418L42.6928 18.9138L43.799 18.8364L44.9052 18.8105Z" fill="#7DB0BC" stroke="black" stroke-width="4" mask="url(#path-1-inside-1_1083_91)"/>
<path d="M45.5922 38.7449L45.5948 38.7461L46.6954 39.2424L46.7005 39.2446L47.8011 39.7337L47.8011 39.7337L47.8084 39.7369L48.909 40.2155L48.909 40.2155L48.9184 40.2195L50.0191 40.6848L50.019 40.6849L50.0303 40.6895L51.131 41.1391L51.1309 41.1392L51.1439 41.1443L52.2446 41.5761L52.2518 41.579L52.259 41.5817L53.3597 41.9939L53.3675 41.9969L53.3754 41.9997L54.4761 42.391L54.4845 42.394L54.4929 42.3968L55.5936 42.7663L55.6023 42.7692L55.6112 42.772L56.7119 43.1189L56.7209 43.1217L56.7301 43.1244L57.8307 43.4483L57.84 43.4511L57.8493 43.4536L58.95 43.7546L58.9593 43.7571L58.9687 43.7595L60.0694 44.0376L60.0787 44.04L60.088 44.0422L61.0555 44.267C60.8982 44.7092 60.7295 45.1479 60.5494 45.5825C59.1597 48.9377 57.1225 51.9865 54.5545 54.5545C51.9865 57.1225 48.9377 59.1597 45.5825 60.5494C42.2273 61.9392 38.6309 62.6546 34.9993 62.6546C31.3676 62.6546 27.7712 61.9392 24.416 60.5494C21.0608 59.1597 18.012 57.1225 15.444 54.5545C12.876 51.9865 10.8389 48.9377 9.44909 45.5825C8.61622 43.5718 8.02556 41.4744 7.68592 39.3348L7.88883 39.2446L7.88884 39.2447L7.89387 39.2424L8.99453 38.7461L8.99453 38.7461L8.99711 38.7449L10.0978 38.2449L10.0978 38.2449L11.1956 37.7461L11.1984 37.7449L12.2935 37.2514L13.3868 36.7669L14.4771 36.2963L15.5639 35.844L16.6473 35.4142L17.727 35.0113L18.803 34.6392L19.8753 34.3016L20.9438 34.0019L22.0088 33.7432L23.0705 33.5281L24.1293 33.3586L25.1858 33.2363L26.2406 33.1625L27.2947 33.1378L28.3487 33.1625L29.4036 33.2363L30.4601 33.3586L31.5189 33.5281L32.5805 33.7432L33.6455 34.0019L34.714 34.3016L35.7863 34.6392L36.8623 35.0113L37.942 35.4142L39.0253 35.8439L40.1123 36.2963L41.1981 36.765L41.2069 36.7688L42.293 37.2501L42.2987 37.2527L43.3909 37.7449L43.3937 37.7461L44.4916 38.2449L45.5922 38.7449Z" fill="#5C7DA2" stroke="black" stroke-width="2"/>
<path d="M17.3375 44.7852V41.1857H22.9414H23.9414V40.3563H28.5453V43.0473V44.0473H29.5453H35.1493V48.1445V49.1445H36.1493H41.7532V51.6311V52.6311H42.7532H48.3572V53.1027V54.1027H49.3572H54.8514C54.7695 54.1867 54.687 54.2703 54.6039 54.3533L55.311 55.0605L54.6039 54.3534C52.0359 56.9213 48.9871 58.9585 45.6319 60.3483C42.2766 61.738 38.6803 62.4534 35.0486 62.4534C31.417 62.4534 27.8206 61.738 24.4654 60.3483C21.1102 58.9585 18.0613 56.9213 15.4934 54.3534C13.6038 52.4638 12.0016 50.3139 10.7333 47.9731L10.7334 45.7852H16.3375H17.3375V44.7852Z" fill="#444876" stroke="black" stroke-width="2"/>
<path d="M68.2342 34.5841L68.2342 34.5778C68.1805 30.3568 67.3232 26.1831 65.7068 22.2808C64.0366 18.2484 61.5883 14.5843 58.502 11.498C55.4157 8.41175 51.7516 5.96344 47.7192 4.29316C43.6868 2.62289 39.3646 1.76316 35 1.76316C30.6354 1.76316 26.3132 2.62289 22.2808 4.29316C18.2484 5.96344 14.5843 8.41175 11.498 11.498C8.41174 14.5843 5.96343 18.2484 4.29316 22.2808C2.62289 26.3132 1.76315 30.6354 1.76315 35C1.76315 39.3646 2.62289 43.6868 4.29316 47.7192C5.96343 51.7516 8.41174 55.4157 11.498 58.502C14.5843 61.5883 18.2484 64.0366 22.2808 65.7068C26.3132 67.3771 30.6354 68.2368 35 68.2368C39.3646 68.2368 43.6868 67.3771 47.7192 65.7068C51.7516 64.0366 55.4157 61.5883 58.502 58.502C61.5883 55.4157 64.0366 51.7516 65.7068 47.7192C67.3232 43.8169 68.1805 39.6432 68.2342 35.4222L68.2342 35.4159L68.2369 35.0064L68.2368 34.9937L68.2342 34.5841ZM23.4513 7.11888C27.1126 5.60232 31.037 4.8217 35 4.8217C38.963 4.8217 42.8874 5.60232 46.5487 7.11888C50.21 8.63545 53.537 10.8585 56.3393 13.6607C59.1415 16.463 61.3646 19.79 62.8811 23.4513C64.3484 26.9935 65.1267 30.782 65.1758 34.6134C65.1758 34.6145 65.1759 34.6155 65.1759 34.6166L65.1783 35L65.1759 35.3834C65.1759 35.3845 65.1758 35.3855 65.1758 35.3866C65.1267 39.218 64.3484 43.0065 62.8811 46.5487C61.3646 50.2101 59.1415 53.537 56.3393 56.3393C53.537 59.1415 50.21 61.3646 46.5487 62.8811C42.8874 64.3977 38.963 65.1783 35 65.1783C31.037 65.1783 27.1126 64.3977 23.4513 62.8811C19.7899 61.3646 16.463 59.1415 13.6607 56.3393C10.8585 53.537 8.63544 50.2101 7.11888 46.5487C5.60231 42.8874 4.82169 38.963 4.82169 35C4.82169 31.037 5.60231 27.1126 7.11888 23.4513C8.63544 19.79 10.8585 16.463 13.6607 13.6607C16.463 10.8585 19.7899 8.63545 23.4513 7.11888Z" fill="#444876" stroke="black" stroke-width="2"/>
</svg>
