<svg width="72" height="72" viewBox="0 0 72 72" fill="none" xmlns="http://www.w3.org/2000/svg">
<path fill-rule="evenodd" clip-rule="evenodd" d="M35.79 69.9286C54.4158 69.9286 69.515 54.7382 69.515 36C69.515 32.256 68.9122 28.6536 67.7989 25.2857L59.93 32.0714L59.22 29.9286C48.464 32.5162 45.8938 28.4886 43.1454 24.1818C41.7212 21.9499 40.249 19.643 37.565 18.1429C34.37 16.3571 29.8407 16.5561 27.625 20.6429C25.495 24.5714 27.3848 29.2568 31.885 30.2857C32.5563 30.4392 33.283 30.5938 34.0496 30.7568C42.202 32.4906 54.8711 35.185 53.5 47.7857C52.8792 53.4907 45.375 58.5 40.05 58.5C33.5586 58.5 30.0255 55.0015 26.9972 52.0027C24.7259 49.7536 22.7386 47.7857 20 47.7857C14.3423 47.7857 8.80753 56.3571 8.80753 56.3571C14.9604 64.598 24.7564 69.9286 35.79 69.9286ZM5.5 51C5.5 51 10.909 42.7857 20.525 42.7857C24.4764 42.7857 27.5687 45.5654 30.5772 48.2699C35.1636 52.3927 39.5555 56.3406 46.5 50C51.41 44.5 46.5 39 38.985 37.4286C38.0074 37.2242 36.917 37.0922 35.7649 36.9528C31.4872 36.4352 26.3602 35.8149 23.01 31C20.525 27.4286 20.0304 22.1108 23.01 17.0714C26.5998 11 34 10.7429 39.695 12.7857C43.1076 14.0098 45.0254 16.9366 46.7779 19.6111C48.1955 21.7745 49.505 23.7729 51.41 24.5714C53.8549 25.5963 57.09 25.2857 57.09 25.2857L56.025 22.4286H66.7088C61.5046 10.4456 49.6194 2.07143 35.79 2.07143C17.1642 2.07143 2.065 17.2618 2.065 36C2.065 41.8148 2.93784 46.2164 5.5 51Z" fill="#0053A0"/>
<path d="M20.525 42.7857C10.909 42.7857 5.5 51 5.5 51L8.80753 56.3571C8.80753 56.3571 14.3423 47.7857 20 47.7857C22.7386 47.7857 24.7259 49.7536 26.9972 52.0027C30.0255 55.0015 33.5586 58.5 40.05 58.5C45.375 58.5 52.8792 53.4907 53.5 47.7857C54.8711 35.185 42.202 32.4906 34.0496 30.7568C33.283 30.5938 32.5563 30.4392 31.885 30.2857C27.3848 29.2568 25.495 24.5714 27.625 20.6429C29.8407 16.5561 34.37 16.3571 37.565 18.1429C40.249 19.643 41.7212 21.9499 43.1454 24.1818C45.8938 28.4886 48.464 32.5162 59.22 29.9286L59.93 32.0714L67.7989 25.2857C67.4774 24.313 67.1133 23.3599 66.7088 22.4286H56.025L57.09 25.2857C57.09 25.2857 53.8549 25.5963 51.41 24.5714C49.505 23.7729 48.1955 21.7745 46.7779 19.6111C45.0254 16.9366 43.1076 14.0098 39.695 12.7857C34 10.7429 26.5998 11 23.01 17.0714C20.0304 22.1108 20.525 27.4286 23.01 31C26.3602 35.8149 31.4872 36.4352 35.7649 36.9528C36.917 37.0922 38.0074 37.2242 38.985 37.4286C46.5 39 51.41 44.5 46.5 50C39.5555 56.3406 35.1636 52.3927 30.5772 48.2699C27.5687 45.5654 24.4764 42.7857 20.525 42.7857Z" fill="#F9F9F9"/>
<path d="M5.5 51C2.93784 46.2164 2.065 41.8148 2.065 36C2.065 17.2618 17.1642 2.07143 35.79 2.07143C49.6194 2.07143 61.5046 10.4456 66.7088 22.4286M5.5 51C5.5 51 10.909 42.7857 20.525 42.7857C24.4764 42.7857 27.5687 45.5654 30.5772 48.2699C35.1636 52.3927 39.5555 56.3406 46.5 50C51.41 44.5 46.5 39 38.985 37.4286C38.0074 37.2242 36.917 37.0922 35.7649 36.9528C31.4872 36.4352 26.3602 35.8149 23.01 31C20.525 27.4286 20.0304 22.1108 23.01 17.0714C26.5998 11 34 10.7429 39.695 12.7857C43.1076 14.0098 45.0254 16.9366 46.7779 19.6111C48.1955 21.7745 49.505 23.7729 51.41 24.5714C53.8549 25.5963 57.09 25.2857 57.09 25.2857L56.025 22.4286H66.7088M5.5 51L8.80753 56.3571M66.7088 22.4286C67.1133 23.3599 67.4774 24.313 67.7989 25.2857M67.7989 25.2857C68.9122 28.6536 69.515 32.256 69.515 36C69.515 54.7382 54.4158 69.9286 35.79 69.9286C24.7564 69.9286 14.9604 64.598 8.80753 56.3571M67.7989 25.2857L59.93 32.0714L59.22 29.9286C48.464 32.5162 45.8938 28.4886 43.1454 24.1818C41.7212 21.9499 40.249 19.643 37.565 18.1429C34.37 16.3571 29.8408 16.5561 27.625 20.6429C25.495 24.5714 27.3848 29.2568 31.885 30.2857C32.5563 30.4392 33.283 30.5938 34.0496 30.7568C42.202 32.4906 54.8711 35.185 53.5 47.7857C52.8792 53.4907 45.375 58.5 40.05 58.5C33.5586 58.5 30.0255 55.0015 26.9972 52.0027C24.7259 49.7536 22.7386 47.7857 20 47.7857C14.3423 47.7857 8.80753 56.3571 8.80753 56.3571" stroke="black" stroke-width="3"/>
</svg>
