<svg width="69" height="70" viewBox="0 0 69 70" fill="none" xmlns="http://www.w3.org/2000/svg">
<mask id="path-1-inside-1_1093_198" fill="white">
<path fill-rule="evenodd" clip-rule="evenodd" d="M14.1183 62.4609C13.3417 62.5381 12.5658 62.3081 11.9569 61.82L12.4775 62.2816C18.7625 67.5935 26.7271 69.5054 34.9562 69.5C53.3794 69.5 67.205 59.5994 68.5 41.5C69.4581 32.6406 68.1428 17.9519 63.6891 4.56875C62.7139 6.90613 58.5 11.5853 58.5 11.5853C52.1453 5.06875 44.7562 0.585312 34.9562 0.585312C15.68 0.585312 0 16.2653 0 35.5372C0 45.6412 4.31375 54.7522 11.1847 61.1419L11.7666 61.6537C11.2011 61.1159 10.8689 60.3779 10.8411 59.598C10.8133 58.8181 11.0922 58.0584 11.6179 57.4817C12.1437 56.9049 12.8744 56.5571 13.6536 56.5129C14.4327 56.4686 15.1982 56.7313 15.7859 57.2447C16.3737 57.7581 16.7368 58.4813 16.7976 59.2594C16.8584 60.0374 16.612 60.8083 16.1111 61.4067C15.6103 62.0052 14.8949 62.3836 14.1183 62.4609ZM43.0916 23.4688C50.8003 21.64 59.7275 15.8628 63.3522 8.30937C69.7349 36.145 67.0149 50.8394 55 57.4817C41.8476 64.7528 34.9562 59.2594 20.5297 59.5472C20.5297 59.5472 36.3887 54.4694 39.5784 52.8316C49.0394 47.9841 58.4566 37.4294 60.375 26.4591C56.7722 37.0072 45.8216 46.0875 35.8466 49.7713C29.4219 52.1434 18.1047 54.4536 16.7991 54.7201C16.7178 54.7367 16.6753 54.7456 16.6753 54.7456C16.6792 54.7509 16.5021 54.6557 16.3583 54.5786C16.2619 54.5268 16.1787 54.4831 16.1787 54.4831C7.77875 50.3969 7.53813 32.2144 22.785 26.3519C26.5432 24.9061 30.2089 24.7192 33.9816 24.5269C36.9218 24.377 39.9269 24.2237 43.0916 23.4688Z"/>
<path d="M63.3522 8.30937C59.7275 15.8628 50.8003 21.64 43.0916 23.4688C39.9269 24.2237 36.9218 24.377 33.9816 24.5269C30.2089 24.7192 26.5432 24.9061 22.785 26.3519C7.53813 32.2144 7.77875 50.3969 16.1787 54.4831C16.1787 54.4831 16.2619 54.5268 16.3583 54.5786C16.5021 54.6557 16.6792 54.7509 16.6753 54.7456C16.6753 54.7456 16.7178 54.7367 16.7991 54.7201C18.1047 54.4536 29.4219 52.1434 35.8466 49.7713C45.8216 46.0875 56.7722 37.0072 60.375 26.4591C58.4566 37.4294 49.0394 47.9841 39.5784 52.8316C36.3887 54.4694 20.5297 59.5472 20.5297 59.5472C34.9562 59.2594 41.8476 64.7528 55 57.4817C67.0149 50.8394 69.7349 36.145 63.3522 8.30937Z"/>
</mask>
<path fill-rule="evenodd" clip-rule="evenodd" d="M14.1183 62.4609C13.3417 62.5381 12.5658 62.3081 11.9569 61.82L12.4775 62.2816C18.7625 67.5935 26.7271 69.5054 34.9562 69.5C53.3794 69.5 67.205 59.5994 68.5 41.5C69.4581 32.6406 68.1428 17.9519 63.6891 4.56875C62.7139 6.90613 58.5 11.5853 58.5 11.5853C52.1453 5.06875 44.7562 0.585312 34.9562 0.585312C15.68 0.585312 0 16.2653 0 35.5372C0 45.6412 4.31375 54.7522 11.1847 61.1419L11.7666 61.6537C11.2011 61.1159 10.8689 60.3779 10.8411 59.598C10.8133 58.8181 11.0922 58.0584 11.6179 57.4817C12.1437 56.9049 12.8744 56.5571 13.6536 56.5129C14.4327 56.4686 15.1982 56.7313 15.7859 57.2447C16.3737 57.7581 16.7368 58.4813 16.7976 59.2594C16.8584 60.0374 16.612 60.8083 16.1111 61.4067C15.6103 62.0052 14.8949 62.3836 14.1183 62.4609ZM43.0916 23.4688C50.8003 21.64 59.7275 15.8628 63.3522 8.30937C69.7349 36.145 67.0149 50.8394 55 57.4817C41.8476 64.7528 34.9562 59.2594 20.5297 59.5472C20.5297 59.5472 36.3887 54.4694 39.5784 52.8316C49.0394 47.9841 58.4566 37.4294 60.375 26.4591C56.7722 37.0072 45.8216 46.0875 35.8466 49.7713C29.4219 52.1434 18.1047 54.4536 16.7991 54.7201C16.7178 54.7367 16.6753 54.7456 16.6753 54.7456C16.6792 54.7509 16.5021 54.6557 16.3583 54.5786C16.2619 54.5268 16.1787 54.4831 16.1787 54.4831C7.77875 50.3969 7.53813 32.2144 22.785 26.3519C26.5432 24.9061 30.2089 24.7192 33.9816 24.5269C36.9218 24.377 39.9269 24.2237 43.0916 23.4688Z" fill="#70AD51"/>
<path d="M63.3522 8.30937C59.7275 15.8628 50.8003 21.64 43.0916 23.4688C39.9269 24.2237 36.9218 24.377 33.9816 24.5269C30.2089 24.7192 26.5432 24.9061 22.785 26.3519C7.53813 32.2144 7.77875 50.3969 16.1787 54.4831C16.1787 54.4831 16.2619 54.5268 16.3583 54.5786C16.5021 54.6557 16.6792 54.7509 16.6753 54.7456C16.6753 54.7456 16.7178 54.7367 16.7991 54.7201C18.1047 54.4536 29.4219 52.1434 35.8466 49.7713C45.8216 46.0875 56.7722 37.0072 60.375 26.4591C58.4566 37.4294 49.0394 47.9841 39.5784 52.8316C36.3887 54.4694 20.5297 59.5472 20.5297 59.5472C34.9562 59.2594 41.8476 64.7528 55 57.4817C67.0149 50.8394 69.7349 36.145 63.3522 8.30937Z" fill="#FBFBFB"/>
<path d="M63.3522 8.30937L64.8142 7.97413L63.8556 3.79327L61.9998 7.66042L63.3522 8.30937ZM43.0916 23.4688L42.7453 22.0093L42.7435 22.0097L43.0916 23.4688ZM22.785 26.3519L23.3233 27.7519L23.3236 27.7519L22.785 26.3519ZM16.1787 54.4831L16.8765 53.1553L16.8559 53.1445L16.8349 53.1343L16.1787 54.4831ZM16.6753 54.7456L16.3669 53.2777L14.0622 53.762L15.4754 55.6458L16.6753 54.7456ZM35.8466 49.7713L36.3661 51.1784L36.3662 51.1784L35.8466 49.7713ZM60.375 26.4591L61.8526 26.7175C61.9875 25.9461 61.5063 25.2007 60.7477 25.0061C59.9892 24.8115 59.2086 25.2332 58.9555 25.9742L60.375 26.4591ZM39.5784 52.8316L38.8944 51.4966L38.8933 51.4972L39.5784 52.8316ZM20.5297 59.5472L20.0723 58.1186L20.5596 61.0469L20.5297 59.5472ZM16.7991 54.7201L17.0991 56.1898L17.0992 56.1898L16.7991 54.7201ZM16.3583 54.5786L15.6488 55.9002L16.3583 54.5786ZM33.9816 24.5269L34.058 26.0249L33.9816 24.5269ZM55 57.4817L54.2743 56.1689L55 57.4817ZM61.9998 7.66042C58.6214 14.7006 50.1411 20.2548 42.7453 22.0093L43.4378 24.9282C51.4595 23.0252 60.8335 17.025 64.7045 8.95833L61.9998 7.66042ZM22.2467 24.9518C14.0799 28.092 9.99344 34.5847 9.12827 40.8793C8.28164 47.039 10.5252 53.401 15.5226 55.832L16.8349 53.1343C13.4323 51.479 11.3555 46.7066 12.1003 41.2878C12.8266 36.004 16.2432 30.4743 23.3233 27.7519L22.2467 24.9518ZM36.3662 51.1784C46.6374 47.3852 58.007 38.0328 61.7945 26.9439L58.9555 25.9742C55.5374 35.9816 45.0057 44.7898 35.3269 48.3641L36.3662 51.1784ZM58.8974 26.2007C57.0785 36.602 48.0422 46.8096 38.8944 51.4966L40.2624 54.1665C50.0366 49.1586 59.8346 38.2567 61.8526 26.7175L58.8974 26.2007ZM20.5297 59.5472C20.9871 60.9757 20.9872 60.9757 20.9873 60.9757C20.9874 60.9756 20.9877 60.9756 20.9879 60.9755C20.9884 60.9753 20.9892 60.9751 20.9902 60.9748C20.9922 60.9741 20.9951 60.9732 20.999 60.9719C21.0068 60.9694 21.0183 60.9657 21.0335 60.9609C21.0639 60.9511 21.1089 60.9367 21.1676 60.9178C21.2852 60.88 21.4577 60.8245 21.6783 60.7532C22.1195 60.6108 22.753 60.4055 23.523 60.1541C25.0627 59.6515 27.1499 58.9639 29.338 58.2246C33.6446 56.7697 38.5434 55.0492 40.2636 54.1659L38.8933 51.4972C37.4238 52.2517 32.7982 53.8891 28.3778 55.3825C26.2024 56.1174 24.1255 56.8016 22.592 57.3022C21.8254 57.5525 21.195 57.7568 20.7564 57.8984C20.5371 57.9692 20.3658 58.0243 20.2495 58.0617C20.1913 58.0804 20.1469 58.0947 20.1171 58.1043C20.1022 58.1091 20.0909 58.1127 20.0834 58.1151C20.0796 58.1163 20.0768 58.1172 20.075 58.1178C20.074 58.1181 20.0734 58.1183 20.0729 58.1184C20.0727 58.1185 20.0725 58.1185 20.0724 58.1186C20.0723 58.1186 20.0723 58.1186 20.5297 59.5472ZM35.327 48.3641C29.0318 50.6885 17.838 52.9771 16.4991 53.2504L17.0992 56.1898C18.3715 55.9301 29.812 53.5984 36.3661 51.1784L35.327 48.3641ZM16.4992 53.2504C16.457 53.259 16.4246 53.2657 16.4024 53.2703C16.3913 53.2726 16.3828 53.2744 16.3768 53.2756C16.3738 53.2762 16.3715 53.2767 16.3699 53.2771C16.369 53.2772 16.3684 53.2774 16.3679 53.2775C16.3676 53.2775 16.3674 53.2776 16.3672 53.2776C16.3671 53.2776 16.3671 53.2776 16.367 53.2776C16.367 53.2777 16.367 53.2777 16.3669 53.2777C16.3669 53.2777 16.3669 53.2777 16.3669 53.2777C16.3669 53.2777 16.3669 53.2777 16.3669 53.2777C16.3669 53.2777 16.3669 53.2777 16.6753 54.7456C16.9838 56.2136 16.9838 56.2136 16.9838 56.2136C16.9838 56.2136 16.9837 56.2136 16.9837 56.2136C16.9837 56.2136 16.9837 56.2136 16.9837 56.2136C16.9837 56.2136 16.9837 56.2136 16.9837 56.2136C16.9837 56.2136 16.9836 56.2136 16.9836 56.2136C16.9836 56.2136 16.9837 56.2136 16.9838 56.2136C16.9839 56.2135 16.9842 56.2135 16.9847 56.2134C16.9857 56.2132 16.9873 56.2128 16.9896 56.2123C16.9942 56.2114 17.0013 56.2099 17.011 56.2079C17.0304 56.2039 17.0599 56.1978 17.0991 56.1898L16.4992 53.2504ZM15.4754 55.6458C15.433 55.5892 15.3138 55.4251 15.2396 55.1801C15.1603 54.9179 15.0811 54.3455 15.4971 53.8175C15.8553 53.3628 16.3295 53.2789 16.4751 53.2592C16.6596 53.2344 16.8057 53.2503 16.8656 53.258C16.9956 53.2746 17.0937 53.3051 17.12 53.3133C17.1611 53.3261 17.1932 53.3381 17.2105 53.3447C17.2455 53.3581 17.2721 53.3698 17.2823 53.3744C17.2953 53.3802 17.3054 53.3849 17.311 53.3876C17.3288 53.396 17.3393 53.4015 17.3321 53.3978C17.3237 53.3935 17.3051 53.3838 17.2751 53.3679C17.2173 53.3372 17.1407 53.2961 17.0677 53.257L15.6488 55.9002C15.7196 55.9382 15.8035 55.9832 15.8692 56.0181C15.901 56.035 15.935 56.0529 15.9632 56.0673C15.9743 56.073 15.9991 56.0857 16.0265 56.0987C16.031 56.1008 16.078 56.1234 16.1375 56.1462C16.1554 56.1531 16.1879 56.1652 16.2294 56.1781C16.2561 56.1864 16.3545 56.217 16.4847 56.2337C16.5447 56.2414 16.6909 56.2573 16.8755 56.2324C17.0211 56.2128 17.4954 56.1288 17.8536 55.6741C18.2696 55.1461 18.1905 54.5737 18.1111 54.3114C18.037 54.0663 17.9177 53.9022 17.8752 53.8455L15.4754 55.6458ZM17.0678 53.257C17.0164 53.2294 16.9689 53.2042 16.9345 53.1859C16.9171 53.1767 16.9029 53.1692 16.8929 53.1639C16.8879 53.1613 16.884 53.1592 16.8812 53.1578C16.8798 53.157 16.8787 53.1564 16.8779 53.156C16.8775 53.1558 16.8772 53.1557 16.877 53.1555C16.8769 53.1555 16.8768 53.1554 16.8767 53.1554C16.8767 53.1554 16.8766 53.1554 16.8766 53.1553C16.8766 53.1553 16.8766 53.1553 16.8766 53.1553C16.8765 53.1553 16.8765 53.1553 16.8765 53.1553C16.8765 53.1553 16.8765 53.1553 16.1787 54.4831C15.481 55.8109 15.481 55.8109 15.481 55.8109C15.481 55.8109 15.481 55.8109 15.481 55.8109C15.4809 55.8109 15.4809 55.8109 15.4809 55.8109C15.4809 55.8109 15.4809 55.8109 15.4809 55.8109C15.4809 55.8109 15.481 55.8109 15.481 55.811C15.4811 55.811 15.4813 55.8111 15.4815 55.8112C15.482 55.8115 15.4828 55.8119 15.4838 55.8125C15.486 55.8136 15.4893 55.8153 15.4936 55.8176C15.5022 55.8221 15.5148 55.8288 15.5303 55.837C15.5614 55.8535 15.6037 55.876 15.6488 55.9002L17.0678 53.257ZM23.3236 27.7519C26.826 26.4045 30.2577 26.2187 34.058 26.0249L33.9052 23.0288C30.1601 23.2198 26.2605 23.4077 22.2464 24.9519L23.3236 27.7519ZM34.058 26.0249C36.9836 25.8758 40.1216 25.7194 43.4396 24.9278L42.7435 22.0097C39.7323 22.7281 36.86 22.8782 33.9052 23.0288L34.058 26.0249ZM20.5596 61.0469C24.0661 60.9769 27.123 61.2577 29.9658 61.6139C32.7652 61.9647 35.4956 62.4106 38.1188 62.628C43.5293 63.0764 48.8464 62.5976 55.7257 58.7944L54.2743 56.1689C48.0012 59.6369 43.2964 60.0468 38.3665 59.6383C35.8195 59.4272 33.3 59.0082 30.3388 58.6372C27.421 58.2715 24.2066 57.9735 20.4998 58.0475L20.5596 61.0469ZM55.7257 58.7944C62.1825 55.2249 66.1021 49.4693 67.5531 41.0992C68.9883 32.821 68.0203 21.9562 64.8142 7.97413L61.8901 8.64462C65.0667 22.4982 65.9301 32.8983 64.5972 40.5868C63.2803 48.1834 59.8324 53.0962 54.2743 56.1689L55.7257 58.7944ZM11.9569 61.82L13.8331 59.4791L9.96671 64.0648L11.9569 61.82ZM11.7666 61.6537L9.78507 63.9062L13.8341 59.48L11.7666 61.6537ZM11.1847 61.1419L9.1417 63.3387L9.17206 63.367L9.20319 63.3944L11.1847 61.1419ZM58.5 11.5853L56.3522 13.6798L58.5871 15.9716L60.7293 13.5929L58.5 11.5853ZM63.6891 4.56875L66.5356 3.62146L64.0055 -3.9811L60.9204 3.41362L63.6891 4.56875ZM68.5 41.5L65.5174 41.1774L65.5115 41.2316L65.5077 41.2859L68.5 41.5ZM34.9562 69.5V66.5H34.9543L34.9562 69.5ZM12.4775 62.2816L10.4873 64.5264L10.5139 64.5499L10.541 64.5728L12.4775 62.2816ZM10.0806 64.1609C11.3018 65.1397 12.8579 65.6011 14.4153 65.4462L13.8213 59.4756C13.8256 59.4752 13.8298 59.4764 13.8331 59.4791L10.0806 64.1609ZM14.4153 65.4462C15.9726 65.2912 17.4073 64.5323 18.4117 63.3321L13.8105 59.4814C13.8132 59.4781 13.8171 59.476 13.8213 59.4756L14.4153 65.4462ZM18.4117 63.3321C19.4162 62.1319 19.9104 60.586 19.7885 59.0257L13.8067 59.4931C13.8064 59.4888 13.8078 59.4846 13.8105 59.4814L18.4117 63.3321ZM19.7885 59.0257C19.6666 57.4654 18.9383 56.015 17.7596 54.9854L13.8123 59.504C13.8091 59.5012 13.8071 59.4973 13.8067 59.4931L19.7885 59.0257ZM17.7596 54.9854C16.5809 53.9557 15.0458 53.4289 13.4833 53.5177L13.8239 59.508C13.8196 59.5083 13.8155 59.5068 13.8123 59.504L17.7596 54.9854ZM13.4833 53.5177C11.9208 53.6065 10.4552 54.304 9.40088 55.4606L13.835 59.5027C13.8321 59.5059 13.8281 59.5078 13.8239 59.508L13.4833 53.5177ZM9.40088 55.4606C8.34653 56.6172 7.78726 58.1408 7.84299 59.7048L13.8392 59.4912C13.8393 59.4955 13.8378 59.4996 13.835 59.5027L9.40088 55.4606ZM7.84299 59.7048C7.89871 61.2689 8.56499 62.7489 9.69898 63.8275L13.8341 59.48C13.8372 59.4829 13.839 59.487 13.8392 59.4912L7.84299 59.7048ZM13.7481 59.4013L13.1662 58.8894L9.20319 63.3944L9.78507 63.9062L13.7481 59.4013ZM13.2277 58.945C6.93783 53.0957 3 44.7687 3 35.5372H-3C-3 46.5138 1.68967 56.4087 9.1417 63.3387L13.2277 58.945ZM3 35.5372C3 17.9224 17.3366 3.58531 34.9562 3.58531V-2.41469C14.0234 -2.41469 -3 14.6082 -3 35.5372H3ZM34.9562 3.58531C43.6869 3.58531 50.3497 7.52443 56.3522 13.6798L60.6478 9.49084C53.9409 2.61307 45.8256 -2.41469 34.9562 -2.41469V3.58531ZM58.5 11.5853C60.7293 13.5929 60.7294 13.5927 60.7296 13.5925C60.7296 13.5925 60.7298 13.5923 60.73 13.5921C60.7303 13.5918 60.7307 13.5914 60.7311 13.5909C60.7319 13.5899 60.7331 13.5887 60.7344 13.5871C60.7372 13.5841 60.7409 13.5799 60.7457 13.5746C60.7551 13.5641 60.7685 13.5491 60.7856 13.53C60.8198 13.4917 60.8688 13.4366 60.9307 13.3665C61.0546 13.2264 61.2308 13.0256 61.4444 12.7782C61.8705 12.2847 62.4513 11.5989 63.0669 10.8333C64.1979 9.42657 65.7794 7.3499 66.4578 5.72388L60.9204 3.41362C60.6236 4.12498 59.6106 5.55659 58.3908 7.07382C57.831 7.77012 57.2974 8.40021 56.9029 8.8571C56.7063 9.08488 56.5456 9.26799 56.4352 9.39286C56.38 9.45526 56.3375 9.50301 56.3095 9.53441C56.2955 9.55011 56.2851 9.56171 56.2786 9.56901C56.2753 9.57265 56.273 9.57522 56.2717 9.57668C56.271 9.57741 56.2706 9.57787 56.2705 9.57804C56.2704 9.57813 56.2704 9.57815 56.2704 9.5781C56.2704 9.57807 56.2705 9.57798 56.2705 9.57797C56.2706 9.57786 56.2707 9.57773 58.5 11.5853ZM60.8425 5.51604C65.1754 18.5358 66.4243 32.7912 65.5174 41.1774L71.4826 41.8226C72.4919 32.49 71.1102 17.3679 66.5356 3.62146L60.8425 5.51604ZM65.5077 41.2859C64.9156 49.5601 61.5003 55.7655 56.2769 59.9448C51.0033 64.1643 43.6509 66.5 34.9562 66.5V72.5C44.6847 72.5 53.4567 69.8854 60.0254 64.6297C66.6444 59.3339 70.7894 51.5393 71.4923 41.7141L65.5077 41.2859ZM34.9543 66.5C27.1627 66.5051 19.9803 64.6948 14.414 59.9903L10.541 64.5728C17.5448 70.4923 26.2916 72.5057 34.9582 72.5L34.9543 66.5ZM14.4677 60.0367L13.947 59.5752L9.96671 64.0648L10.4873 64.5264L14.4677 60.0367Z" fill="black" mask="url(#path-1-inside-1_1093_198)"/>
</svg>
