<svg width="70" height="70" viewBox="0 0 70 70" fill="none" xmlns="http://www.w3.org/2000/svg">
<path d="M35 14C26.189 14 20.711 18.655 18.5 28C21.8 23.345 25.661 21.595 30.05 22.75C32.558 23.415 34.373 25.34 36.353 27.475C39.587 30.975 43.25 35 51.5 35C60.311 35 65.789 30.345 68 21C64.7 25.655 60.839 27.405 56.45 26.25C53.942 25.585 52.16 23.66 50.147 21.525C46.913 18.025 43.25 14 35 14ZM18.5 35C9.689 35 4.211 39.655 2 49C5.3 44.345 9.161 42.595 13.55 43.75C16.058 44.415 17.84 46.34 19.853 48.475C23.087 51.975 26.75 56 35 56C43.811 56 49.289 51.345 51.5 42C48.2 46.655 44.339 48.405 39.95 47.25C37.442 46.585 35.66 44.66 33.647 42.525C30.413 39.025 26.75 35 18.5 35Z" fill="#2298BD" stroke="black" stroke-width="3"/>
</svg>
