<svg width="70" height="70" viewBox="0 0 70 70" fill="none" xmlns="http://www.w3.org/2000/svg">
<path d="M41.857 25.2273H38.0842L40.8271 27.8178L59.0815 45.0582C59.0815 45.0582 59.0815 45.0582 59.0815 45.0582C59.2337 45.2019 59.3392 45.388 59.3844 45.5923C59.4296 45.7967 59.4124 46.0099 59.3351 46.2044C59.2578 46.3989 59.1238 46.5657 58.9506 46.6833C58.7774 46.8008 58.5729 46.8636 58.3636 46.8636H38H36.5V48.3636V67.4545C36.5 67.6588 36.4402 67.8585 36.3279 68.0291C36.2157 68.1998 36.0559 68.3338 35.8684 68.4146C35.6808 68.4954 35.4737 68.5196 35.2726 68.484C35.0715 68.4485 34.8852 68.3548 34.7367 68.2146L34.7367 68.2145L11.8276 46.5782L10.802 47.664L11.8276 46.5782C11.7241 46.4805 11.6417 46.3627 11.5854 46.232C11.529 46.1013 11.5 45.9605 11.5 45.8182V24.1818C11.5 23.9046 11.6102 23.6386 11.8062 23.4426C12.0023 23.2465 12.2682 23.1364 12.5455 23.1364H29.0521H32.8249L30.082 20.5458L11.8276 3.30549C11.8276 3.30548 11.8276 3.30547 11.8276 3.30546C11.6754 3.16174 11.5699 2.97566 11.5247 2.77131C11.4795 2.56694 11.4966 2.3537 11.574 2.1592C11.6513 1.96469 11.7852 1.79788 11.9585 1.68036C12.1317 1.56283 12.3361 1.5 12.5455 1.5C12.5455 1.5 12.5455 1.5 12.5455 1.5H58.3636C58.6409 1.5 58.9068 1.61015 59.1029 1.80621C59.2989 2.00228 59.4091 2.26819 59.4091 2.54546V24.1818C59.4091 24.4591 59.2989 24.725 59.1029 24.9211C58.9068 25.1171 58.6409 25.2273 58.3636 25.2273H41.857Z" fill="#202020" stroke="black" stroke-width="3"/>
</svg>
