<svg width="72" height="70" viewBox="0 0 72 70" fill="none" xmlns="http://www.w3.org/2000/svg">
<path d="M65.3199 49.6556C62.9989 47.648 60.4388 45.6767 57.776 44.0194C57.0075 43.5235 56.1477 43.1258 55.3356 42.7697C55.1492 42.6879 54.9662 42.6087 54.7865 42.5309C54.1565 42.2582 53.5677 42.0033 53.0189 41.7201L53.019 41.72L53.009 41.715C52.813 41.6166 52.6041 41.5398 52.4329 41.4799C52.361 41.4548 52.2973 41.433 52.2377 41.4127C52.1359 41.3779 52.0462 41.3473 51.9484 41.3108C51.8031 41.2565 51.7061 41.2124 51.6419 41.1748C51.6253 41.165 51.6139 41.1575 51.6066 41.1523L51.6038 41.1483L51.58 41.1191C51.2494 40.7143 50.9748 40.2227 50.6998 39.6498C50.5792 39.3986 50.4637 39.1432 50.3429 38.8758C50.3262 38.8388 50.3093 38.8015 50.2924 38.7641C50.1552 38.4608 50.0105 38.1438 49.855 37.832L49.8502 37.8224L49.8452 37.8129C48.5573 35.3634 47.3081 32.6382 46.1886 30.035L46.1837 30.0234L46.1784 30.0119C45.8957 29.3977 45.6574 28.7946 45.4103 28.169C45.3149 27.9278 45.2183 27.6832 45.1173 27.4333C44.763 26.5571 44.3677 25.6512 43.8298 24.7688C39.0985 16.9421 33.9304 12.1848 26.0668 7.55628L26.0604 7.55252L26.0539 7.54886C24.3997 6.6079 22.472 6.16166 20.5935 5.7268C20.4043 5.683 20.2156 5.63932 20.0277 5.59527L19.9349 5.5735L19.8396 5.56966C19.2888 5.54749 18.7362 5.5143 18.172 5.48038L18.1675 5.48011C17.6796 5.45079 17.183 5.42094 16.6842 5.3985C16.5068 5.29286 16.2907 5.12171 16.0131 4.87942C15.9618 4.8346 15.9069 4.78594 15.8491 4.73478C15.5693 4.48677 15.2235 4.1802 14.8958 3.96902L14.8958 3.969L14.8891 3.96475C13.5821 3.13709 11.1695 1.77584 8.7874 1.23518C7.59535 0.964634 6.30992 0.875434 5.14391 1.25083C3.92717 1.64255 2.93891 2.51007 2.35883 3.93374C1.57679 5.82428 2.20013 7.62922 2.99031 9.0061C3.39097 9.70424 3.86076 10.3397 4.27929 10.8775C4.43064 11.0719 4.5697 11.2469 4.69672 11.4068C4.94097 11.7142 5.14072 11.9656 5.29783 12.1916L5.30586 12.2031L5.31421 12.2145C5.50092 12.4675 5.69012 12.716 5.87673 12.961C6.51428 13.7983 7.12168 14.596 7.49695 15.4028C7.61917 15.7048 7.70351 16.0272 7.80459 16.427C7.8085 16.4425 7.81243 16.458 7.81639 16.4737C7.91146 16.8502 8.0237 17.2947 8.19762 17.7453C8.35791 18.1872 8.51926 18.6511 8.68475 19.1268C9.2343 20.7067 9.82957 22.418 10.5837 23.8937L10.5837 23.8937L10.588 23.9019C11.0833 24.8492 11.6529 25.9012 12.3318 26.8248C12.4791 27.0273 12.6418 27.1861 12.7681 27.3031C12.8276 27.3582 12.8738 27.3998 12.9136 27.4357C12.9751 27.4911 13.0214 27.5328 13.078 27.5896C13.1101 27.6218 13.1372 27.6509 13.1601 27.6785C12.9145 28.1727 12.775 28.6957 12.6706 29.1532C12.6192 29.3786 12.5765 29.5847 12.5364 29.7782C12.4557 30.1673 12.3857 30.5054 12.2765 30.8473L12.276 30.8487C10.5825 36.1773 11.2118 42.8008 13.6816 46.8298L13.6864 46.8376L13.6914 46.8453C14.0552 47.4151 14.7375 48.4424 15.6818 49.197C16.651 49.9716 18.0341 50.5538 19.636 49.8949C21.1102 49.3017 21.6194 48.0415 21.8584 46.8946C21.9594 46.4097 22.0236 45.8888 22.0833 45.4049C22.0929 45.3266 22.1025 45.2492 22.112 45.1731C22.1128 45.1668 22.1136 45.1604 22.1144 45.154C22.3039 45.5409 22.4899 45.9286 22.6719 46.3216L22.6992 46.3804L22.7337 46.4351C24.2181 48.7863 26.7511 51.1715 28.8257 52.7428L28.8289 52.7452C29.1591 52.9932 29.4461 53.2887 29.7943 53.6471C29.9388 53.7959 30.0939 53.9556 30.267 54.1272C30.7371 54.5933 31.3162 55.1155 32.0496 55.4572L32.089 55.5165H32.1826C32.2439 55.5425 32.3063 55.5673 32.3697 55.5906L33.7148 56.0851V54.652V54.5165V53.5165H33.081C32.9623 53.403 32.8454 53.3101 32.7418 53.2322C32.6423 53.1574 32.5674 53.104 32.5045 53.0591C32.4152 52.9955 32.35 52.949 32.2724 52.8826C31.4867 52.0932 30.6448 51.1594 30.0696 50.3355L30.0602 50.3221L30.0504 50.3089C28.2025 47.8389 26.5657 45.0931 25.0987 42.2412L25.0985 42.2409C24.4501 40.9814 23.8744 39.6038 23.3224 38.2826C23.2804 38.1822 23.2387 38.0822 23.197 37.9826L23.1842 37.9519L23.1693 37.9222C23.1169 37.8172 23.091 37.7193 23.0466 37.5519C23.0206 37.454 22.9883 37.3323 22.9408 37.1715C22.855 36.8816 22.6606 36.2431 22.0695 35.8878L21.2593 35.4008L20.7275 36.1824C20.5191 36.4886 20.2926 36.761 20.0311 37.0755C19.9052 37.227 19.7711 37.3883 19.627 37.5678C19.2171 38.0784 18.7762 38.6831 18.4735 39.4218C17.9967 40.5086 17.7458 41.6891 17.5726 42.8693C17.4735 43.5445 17.3928 44.2823 17.3129 45.0127C17.3105 45.0351 17.308 45.0575 17.3056 45.0799C17.2767 45.0395 17.248 44.9972 17.2194 44.9529C16.9672 44.5623 16.7797 44.1147 16.5598 43.5898C16.5086 43.4675 16.4556 43.3409 16.3996 43.2099C15.1488 40.2407 14.9256 35.3503 16.0254 31.8666C16.0775 31.7107 16.1615 31.492 16.2707 31.2072C16.3087 31.1084 16.3496 31.0016 16.3934 30.8867C16.5574 30.4563 16.7471 29.9456 16.9107 29.4298C17.0722 28.9206 17.2202 28.3698 17.2871 27.8636C17.3419 27.4485 17.3755 26.8491 17.1202 26.3331C16.8972 25.7089 16.4783 25.2567 16.1527 24.9361C16.0272 24.8125 15.9188 24.7102 15.8236 24.6202C15.6187 24.4266 15.4745 24.2903 15.3501 24.1231C14.7931 23.3051 14.2039 22.2876 13.8338 21.4217L13.8337 21.4214C13.3506 20.2917 12.9786 19.1008 12.5873 17.848C12.5607 17.7629 12.534 17.6776 12.5072 17.5919C12.0922 16.265 11.6477 14.8764 11.032 13.5468C10.5447 12.4888 9.75725 11.3976 9.09261 10.4766C8.95212 10.2819 8.81711 10.0948 8.69158 9.91722C8.38232 9.47674 8.04445 9.05851 7.73773 8.67883C7.60313 8.5122 7.47452 8.353 7.35696 8.20261C6.95235 7.68498 6.59904 7.17869 6.30738 6.55646C6.20292 6.32537 6.11134 6.09103 6.07278 5.88395C6.04694 5.74513 6.05653 5.68271 6.0602 5.66615L6.14726 5.53522L6.1579 5.49259L6.31822 5.45242L6.42978 5.35775C6.44327 5.35643 6.46058 5.35527 6.48218 5.35471C6.61273 5.35136 6.80298 5.37377 7.04188 5.42884C7.51672 5.5383 8.01181 5.73575 8.26425 5.85249L8.28576 5.86244L8.3077 5.87135C9.94988 6.53834 11.2637 7.13728 12.5666 8.02006C12.7265 8.13558 12.864 8.26086 13.0412 8.42222C13.162 8.53223 13.3012 8.65901 13.4784 8.81091C13.8445 9.12461 14.3563 9.52193 14.9858 9.69723L15.1175 9.73388H15.2541H16.0954C16.8139 9.8788 17.5574 9.91088 18.2045 9.9388C18.2684 9.94155 18.3313 9.94426 18.3932 9.94704C19.1539 9.9812 19.7751 10.0249 20.3129 10.185C22.5907 10.9182 24.6695 12.001 26.5554 13.1877C32.298 16.8349 37.0366 22.0232 40.2416 28.2276L40.2431 28.2306C40.4823 28.6899 40.6556 29.1362 40.839 29.6321C40.8609 29.6915 40.8831 29.7518 40.9056 29.813C41.0662 30.2497 41.2437 30.7323 41.4755 31.2403C41.9558 32.3628 42.4911 33.4925 43.0173 34.5979C43.0458 34.6579 43.0744 34.7179 43.1029 34.7777C43.6041 35.8305 44.0941 36.8594 44.5336 37.8665L44.5336 37.8665L44.5367 37.8736C44.6255 38.0728 44.7146 38.2741 44.8043 38.477C45.6459 40.3792 46.5466 42.4148 47.8427 44.1078C48.1526 44.5335 48.6149 44.8265 49.0215 45.0341C49.4543 45.2551 49.9478 45.4399 50.4208 45.5979C50.8085 45.7275 51.2095 45.8477 51.5742 45.9571C51.6553 45.9814 51.7345 46.0051 51.8115 46.0284C52.2434 46.1587 52.5902 46.2683 52.8421 46.37C53.2329 46.5448 53.7077 46.7132 54.1452 46.8684C54.2609 46.9094 54.374 46.9495 54.4822 46.9885C55.0509 47.1938 55.5096 47.3775 55.816 47.5646C57.3104 48.4896 58.8128 49.5522 60.2486 50.5864C60.4644 50.7475 60.7677 50.9365 61.0535 51.1146L61.0816 51.1321C61.205 51.2091 61.3308 51.2875 61.4567 51.3672C58.9183 51.4739 56.7542 51.8778 54.8359 52.6891C54.7378 52.7276 54.6093 52.7627 54.403 52.8165L54.3794 52.8226C54.1962 52.8703 53.9489 52.9346 53.7137 53.0253C53.467 53.1204 53.1575 53.2717 52.8937 53.536C52.6092 53.8211 52.4223 54.1936 52.3757 54.6375L52.3259 55.1111L52.6623 55.4483C52.6752 55.4613 52.7153 55.5106 52.8115 55.7658C52.8211 55.7913 52.8316 55.82 52.8431 55.8513C52.9212 56.0641 53.0443 56.3997 53.2382 56.7088C53.8103 57.6614 54.8293 58.995 55.8297 59.7365L55.8353 59.7408C56.7708 60.4552 57.7454 61.1995 58.7725 61.8549L58.7789 61.859L58.7854 61.863C59.6988 62.4264 60.6621 62.871 61.5588 63.2848L61.6309 63.3181C62.5671 63.7503 63.4299 64.1527 64.2202 64.653C64.6822 64.9475 65.1517 65.2891 65.6457 65.655C65.7151 65.7065 65.7852 65.7585 65.8558 65.8109C66.2741 66.1214 66.7106 66.4455 67.1473 66.7444C67.2523 66.8223 67.3302 66.9035 67.4568 67.0354C67.5189 67.1001 67.5927 67.177 67.6872 67.2717C67.936 67.5211 68.3001 67.8534 68.8288 68.0427L70.1658 68.5212V67.1012V66.9659V66.6234L69.9559 66.3529C69.8986 66.2791 69.8439 66.1644 69.7345 65.8904C69.7288 65.876 69.7228 65.861 69.7166 65.8454C69.6254 65.6156 69.4869 65.2668 69.2659 64.9502L69.2159 64.8784L69.154 64.8164C68.9193 64.5809 68.6856 64.3585 68.4625 64.146L68.4606 64.1441C68.2518 63.9454 68.0521 63.7551 67.8541 63.5582C66.488 61.7317 64.8077 60.148 62.9997 58.847L62.9915 58.8411L62.9831 58.8353C62.5835 58.5598 62.0787 58.2681 61.5816 57.9813L61.5377 57.956C61.0397 57.6686 60.5309 57.3751 60.0494 57.0647C59.6211 56.7886 59.2381 56.5139 58.9251 56.2404C59.3906 56.1239 59.8397 55.9937 60.2348 55.8792C60.3339 55.8504 60.4297 55.8227 60.5214 55.7963C61.1986 55.6176 61.8539 55.5451 62.5953 55.4657L62.631 55.4619C63.3494 55.385 64.1486 55.2994 65.0015 55.08C65.7501 54.8922 66.4939 54.6592 67.2053 54.4363L67.2147 54.4334L67.9157 54.2137V53.4791V53.0733V52.66L67.6239 52.3673C67.3043 52.0467 67.0216 51.6729 66.6879 51.2316C66.6606 51.1955 66.633 51.1589 66.6049 51.1219C66.2532 50.6575 65.8411 50.1229 65.3333 49.6675L65.3266 49.6615L65.3199 49.6556ZM6.39091 5.36392C6.39085 5.36386 6.39225 5.36341 6.39528 5.36274C6.39248 5.36363 6.39096 5.36397 6.39091 5.36392Z" fill="#20AACF" stroke="black" stroke-width="2"/>
</svg>
