<svg width="70" height="70" viewBox="0 0 70 70" fill="none" xmlns="http://www.w3.org/2000/svg">
<path d="M50.6084 25.8687C50.6084 25.8687 45.8357 39.2226 45.4056 40.6816C45.2461 39.2003 40.2028 11.0558 40.2028 11.0558C31.091 11.0558 27.1403 16.8402 24.5944 24.0171C24.5944 24.0171 18.2019 41.026 17.6573 42.5332C17.6122 41.1705 15.923 25.8687 15.923 25.8687C15.4027 17.0883 8.25408 11.1299 2.04886 11.1299L8.98594 59.1978C18.5071 59.1496 25.3575 53.4133 28.0629 46.2365C28.0629 46.2365 33.0576 30.3126 33.2657 29.5719C33.3108 30.2385 36.7343 59.1978 36.7343 59.1978C46.3005 59.1978 53.0156 53.1763 55.8113 46.2365L67.9511 11.0558C58.4751 11.0336 53.1994 18.6659 50.6084 25.8687Z" fill="#4353FF" stroke="black" stroke-width="3" stroke-linecap="round" stroke-linejoin="round"/>
</svg>
