<svg width="77" height="74" viewBox="0 0 77 74" fill="none" xmlns="http://www.w3.org/2000/svg">
<path d="M27.8785 70.4883C39.429 68.2391 48.2718 61.5093 53.4561 51.5316C54.8053 51.2214 56.0285 50.4884 56.9381 49.4285C58.0221 48.1653 58.5771 46.5346 58.4855 44.8737C58.3938 43.2129 57.6629 41.6528 56.4471 40.5154C55.2326 39.3793 53.6271 38.7515 51.9628 38.7587H51.7802H51.7529L51.7256 38.7597C50.0117 38.8222 48.3904 39.5574 47.2185 40.8074C46.0462 42.0578 45.4197 43.7211 45.4794 45.4327L45.4799 45.4455L45.4805 45.4583C45.5434 46.6661 45.9399 47.8244 46.615 48.8112C43.7526 53.9739 39.4878 57.8623 33.099 61.1969L33.0895 61.2018L33.0801 61.2069C28.9243 63.4519 24.1622 64.3435 19.4673 63.7549C15.8115 63.258 13.115 61.6707 11.4271 59.17C8.88112 55.2928 8.64315 51.1865 10.799 46.978C12.1537 44.3975 14.0799 42.1543 16.4339 40.4175L17.2907 39.7854L16.9766 38.768C16.6285 37.6406 16.1116 35.7591 15.8643 34.424L15.4338 32.0992L13.5139 33.4792C-0.124464 43.2822 1.13922 56.7653 5.46421 63.3034C8.73701 68.2861 15.2998 71.1399 22.2093 71.1415C24.1189 71.1561 26.0229 70.9367 27.8785 70.4883ZM73.7925 61.3054L73.7981 61.2943C76.6712 55.5817 76.3633 46.0826 69.3114 38.1371C62.2374 29.9014 51.821 25.4143 40.0604 25.4143H39.4661C38.9671 24.7247 38.3332 24.1389 37.5996 23.6936C36.593 23.0825 35.4371 22.7593 34.259 22.7584H34.2579H34.0774H34.0438L34.0101 22.7599C32.3253 22.8355 30.7343 23.5605 29.5759 24.7841C28.4171 26.008 27.7827 27.6345 27.8106 29.3184C27.8385 31.0022 28.5263 32.6069 29.7247 33.7921C30.9228 34.977 32.5367 35.6496 34.2232 35.6702L34.2323 35.6703H34.2415H34.411H34.4476L34.4841 35.6686C35.7012 35.6092 36.878 35.2125 37.8813 34.5225C38.6027 34.0264 39.2138 33.3928 39.681 32.6615L40.3885 32.6615L40.3905 32.6615C46.8625 32.6527 53.1881 34.568 58.553 38.1596L58.5714 38.1719L58.5903 38.1837C62.5997 40.6992 65.6978 44.4147 67.4384 48.7915L67.4383 48.7915L67.4433 48.8036C68.813 52.1626 68.6949 55.3238 67.3235 57.9789C65.0925 62.1666 61.4241 64.4239 56.4597 64.4266C53.6484 64.3909 50.8725 63.8009 48.2932 62.6912L47.4086 62.3106L46.6943 62.9566C45.7642 63.7977 44.0343 65.1782 42.8259 66.0324L40.7454 67.503L43.0408 68.6086C46.819 70.4285 50.9486 71.4147 55.146 71.4997L55.1612 71.5H55.1764C64.2442 71.5 71.1176 66.5156 73.7925 61.3054ZM21.4314 51.7406C21.5187 53.3806 22.2292 54.9258 23.4181 56.0638C24.6262 57.2201 26.235 57.8672 27.9087 57.8731H27.914H28.0944H28.1079L28.1214 57.8729C29.8386 57.842 31.4754 57.135 32.6709 55.904C33.8667 54.6726 34.5228 53.0177 34.4916 51.3029C34.4603 49.5881 33.7444 47.9581 32.5047 46.7707C31.273 45.591 29.6245 44.9439 27.9185 44.9663C24.8098 39.5329 23.4316 33.2838 23.9776 27.045L23.98 27.0176L23.9814 26.9901C24.2189 22.2995 25.947 17.8031 28.9193 14.1466L28.9275 14.1365L28.9355 14.1263C30.0087 12.7583 31.6494 11.6749 33.4868 10.9198C35.3159 10.1681 37.2273 9.78871 38.7274 9.74683C42.7201 9.67607 45.6593 12.0796 47.7209 15.324C49.7949 18.5878 50.7878 22.4328 50.9175 24.5302L50.9884 25.6774L52.1145 25.9073C53.1637 26.1215 54.9748 26.7186 56.3466 27.1709L56.3966 27.1874L58.5288 27.8903L58.3621 25.6515C57.2517 10.7333 47.8554 2.5 38.3377 2.5C29.5847 2.5 21.689 8.75201 18.5752 17.7625C14.4083 29.2931 16.9652 40.3415 21.8402 49.0756C21.4847 49.9113 21.3415 50.827 21.4314 51.7406Z" fill="#764ABC" stroke="black" stroke-width="3"/>
</svg>
