<svg width="74" height="74" viewBox="0 0 74 74" fill="none" xmlns="http://www.w3.org/2000/svg">
<path fill-rule="evenodd" clip-rule="evenodd" d="M2 72V37V2H72V72H2ZM42.0021 40.0013L41.9788 37.1342L41.9467 34.2788L29.7113 34.2438C22.9913 34.2321 17.4467 34.2554 17.4117 34.3021C17.3679 34.3312 17.3358 35.6321 17.3358 37.1896V40.0013H26.4417V65.8896H32.8875V40.0013H42.0021ZM62.7892 36.7346C61.5437 35.4454 60.1904 34.655 58.4113 34.2117C57.2008 33.9112 54.3338 33.8237 53.1 34.0571C49.2996 34.7804 46.6658 37.21 45.9221 40.7013C45.7121 41.6988 45.6888 43.8238 47 46C48.1187 47.8568 49.1201 48.944 51 50C51 50 54.5065 51.7226 55.5 52C56.4929 52.2772 57.3037 52.878 58.1108 53.5C59.7256 54.7443 61 56.5767 59.5 58.5C58 60.4233 52.7792 60.2567 50 58L49.5 57.5L45 61.5L45.9221 62.5C45.9221 62.5 49.9675 65.5658 52.7792 66.0675C54.0683 66.3008 56.9121 66.3329 58.1108 66.12C61.99 65.4667 64.7463 63.4892 65.8546 60.5783C66.8667 57.9008 66.5312 54.2988 65.0438 52.0442C63.7108 50.0229 61.5671 48.6025 56.5533 46.4442C53.835 45.2688 52.9658 44.6883 52.4992 43.7229C52.285 43.3197 52.1823 42.8666 52.2017 42.4104C52.19 40.5554 53.555 39.4442 55.6783 39.59C57.1221 39.6892 58.5958 40.6875 59.5 42L64.4663 38.9804C64.0241 38.0506 63.492 37.4836 62.8884 36.8404L62.7892 36.7346Z" fill="#007ACC"/>
<path d="M41.9788 37.1342L42.0021 40.0013H32.8875V65.8896H26.4417V40.0013H17.3358V37.1896C17.3358 35.6321 17.3679 34.3312 17.4117 34.3021C17.4467 34.2554 22.9913 34.2321 29.7113 34.2438L41.9467 34.2788L41.9788 37.1342Z" fill="white"/>
<path d="M58.4113 34.2117C60.1904 34.655 61.5437 35.4454 62.7892 36.7346L62.8884 36.8404C63.492 37.4836 64.0241 38.0506 64.4663 38.9804L59.5 42C58.5958 40.6875 57.1221 39.6892 55.6783 39.59C53.555 39.4442 52.19 40.5554 52.2017 42.4104C52.1823 42.8666 52.285 43.3197 52.4992 43.7229C52.9658 44.6883 53.835 45.2688 56.5533 46.4442C61.5671 48.6025 63.7108 50.0229 65.0438 52.0442C66.5312 54.2988 66.8667 57.9008 65.8546 60.5783C64.7463 63.4892 61.99 65.4667 58.1108 66.12C56.9121 66.3329 54.0683 66.3008 52.7792 66.0675C49.9675 65.5658 45.9221 62.5 45.9221 62.5L45 61.5L49.5 57.5L50 58C52.7792 60.2567 58 60.4233 59.5 58.5C61 56.5767 59.7256 54.7443 58.1108 53.5C57.3037 52.878 56.4929 52.2772 55.5 52C54.5065 51.7226 51 50 51 50C49.1201 48.944 48.1187 47.8568 47 46C45.6888 43.8238 45.7121 41.6988 45.9221 40.7013C46.6658 37.21 49.2996 34.7804 53.1 34.0571C54.3338 33.8237 57.2008 33.9112 58.4113 34.2117Z" fill="white"/>
<path d="M62.7892 36.7346C61.5437 35.4454 60.1904 34.655 58.4113 34.2117C57.2008 33.9112 54.3338 33.8237 53.1 34.0571C49.2996 34.7804 46.6658 37.21 45.9221 40.7013C45.7121 41.6988 45.6888 43.8238 47 46C48.1187 47.8568 49.1201 48.944 51 50C51 50 54.5065 51.7226 55.5 52C56.4929 52.2772 57.3037 52.878 58.1108 53.5C59.7256 54.7443 61 56.5767 59.5 58.5C58 60.4233 52.7792 60.2567 50 58L49.5 57.5L45 61.5L45.9221 62.5C45.9221 62.5 49.9675 65.5658 52.7792 66.0675C54.0683 66.3008 56.9121 66.3329 58.1108 66.12C61.99 65.4667 64.7463 63.4892 65.8546 60.5783C66.8667 57.9008 66.5313 54.2988 65.0438 52.0442C63.7108 50.0229 61.5671 48.6025 56.5533 46.4442C53.835 45.2688 52.9658 44.6883 52.4992 43.7229C52.285 43.3197 52.1823 42.8666 52.2017 42.4104C52.19 40.5554 53.555 39.4442 55.6783 39.59C57.1221 39.6892 58.5958 40.6875 59.5 42L64.4663 38.9804C64.0241 38.0506 63.492 37.4836 62.8884 36.8404M62.7892 36.7346C62.8225 36.7701 62.8555 36.8054 62.8884 36.8404M62.7892 36.7346L62.8884 36.8404M2 37V72H72V2H2V37ZM41.9788 37.1342L42.0021 40.0013H32.8875V65.8896H26.4417V40.0013H17.3358V37.1896C17.3358 35.6321 17.3679 34.3312 17.4117 34.3021C17.4467 34.2554 22.9913 34.2321 29.7113 34.2438L41.9467 34.2788L41.9788 37.1342Z" stroke="black" stroke-width="3"/>
</svg>
