<svg width="70" height="72" viewBox="0 0 70 72" fill="none" xmlns="http://www.w3.org/2000/svg">
<path d="M54.3835 33.7156L55.9367 33.6402L55.8054 32.0907C55.5287 28.8261 54.269 26.223 51.8075 24.4944C49.4216 22.819 46.1144 22.1157 42.0379 22.1157C38.3448 22.1157 35.2002 22.8942 32.9355 24.4986C30.6104 26.1457 29.3305 28.5871 29.3305 31.549C29.3305 33.0894 29.6295 34.4503 30.2701 35.6221C30.9137 36.7992 31.8516 37.6928 32.9842 38.3709C35.18 39.6855 38.2067 40.242 41.5894 40.5778L41.5906 40.5779C45.6302 40.9757 47.535 41.4583 48.415 41.9095C48.7997 42.1068 48.8646 42.2375 48.8683 42.2448L48.8684 42.2451C48.8802 42.2674 48.9167 42.344 48.9167 42.6595C48.9167 43.1375 48.8216 43.4473 48.6958 43.6629C48.5727 43.874 48.3626 44.0941 47.9672 44.3028C47.1085 44.7559 45.5741 45.0535 43.0307 45.0535C39.8173 45.0535 38.2136 44.6335 37.3708 44.0783C36.662 43.6115 36.2934 42.9131 36.0831 41.4756C35.9238 40.3714 34.9786 39.5951 33.906 39.5951H30.7046C29.4314 39.5951 28.512 40.6411 28.512 41.7926C28.512 44.1293 29.1547 46.8629 31.472 48.987C33.7645 51.0884 37.4494 52.364 43.0307 52.364C47.0885 52.364 50.492 51.5689 52.9253 49.8947C55.4312 48.1704 56.7794 45.5959 56.7794 42.4367C56.7794 40.9438 56.5266 39.612 55.9368 38.4519C55.3404 37.2787 54.4493 36.3794 53.3308 35.6842C52.1129 34.9273 50.5926 34.3961 48.8214 33.9858L49.7969 33.9384L54.3835 33.7156ZM48.2611 32.7712L48.5206 33.9178C47.2469 33.6368 45.849 33.4134 44.3452 33.2106L44.3452 33.2106L44.3373 33.2096C40.4447 32.7057 38.5576 32.3451 37.6302 31.9602C37.3796 31.8561 37.2739 31.7791 37.2373 31.747C37.2288 31.7104 37.2126 31.6119 37.2126 31.3989C37.2126 30.904 37.3074 30.5876 37.6714 30.3067C38.1501 29.9373 39.3213 29.4553 42.0379 29.4553C44.5135 29.4553 45.8955 29.7366 46.7257 30.22C47.436 30.6336 47.9305 31.3102 48.2611 32.7712ZM37.221 31.7305C37.2211 31.7305 37.2231 31.7324 37.2261 31.7365C37.2223 31.7326 37.2208 31.7306 37.221 31.7305ZM37.2415 31.7627C37.2421 31.7641 37.2424 31.7649 37.2424 31.7649C37.2423 31.765 37.242 31.7643 37.2415 31.7627Z" fill="#8CC84B" stroke="black" stroke-width="3"/>
<path d="M31.1704 3.12916L31.1704 3.12915L31.1647 3.13243L6.5899 17.3184L6.58905 17.3189C4.53196 18.5081 3.26318 20.744 3.26318 23.1072V48.8444C3.26318 51.2364 4.53539 53.4454 6.58905 54.6327L6.59056 54.6335L13.0418 58.3532L13.0845 58.3778L13.1288 58.3996C14.7473 59.196 15.9238 59.6335 16.9272 59.8608C17.9349 60.0892 18.7059 60.0891 19.4095 60.089H19.4432C22.0676 60.089 24.3232 59.2884 25.9141 57.6138C27.4946 55.9502 28.2323 53.6207 28.2323 50.927V24.3713C28.2323 23.1593 27.2538 22.1496 26.0155 22.1496H22.9158C21.6321 22.1496 20.6941 23.1802 20.6941 24.3713V50.9028C20.6941 51.4917 20.3888 52.053 19.8701 52.348C19.3943 52.6185 18.4752 52.803 17.0023 52.083L10.6512 48.4174V23.5294L34.5082 9.76251L58.3651 23.5294V48.4315L34.5127 62.2104L28.5982 58.7098C28.0215 58.3347 27.1902 58.2157 26.4685 58.6249C24.8011 59.5643 24.5547 59.6556 23.0157 60.1919C22.8993 60.2287 22.6808 60.3014 22.4635 60.4196C22.2829 60.5179 21.7524 60.8297 21.5493 61.5002C21.3068 62.301 21.7041 62.9335 21.9793 63.2407C22.2491 63.5417 22.6048 63.7806 22.9603 63.9809L31.1498 68.8346L31.1644 68.8433L31.1792 68.8516C32.1834 69.4165 33.3304 69.7368 34.4961 69.7368C35.6845 69.7368 36.8262 69.4175 37.8323 68.8516L37.8397 68.8474L37.8471 68.8432L62.4509 54.633L62.4515 54.6327C64.5052 53.4454 65.7774 51.2364 65.7774 48.8444V23.1314C65.7774 20.7394 64.5052 18.5304 62.4515 17.3431L62.4509 17.3428L37.8471 3.13259L37.8411 3.12916C36.8154 2.54303 35.6504 2.26315 34.5057 2.26315C33.3611 2.26315 32.1961 2.54303 31.1704 3.12916Z" fill="#8CC84B" stroke="black" stroke-width="3"/>
</svg>
