<svg width="70" height="70" viewBox="0 0 70 70" fill="none" xmlns="http://www.w3.org/2000/svg">
<path d="M60.3093 57.0166C58.5631 59.0312 56.5723 60.8323 54.3941 62.3922L49.6856 55.2668L49.6854 55.2666C46.6347 50.6521 40.4282 41.2456 35.8806 34.3505C33.0963 30.0939 30.267 25.852 27.4315 21.6247L27.3691 21.5318L27.2938 21.4492C26.9773 21.1024 26.5768 20.7735 25.9142 20.6209C25.4387 20.5114 24.8506 20.5053 24.2017 20.5053C23.6341 20.5053 23.2223 20.509 22.914 20.5419C22.4902 20.5873 22.223 20.6905 21.9679 20.8132L21.9393 20.8269L21.9114 20.8419C21.5523 21.0337 21.2249 21.2957 20.9562 21.6242L20.9486 21.6334L20.9412 21.6428L20.7247 21.9162L20.4015 22.3243L20.4006 22.8448L20.3765 36.5629L20.3765 36.5644L20.3656 50.2825L20.3653 50.6259L20.5145 50.9352L20.6632 51.2437L20.6693 51.2562L20.6755 51.2687C20.9052 51.723 21.2518 52.0916 21.6538 52.352L21.6644 52.3589L21.6751 52.3655L21.9835 52.558L22.348 52.7856H22.7777H23.9611C23.9933 52.7856 24.0251 52.7856 24.0566 52.7856C24.9051 52.7859 25.4748 52.7862 26.041 52.5203C26.6678 52.2286 27.1035 51.7298 27.3572 51.1949C27.5174 50.8764 27.557 50.5725 27.5784 50.3048C27.6009 50.0246 27.6135 49.5976 27.6227 48.9225C27.6411 47.5749 27.6473 45.0641 27.6589 40.3081L27.6595 40.054V40.0538C27.6642 38.0414 27.6711 36.159 27.6792 34.5717C29.1417 36.7153 30.5948 38.8677 32.0458 41.0252L32.0472 41.0273L39.0536 51.4072L39.0719 51.4344L39.0914 51.4607L44.6832 59.0123C44.6834 59.0126 44.6836 59.0128 44.6838 59.0131C46.2335 61.113 47.7834 63.2003 49.3531 65.285L48.7487 65.6208C45.4782 67.0936 42.1079 67.9855 38.1823 68.4236C37.7455 68.47 36.4257 68.5 34.9978 68.5C33.5704 68.5 32.2511 68.47 31.8139 68.4237C29.1808 68.1252 26.8895 67.6412 24.7133 66.9466C12.5774 63.0303 3.62435 52.4605 1.80168 39.8812L1.80132 39.8787C1.53254 38.0451 1.5 37.5611 1.5 35.0037C1.5 32.4435 1.5326 31.9509 1.80132 30.1177L1.8017 30.115C2.56564 24.8384 4.59163 19.8136 7.71104 15.4889L7.71105 15.4889L7.71458 15.4839C13.3625 7.58652 22.2741 2.46291 31.78 1.60013C31.7941 1.59895 31.8082 1.59777 31.8223 1.59659L31.8338 1.6196L32.8658 1.51243C32.8656 1.51245 32.8661 1.51242 32.8674 1.51235C32.879 1.51168 32.9534 1.50742 33.1219 1.50431C33.2879 1.50125 33.5034 1.49985 33.7558 1.50001C34.2597 1.50035 34.8908 1.50693 35.5282 1.51751C36.8424 1.53933 38.0547 1.57643 38.311 1.60212C40.6774 1.85389 43.0153 2.34445 45.2891 3.06366C57.4238 6.98282 66.3758 17.5521 68.1983 30.1305L68.1987 30.133C68.4675 31.9666 68.5 32.4485 68.5 35.008C68.5 37.566 68.4674 38.0608 68.1987 39.894L68.1986 39.8946C67.2713 46.2372 64.5334 52.1805 60.313 57.0124L60.3093 57.0166ZM49.1512 21.5222L49.1488 21.5145L49.1462 21.5069C48.9169 20.8188 48.4178 20.2002 47.718 19.8517C47.4124 19.6885 47.1163 19.6086 46.7578 19.575C46.4737 19.5484 46.0963 19.5471 45.6167 19.5471C45.1079 19.5471 44.7202 19.548 44.4305 19.5776C44.0153 19.62 43.7429 19.7241 43.4782 19.8586L43.4416 19.8772L43.4061 19.8978C42.761 20.2713 42.2455 20.8848 42.0291 21.6536L42.0119 21.7149L41.9999 21.7775C41.9765 21.8991 41.9707 22.0215 41.9697 22.0416L41.9696 22.044C41.9668 22.095 41.9645 22.1543 41.9626 22.2168C41.9587 22.3436 41.9551 22.5151 41.9517 22.7264C41.9451 23.1507 41.9392 23.7578 41.9342 24.5372C41.9243 26.097 41.9183 28.3596 41.9183 31.2564V40.1881V40.6352L42.163 41.0093L44.3375 44.3334L44.3395 44.3365L46.5009 47.6585L49.2483 51.8813L49.2582 46.8434L49.2822 34.5406L49.2823 34.5396C49.2877 30.2556 49.2877 27.1585 49.279 25.1087C49.2746 24.0848 49.268 23.316 49.2586 22.7891C49.254 22.5271 49.2485 22.3151 49.2418 22.1578C49.2384 22.0806 49.2343 22.0034 49.2286 21.9344C49.2258 21.9005 49.2215 21.8554 49.2148 21.8064C49.2115 21.7816 49.196 21.6615 49.1512 21.5222Z" fill="#202020" stroke="black" stroke-width="3"/>
</svg>
