<svg width="70" height="70" viewBox="0 0 70 70" fill="none" xmlns="http://www.w3.org/2000/svg">
<path d="M52.779 16.2736V17.7736L54.279 17.7736L55.7349 17.7736L57.2349 17.7736V16.2736C57.2349 7.01983 51.1735 1.92286 44.8322 1.85241C41.706 1.81767 38.5708 3.01829 36.2232 5.47895C33.8682 7.94735 32.3962 11.5847 32.3962 16.2736V53.1127H13.6364H12.1364V54.6127C12.1364 59.0813 13.6151 62.5704 15.9619 64.9479C18.296 67.3127 21.4026 68.488 24.4942 68.488C27.5859 68.488 30.6924 67.3127 33.0266 64.9479C35.3733 62.5704 36.8521 59.0813 36.8521 54.6127V16.2736C36.8521 12.7018 37.9349 10.1711 39.4166 8.5501C40.9029 6.924 42.8651 6.12624 44.8155 6.12624C46.766 6.12624 48.7282 6.924 50.2145 8.5501C51.6962 10.1711 52.779 12.7018 52.779 16.2736Z" fill="#70B3E3" stroke="black" stroke-width="3"/>
</svg>
