<svg width="68" height="68" viewBox="0 0 68 68" fill="none" xmlns="http://www.w3.org/2000/svg">
<path d="M29.0366 14.6205L18.4201 9.23873L6.76776 15.0785L17.6724 20.5765L29.0366 14.6205Z" fill="#4DABCF" stroke="black" stroke-width="2"/>
<path d="M33.9047 17.0858L45.0357 22.7273L33.4863 28.5511L22.5657 23.0441L33.9047 17.0858Z" fill="#4DABCF" stroke="black" stroke-width="2"/>
<path d="M48.7697 9.32076L60.2048 15.0785L49.9793 20.2347L38.8231 14.5863L48.7697 9.32076Z" fill="#4DABCF" stroke="black" stroke-width="2"/>
<path d="M43.849 6.83949L33.5526 1.65823L23.3705 6.75974L33.9779 12.1324L43.849 6.83949Z" fill="#4DABCF" stroke="black" stroke-width="2"/>
<path d="M35.8003 51.3496V65.4557L48.2712 59.2081L48.2575 45.0952L35.8003 51.3496Z" fill="#4DABCF" stroke="black" stroke-width="2"/>
<path d="M48.2529 40.1714L48.2392 26.2066L35.8003 32.4154V46.3848L48.2529 40.1714Z" fill="#4DABCF" stroke="black" stroke-width="2"/>
<path d="M63.2253 37.5534V51.7142L52.5882 57.0435L52.5814 42.9489L63.2253 37.5534Z" fill="#4DABCF" stroke="black" stroke-width="2"/>
<path d="M63.2254 32.6023V18.7263L52.5677 24.0466L52.5768 38.0387L63.2254 32.6023Z" fill="#4DABCF" stroke="black" stroke-width="2"/>
<path d="M31.3964 32.4177L22.9955 28.1775V46.5079C22.9955 46.5079 12.722 24.557 11.7776 22.5861C11.5769 22.3285 11.3175 22.1222 11.0208 21.9846C9.17324 21.0253 3.77466 18.2684 3.77466 18.2684V50.6456L11.2426 54.6557V37.7311C11.2426 37.7311 21.4064 57.342 21.5093 57.5539C22.0326 58.6969 22.786 59.7206 23.7227 60.5615C25.1746 61.5253 31.3987 65.2848 31.3987 65.2848L31.3964 32.4177Z" fill="#4D77CF" stroke="black" stroke-width="2"/>
</svg>
