<svg width="50" height="71" viewBox="0 0 50 71" fill="none" xmlns="http://www.w3.org/2000/svg">
<path d="M16.9176 54.9195L16.2815 53.4139C15.0562 53.7562 14.0989 54.1762 13.4717 54.7042C13.1502 54.9749 12.8727 55.3098 12.722 55.72C12.5645 56.1486 12.5715 56.5909 12.7168 57.0013C12.9836 57.7546 13.6724 58.2991 14.3691 58.6883C15.1076 59.1008 16.0563 59.4499 17.1361 59.7246C21.4308 60.8176 28.4449 60.8922 34.6691 58.2257L36.9194 57.2616L34.6377 56.3745C33.6997 56.0098 32.892 55.6161 32.3192 55.3135C32.0334 55.1626 31.8076 55.0352 31.6551 54.9467C31.5789 54.9024 31.5211 54.8679 31.4834 54.8452L31.4421 54.82L31.4332 54.8145L31.4323 54.8139L31.4321 54.8138L31.4319 54.8137L31.4317 54.8136L31.4317 54.8136L31.1007 54.6066L30.7164 54.6793C25.4612 55.6726 23.0812 55.7468 18.3317 55.2043L16.9176 54.9195ZM16.9176 54.9195C17.1538 55.0082 17.5873 55.119 18.3313 55.2043L16.9176 54.9195ZM14.7691 46.7213L15.6774 48.4708C15.6796 48.4738 15.6797 48.4737 15.6797 48.4737L15.6803 48.4733L15.6813 48.4725L15.6826 48.4716M14.7691 46.7213L16.5723 49.0339C15.9324 48.9676 15.5601 48.8663 15.3562 48.7856C15.3857 48.75 15.4185 48.7137 15.4537 48.6776C15.5173 48.6122 15.5788 48.5572 15.624 48.519C15.6462 48.5003 15.6633 48.4866 15.6734 48.4787L15.6826 48.4716M14.7691 46.7213C13.4339 47.1645 12.4136 47.6485 11.7487 48.1928C11.0836 48.7373 10.5447 49.5667 10.8955 50.5433C11.1811 51.3384 11.9605 51.851 12.6961 52.1926C13.4919 52.5621 14.5227 52.8609 15.7047 53.0886C20.4201 53.9969 28.2431 53.9028 35.6387 51.7398L38.6181 50.8684L35.6903 49.8369C35.0343 49.6057 34.4898 49.2749 34.1072 48.998C33.9173 48.8606 33.7714 48.7395 33.676 48.6557C33.6284 48.6139 33.5937 48.5817 33.5726 48.5618C33.5622 48.5518 33.5551 48.5449 33.5516 48.5415C33.5508 48.5407 33.5502 48.5401 33.5498 48.5397C33.5493 48.5392 33.5491 48.539 33.5491 48.539L33.1763 48.1602M14.7691 46.7213L33.1763 48.1602M15.6826 48.4716C15.6831 48.4711 15.6831 48.4711 15.6826 48.4715L15.6826 48.4716ZM33.1763 48.1602L32.6503 48.2614M33.1763 48.1602L32.6503 48.2614M32.6503 48.2614C25.6671 49.6054 21.6714 49.5604 16.5726 49.034L32.6503 48.2614ZM16.7196 54.8246C16.7197 54.8246 16.7204 54.8251 16.7217 54.8261C16.7203 54.8251 16.7196 54.8246 16.7196 54.8246Z" fill="#0074BD" stroke="black" stroke-width="2"/>
<path d="M26.0283 41.9831L26.0286 41.9829C26.0286 41.9828 26.0287 41.9828 26.0326 41.9874L27.1219 43.6443L26.6633 42.7557C27.1219 43.6443 27.1222 43.6441 27.1226 43.6439L27.1235 43.6435L27.1257 43.6423L27.1322 43.6389L27.1533 43.6278C27.1708 43.6185 27.1952 43.6054 27.2259 43.5887C27.2873 43.5551 27.3741 43.5068 27.4816 43.4443C27.6963 43.3195 27.9954 43.1373 28.3417 42.9034C29.0289 42.4391 29.9274 41.7538 30.7211 40.889C31.5088 40.0307 32.2499 38.9343 32.5197 37.6461C32.7986 36.3146 32.5514 34.8807 31.5369 33.452L31.5363 33.4511C31.388 33.2428 31.2446 33.0435 31.1067 32.8517C30.4611 31.9544 29.9345 31.2225 29.5813 30.5034C29.1791 29.6846 29.0695 29.0081 29.2961 28.2786C29.5398 27.4938 30.2187 26.4952 31.7583 25.1736C33.2874 23.8612 35.5775 22.3036 38.8967 20.3786L38.8567 20.3097C39.0324 20.1472 39.2718 19.8747 39.395 19.5135V17.7776L38.0109 18.5803C37.9788 18.5888 37.9414 18.5989 37.899 18.6104C37.7405 18.6536 37.5122 18.7178 37.2267 18.8032C36.6561 18.974 35.8553 19.2303 34.9268 19.5748C33.0795 20.26 30.6851 21.3093 28.5934 22.7515C26.522 24.1798 24.6062 26.0907 23.9584 28.5462C23.2909 31.0764 24.0375 33.8983 26.6834 36.9474L26.6838 36.9479C27.2989 37.6559 27.5228 38.2901 27.5687 38.8236C27.6157 39.3692 27.4832 39.8924 27.256 40.3724C27.0276 40.8549 26.7169 41.2643 26.4544 41.5582C26.3249 41.7032 26.2118 41.815 26.1337 41.8882C26.0948 41.9247 26.065 41.9513 26.0467 41.9673L26.0283 41.9831ZM26.0283 41.9831L26.028 41.9834L26.0271 41.9841L26.0262 41.9848C26.0261 41.985 26.0268 41.9844 26.0283 41.9831Z" fill="#EA2D2E" stroke="black" stroke-width="2"/>
<mask id="path-3-outside-1_1204_15" maskUnits="userSpaceOnUse" x="-1" y="38.1304" width="51" height="30" fill="black">
<rect fill="white" x="-1" y="38.1304" width="51" height="30"/>
<path d="M43.3014 59.3383C43.3014 59.3383 45.0334 60.7665 41.3932 61.8703C34.4722 63.9669 12.5812 64.5991 6.50133 61.9542C4.31684 61.0031 8.4149 59.6843 9.70419 59.4061C11.0485 59.115 11.816 59.168 11.816 59.168C9.38518 57.4567 -3.89547 62.5299 5.07118 63.9851C29.5226 67.9487 49.6428 62.2001 43.3014 59.3383ZM17.677 40.7204C17.677 40.7204 6.54304 43.3652 13.7345 44.3267C16.7715 44.733 22.8229 44.6398 28.4635 44.1667C33.0719 43.7795 37.6966 42.9525 37.6966 42.9525C37.6966 42.9525 36.0731 43.6489 34.8972 44.4508C23.5885 47.4255 1.74758 46.04 8.03601 42.9991C13.3522 40.4279 17.677 40.7204 17.677 40.7204ZM37.6505 51.8843C49.1452 45.9129 43.83 40.1741 40.1201 40.9471C39.2131 41.1361 38.8063 41.3005 38.8063 41.3005C38.8063 41.3005 39.1439 40.7709 39.7879 40.5432C47.1266 37.9641 52.7696 48.1519 37.4208 52.1871C37.4208 52.1861 37.597 52.0266 37.6505 51.8843Z"/>
</mask>
<path d="M43.3014 59.3383C43.3014 59.3383 45.0334 60.7665 41.3932 61.8703C34.4722 63.9669 12.5812 64.5991 6.50133 61.9542C4.31684 61.0031 8.4149 59.6843 9.70419 59.4061C11.0485 59.115 11.816 59.168 11.816 59.168C9.38518 57.4567 -3.89547 62.5299 5.07118 63.9851C29.5226 67.9487 49.6428 62.2001 43.3014 59.3383ZM17.677 40.7204C17.677 40.7204 6.54304 43.3652 13.7345 44.3267C16.7715 44.733 22.8229 44.6398 28.4635 44.1667C33.0719 43.7795 37.6966 42.9525 37.6966 42.9525C37.6966 42.9525 36.0731 43.6489 34.8972 44.4508C23.5885 47.4255 1.74758 46.04 8.03601 42.9991C13.3522 40.4279 17.677 40.7204 17.677 40.7204ZM37.6505 51.8843C49.1452 45.9129 43.83 40.1741 40.1201 40.9471C39.2131 41.1361 38.8063 41.3005 38.8063 41.3005C38.8063 41.3005 39.1439 40.7709 39.7879 40.5432C47.1266 37.9641 52.7696 48.1519 37.4208 52.1871C37.4208 52.1861 37.597 52.0266 37.6505 51.8843Z" fill="#0074BD"/>
<path d="M43.3014 59.3383L44.1241 57.5154L42.029 60.8814L43.3014 59.3383ZM41.3932 61.8703L41.9731 63.7844L41.9736 63.7842L41.3932 61.8703ZM6.50133 61.9542L5.70291 63.7879L5.70351 63.7882L6.50133 61.9542ZM9.70419 59.4061L10.1261 61.361L10.1274 61.3608L9.70419 59.4061ZM11.816 59.168L11.6783 61.1633L18.8254 61.6568L12.9674 57.5327L11.816 59.168ZM5.07118 63.9851L4.75079 65.9593L4.75115 65.9593L5.07118 63.9851ZM17.677 40.7204L18.1392 42.6662L17.812 38.7249L17.677 40.7204ZM13.7345 44.3267L13.9998 42.3443L13.9995 42.3443L13.7345 44.3267ZM28.4635 44.1667L28.6306 46.1597L28.6309 46.1597L28.4635 44.1667ZM37.6966 42.9525L38.4851 44.7905L37.3446 40.9837L37.6966 42.9525ZM34.8972 44.4508L35.406 46.385L35.7393 46.2974L36.024 46.1032L34.8972 44.4508ZM8.03601 42.9991L8.9067 44.7996L8.90682 44.7996L8.03601 42.9991ZM37.6505 51.8843L36.7285 50.1095L36.0481 50.4629L35.7784 51.1806L37.6505 51.8843ZM40.1201 40.9471L40.528 42.9051L40.5281 42.9051L40.1201 40.9471ZM38.8063 41.3005L37.1199 40.2252L33.7581 45.4976L39.5556 43.1548L38.8063 41.3005ZM39.7879 40.5432L39.1247 38.6563L39.121 38.6577L39.7879 40.5432ZM37.4208 52.1871H35.4208V54.7809L37.9293 54.1214L37.4208 52.1871ZM43.3014 59.3383C42.029 60.8814 42.0279 60.8805 42.0269 60.8796C42.0265 60.8793 42.0255 60.8785 42.0248 60.8779C42.0234 60.8768 42.0221 60.8756 42.0207 60.8745C42.018 60.8723 42.0154 60.8701 42.0129 60.868C42.0078 60.8637 42.0031 60.8596 41.9985 60.8557C41.9895 60.8479 41.9815 60.8407 41.9742 60.8342C41.9599 60.8212 41.9481 60.8097 41.9379 60.7993C41.9197 60.7806 41.8983 60.7567 41.8751 60.7235C41.8463 60.6821 41.6983 60.4617 41.7143 60.1015C41.7339 59.6625 41.9703 59.453 41.9523 59.4679C41.8905 59.5191 41.5982 59.7182 40.8129 59.9563L41.9736 63.7842C43.0083 63.4705 43.8646 63.0772 44.5018 62.5501C45.1828 61.9868 45.6688 61.2133 45.7104 60.2793C45.7484 59.424 45.395 58.7776 45.1551 58.434C45.0264 58.2496 44.8982 58.1055 44.7995 58.0044C44.7491 57.9528 44.7036 57.9096 44.6657 57.8751C44.6466 57.8578 44.6293 57.8425 44.6139 57.8292C44.6063 57.8226 44.5991 57.8164 44.5924 57.8108C44.589 57.8079 44.5858 57.8052 44.5827 57.8027C44.5811 57.8014 44.5796 57.8001 44.5781 57.7989C44.5774 57.7983 44.5763 57.7974 44.5759 57.797C44.5749 57.7962 44.5738 57.7953 43.3014 59.3383ZM40.8134 59.9562C37.6445 60.9161 30.6876 61.6012 23.6066 61.6905C20.1063 61.7346 16.6567 61.632 13.7297 61.3603C10.7352 61.0823 8.50416 60.6444 7.29914 60.1202L5.70351 63.7882C7.53842 64.5864 10.3237 65.0613 13.36 65.3432C16.4638 65.6313 20.0595 65.7355 23.657 65.6901C30.7717 65.6004 38.2208 64.9211 41.9731 63.7844L40.8134 59.9562ZM7.29974 60.1205C7.15644 60.0581 7.35563 60.1084 7.56632 60.393C7.68919 60.559 7.8115 60.8007 7.85523 61.1075C7.89899 61.4146 7.84965 61.6858 7.7739 61.8899C7.64297 62.2426 7.4409 62.3845 7.48642 62.347C7.50091 62.3351 7.57453 62.2808 7.73619 62.1952C8.42845 61.8286 9.58198 61.4785 10.1261 61.361L9.28224 57.4511C8.53711 57.6119 6.99696 58.0603 5.86399 58.6604C5.56935 58.8165 5.24094 59.0144 4.94318 59.2597C4.67647 59.4794 4.25195 59.8835 4.02387 60.498C3.73951 61.2641 3.85603 62.1039 4.35145 62.7731C4.75111 63.3129 5.3001 63.6125 5.70291 63.7879L7.29974 60.1205ZM10.1274 61.3608C10.6978 61.2373 11.1269 61.1908 11.3925 61.1738C11.5253 61.1652 11.6175 61.164 11.666 61.1643C11.6903 61.1644 11.7037 61.1648 11.7059 61.1649C11.7069 61.165 11.7052 61.1649 11.7006 61.1647C11.6983 61.1645 11.6953 61.1644 11.6916 61.1641C11.6897 61.164 11.6877 61.1639 11.6855 61.1638C11.6844 61.1637 11.6832 61.1636 11.682 61.1635C11.6814 61.1635 11.6808 61.1634 11.6802 61.1634C11.6798 61.1634 11.6794 61.1634 11.6792 61.1633C11.6787 61.1633 11.6783 61.1633 11.816 59.168C11.9538 57.1728 11.9533 57.1727 11.9528 57.1727C11.9527 57.1727 11.9522 57.1727 11.9519 57.1726C11.9512 57.1726 11.9505 57.1726 11.9498 57.1725C11.9484 57.1724 11.947 57.1723 11.9455 57.1722C11.9425 57.172 11.9394 57.1718 11.936 57.1716C11.9293 57.1712 11.9218 57.1708 11.9136 57.1703C11.8971 57.1695 11.8775 57.1685 11.855 57.1677C11.8099 57.166 11.7529 57.1646 11.6842 57.1643C11.5468 57.1637 11.363 57.1674 11.136 57.182C10.6816 57.2112 10.0549 57.2838 9.28099 57.4513L10.1274 61.3608ZM12.9674 57.5327C12.1848 56.9817 11.2363 56.8523 10.5373 56.8254C9.77081 56.796 8.93671 56.8805 8.125 57.0251C6.50452 57.3137 4.71524 57.889 3.2839 58.5959C2.57378 58.9466 1.86586 59.3715 1.30018 59.871C0.809181 60.3045 0.0415174 61.1292 0.00156224 62.3102C-0.045996 63.716 0.917903 64.5916 1.70939 65.035C2.50213 65.4791 3.54605 65.7637 4.75079 65.9593L5.39156 62.0109C4.35464 61.8426 3.85213 61.6504 3.66438 61.5453C3.47537 61.4394 4.02472 61.6932 3.99928 62.4455C3.98143 62.973 3.67253 63.1124 3.94767 62.8694C4.14813 62.6924 4.51371 62.4497 5.05519 62.1823C6.12703 61.6529 7.55329 61.1898 8.82641 60.9631C9.46149 60.85 9.9937 60.8075 10.3837 60.8225C10.8413 60.8401 10.8396 60.9265 10.6647 60.8034L12.9674 57.5327ZM4.75115 65.9593C17.1917 67.9759 28.5615 67.5304 36.0844 66.1902C39.7734 65.533 42.7905 64.6184 44.5184 63.5145C44.9682 63.2272 45.4247 62.8691 45.7846 62.4196C46.1486 61.965 46.4993 61.3039 46.4818 60.4798C46.4456 58.7741 44.984 57.9034 44.1241 57.5154L42.4787 61.1613C43.2042 61.4887 42.5009 61.4237 42.4827 60.5646C42.4742 60.1638 42.6487 59.9363 42.6623 59.9194C42.6718 59.9075 42.6035 59.9913 42.3649 60.1437C41.3398 60.7986 38.9876 61.61 35.3828 62.2522C28.3181 63.5108 17.4021 63.9578 5.3912 62.0109L4.75115 65.9593ZM17.677 40.7204C17.2148 38.7745 17.2145 38.7746 17.2142 38.7747C17.214 38.7747 17.2137 38.7748 17.2134 38.7749C17.2128 38.775 17.212 38.7752 17.211 38.7754C17.2091 38.7759 17.2065 38.7765 17.2032 38.7773C17.1967 38.7789 17.1875 38.7811 17.1759 38.7839C17.1525 38.7895 17.1191 38.7976 17.0765 38.8081C16.9913 38.829 16.8692 38.8594 16.7175 38.8982C16.4146 38.9756 15.9913 39.087 15.5063 39.2239C14.5534 39.4929 13.2959 39.8789 12.2429 40.3155C11.7267 40.5295 11.171 40.7915 10.7081 41.1018C10.4778 41.2562 10.1991 41.4693 9.95382 41.751C9.71964 42.02 9.38166 42.5064 9.32379 43.1885C9.25864 43.9565 9.57676 44.588 9.97113 45.0072C10.321 45.3791 10.7353 45.5986 11.052 45.7342C11.6911 46.0079 12.5214 46.1823 13.4695 46.309L13.9995 42.3443C13.1497 42.2307 12.7548 42.1121 12.6264 42.0571C12.5593 42.0284 12.7042 42.0747 12.8846 42.2665C13.1096 42.5057 13.3584 42.9503 13.3095 43.5267C13.2679 44.0172 13.0318 44.3073 12.9707 44.3775C12.8986 44.4603 12.8643 44.472 12.9352 44.4244C13.0747 44.3309 13.3489 44.1871 13.775 44.0105C14.6065 43.6657 15.6831 43.3304 16.5931 43.0734C17.0395 42.9474 17.4299 42.8447 17.7077 42.7737C17.8464 42.7382 17.9566 42.7108 18.0309 42.6926C18.0681 42.6834 18.0963 42.6766 18.1147 42.6721C18.1239 42.6699 18.1306 42.6683 18.1347 42.6673C18.1368 42.6668 18.1382 42.6665 18.1389 42.6663C18.1393 42.6662 18.1395 42.6662 18.1396 42.6662C18.1396 42.6661 18.1395 42.6662 18.1395 42.6662C18.1394 42.6662 18.1392 42.6662 17.677 40.7204ZM13.4693 46.309C16.7309 46.7454 22.9611 46.6352 28.6306 46.1597L28.2963 42.1737C22.6846 42.6444 16.8121 42.7206 13.9998 42.3443L13.4693 46.309ZM28.6309 46.1597C30.9919 45.9613 33.3449 45.6515 35.0997 45.393C35.9791 45.2635 36.713 45.1461 37.2282 45.061C37.4859 45.0184 37.6892 44.9838 37.8289 44.9597C37.8988 44.9476 37.9528 44.9382 37.9898 44.9317C38.0083 44.9284 38.0225 44.9259 38.0324 44.9241C38.0373 44.9233 38.0412 44.9226 38.0439 44.9221C38.0452 44.9219 38.0463 44.9217 38.0471 44.9215C38.0475 44.9215 38.0478 44.9214 38.0481 44.9214C38.0482 44.9213 38.0484 44.9213 38.0484 44.9213C38.0486 44.9213 38.0487 44.9213 37.6966 42.9525C37.3446 40.9837 37.3446 40.9837 37.3447 40.9837C37.3447 40.9837 37.3447 40.9837 37.3447 40.9837C37.3447 40.9837 37.3446 40.9837 37.3444 40.9837C37.3441 40.9838 37.3435 40.9839 37.3426 40.9841C37.3409 40.9844 37.338 40.9849 37.334 40.9856C37.3261 40.987 37.3138 40.9892 37.2973 40.9921C37.2643 40.9979 37.2145 41.0066 37.1489 41.0179C37.0177 41.0405 36.8237 41.0736 36.5758 41.1145C36.0799 41.1965 35.3695 41.3101 34.5168 41.4357C32.8071 41.6875 30.5435 41.9849 28.296 42.1737L28.6309 46.1597ZM37.6966 42.9525C36.9082 41.1144 36.908 41.1145 36.9079 41.1146C36.9078 41.1146 36.9077 41.1147 36.9076 41.1147C36.9073 41.1148 36.9071 41.1149 36.9068 41.1151C36.9062 41.1153 36.9055 41.1156 36.9048 41.1159C36.9032 41.1166 36.9013 41.1174 36.899 41.1184C36.8943 41.1204 36.8881 41.1231 36.8804 41.1265C36.8651 41.1331 36.8437 41.1425 36.8169 41.1543C36.7634 41.1779 36.6878 41.2116 36.5945 41.2542C36.4081 41.3392 36.1484 41.4608 35.8489 41.6094C35.264 41.8996 34.4697 42.3215 33.7703 42.7985L36.024 46.1032C36.5005 45.7782 37.106 45.4509 37.6269 45.1925C37.8802 45.0668 38.0999 44.964 38.2547 44.8934C38.3319 44.8582 38.3924 44.8312 38.4322 44.8137C38.4521 44.8049 38.4668 44.7985 38.4758 44.7945C38.4803 44.7926 38.4833 44.7913 38.4849 44.7906C38.4857 44.7902 38.4861 44.7901 38.4861 44.7901C38.4861 44.7901 38.4861 44.7901 38.4859 44.7902C38.4858 44.7902 38.4857 44.7902 38.4855 44.7903C38.4855 44.7903 38.4854 44.7904 38.4853 44.7904C38.4852 44.7905 38.4851 44.7905 37.6966 42.9525ZM34.3884 42.5166C29.0121 43.9308 20.9549 44.332 14.984 43.9842C11.9476 43.8073 9.72813 43.4496 8.70254 43.0584C8.45833 42.9653 8.41221 42.9171 8.4615 42.9566C8.49756 42.9855 8.88317 43.3049 8.91798 43.9485C8.95334 44.6021 8.59427 44.961 8.56656 44.9878C8.53136 45.0218 8.60086 44.9475 8.9067 44.7996L7.16533 41.1986C6.68511 41.4308 6.18832 41.7237 5.78771 42.1106C5.39459 42.4903 4.87099 43.1879 4.92382 44.1646C4.97611 45.1313 5.56121 45.7583 5.95988 46.0778C6.37177 46.4079 6.85139 46.6335 7.27717 46.7958C8.93153 47.4268 11.7 47.7997 14.7514 47.9774C20.956 48.3389 29.4736 47.9455 35.406 46.385L34.3884 42.5166ZM8.90682 44.7996C11.3469 43.6194 13.5519 43.1003 15.1317 42.8756C15.9209 42.7634 16.5505 42.7251 16.9704 42.7142C17.1801 42.7087 17.337 42.71 17.4345 42.7123C17.4833 42.7134 17.5172 42.7148 17.5354 42.7156C17.5445 42.716 17.5496 42.7163 17.5508 42.7164C17.5514 42.7164 17.5509 42.7164 17.5495 42.7163C17.5487 42.7163 17.5478 42.7162 17.5465 42.7161C17.5459 42.7161 17.5452 42.716 17.5445 42.716C17.5441 42.716 17.5435 42.7159 17.5433 42.7159C17.5427 42.7159 17.542 42.7158 17.677 40.7204C17.812 38.7249 17.8113 38.7249 17.8106 38.7249C17.8103 38.7248 17.8096 38.7248 17.8091 38.7248C17.8081 38.7247 17.807 38.7246 17.8059 38.7245C17.8036 38.7244 17.801 38.7242 17.7982 38.7241C17.7926 38.7237 17.7858 38.7233 17.7781 38.7229C17.7625 38.722 17.7428 38.7209 17.7189 38.7198C17.6712 38.7176 17.6069 38.7152 17.527 38.7134C17.3673 38.7097 17.1447 38.7083 16.866 38.7155C16.3088 38.7301 15.525 38.7794 14.5685 38.9155C12.6568 39.1873 10.0413 39.8076 7.1652 41.1986L8.90682 44.7996ZM38.5725 53.6591C44.4338 50.6142 47.1551 47.0465 46.5585 43.5501C45.9857 40.1935 42.5159 38.405 39.7122 38.9892L40.5281 42.9051C41.4342 42.7163 42.4769 43.4107 42.6155 44.223C42.7303 44.8956 42.3619 47.183 36.7285 50.1095L38.5725 53.6591ZM39.7122 38.9892C39.2038 39.0951 38.819 39.1976 38.5468 39.2795C38.4107 39.3205 38.3027 39.3563 38.2215 39.3848C38.1809 39.399 38.147 39.4114 38.1197 39.4218C38.106 39.4269 38.0939 39.4316 38.0835 39.4356C38.0783 39.4377 38.0734 39.4396 38.069 39.4413C38.0668 39.4422 38.0647 39.4431 38.0627 39.4439C38.0617 39.4443 38.0607 39.4447 38.0597 39.445C38.0593 39.4452 38.0588 39.4454 38.0583 39.4456C38.0581 39.4457 38.0578 39.4459 38.0576 39.4459C38.0573 39.446 38.0569 39.4462 38.8063 41.3005C39.5556 43.1548 39.5553 43.155 39.5549 43.1551C39.5548 43.1551 39.5545 43.1553 39.5543 43.1554C39.5538 43.1555 39.5534 43.1557 39.553 43.1559C39.5521 43.1562 39.5513 43.1566 39.5505 43.1569C39.5489 43.1575 39.5474 43.1581 39.5459 43.1587C39.5431 43.1598 39.5407 43.1608 39.5387 43.1616C39.5346 43.1631 39.5322 43.1641 39.5314 43.1644C39.5298 43.165 39.5348 43.1631 39.5465 43.1589C39.57 43.1507 39.6204 43.1336 39.6994 43.1098C39.8573 43.0623 40.1295 42.9881 40.528 42.9051L39.7122 38.9892ZM38.8063 41.3005C40.4926 42.3758 40.4923 42.3763 40.4919 42.3769C40.4918 42.377 40.4915 42.3776 40.4912 42.3779C40.4908 42.3787 40.4903 42.3794 40.4899 42.3801C40.489 42.3815 40.4881 42.3829 40.4872 42.3843C40.4854 42.387 40.4837 42.3896 40.4821 42.3921C40.4788 42.3972 40.4757 42.4018 40.4729 42.4061C40.4672 42.4146 40.4623 42.4217 40.4583 42.4274C40.4503 42.4388 40.4453 42.4454 40.443 42.4483C40.4392 42.4531 40.4429 42.448 40.4521 42.4389C40.4782 42.4135 40.4838 42.4185 40.4547 42.4288L39.121 38.6577C38.448 38.8957 37.9628 39.2793 37.6591 39.5756C37.5034 39.7274 37.3825 39.8688 37.2952 39.9801C37.2512 40.0362 37.2148 40.086 37.1858 40.1272C37.1713 40.1479 37.1586 40.1665 37.1476 40.1829C37.1421 40.1911 37.1371 40.1987 37.1325 40.2058C37.1302 40.2093 37.128 40.2127 37.1259 40.216C37.1248 40.2176 37.1238 40.2192 37.1228 40.2207C37.1223 40.2215 37.1218 40.2222 37.1214 40.223C37.1211 40.2234 37.1208 40.2239 37.1206 40.2241C37.1203 40.2247 37.1199 40.2252 38.8063 41.3005ZM40.451 42.4301C43.268 41.4401 44.9599 43.0192 45.1343 44.1816C45.2244 44.7818 45.0571 45.7401 43.8991 46.8732C42.7156 48.0314 40.5483 49.2969 36.9123 50.2528L37.9293 54.1214C41.9678 53.0597 44.8508 51.5385 46.6968 49.7321C48.5682 47.9008 49.4094 45.7167 49.09 43.588C48.4454 39.2924 43.6464 37.0673 39.1247 38.6563L40.451 42.4301ZM39.4208 52.1871C39.4039 52.4468 39.3109 52.8409 39.2585 52.9762C39.2215 53.0574 39.152 53.1885 39.1216 53.2394C39.0623 53.3353 39.0078 53.4047 38.9877 53.4299C38.9414 53.4884 38.9018 53.5313 38.8913 53.5427C38.8628 53.5735 38.8395 53.5968 38.8354 53.6009C38.827 53.6092 38.8205 53.6156 38.8178 53.6183C38.8145 53.6214 38.8121 53.6238 38.811 53.6248C38.8093 53.6265 38.8078 53.6279 38.8095 53.6263C38.8103 53.6255 38.8124 53.6235 38.8148 53.6212C38.8251 53.6113 38.8416 53.5953 38.8618 53.5752C38.9009 53.5361 38.9566 53.4788 39.0186 53.4082C39.0786 53.3398 39.1588 53.2429 39.2403 53.1242C39.2819 53.0637 39.3289 52.9903 39.3758 52.9054C39.4221 52.8215 39.475 52.7146 39.5226 52.5879L35.7784 51.1806C35.8424 51.0102 35.9162 50.8989 35.9437 50.8588C35.9772 50.8101 36.0033 50.7798 36.0126 50.7692C36.0239 50.7564 36.0321 50.748 36.0365 50.7436C36.0379 50.7422 36.0391 50.741 36.0402 50.7399C36.0408 50.7394 36.0412 50.739 36.0416 50.7386C36.042 50.7382 36.0422 50.738 36.0422 50.738C36.0421 50.7381 36.042 50.7383 36.0409 50.7392C36.0407 50.7395 36.0376 50.7424 36.0346 50.7454C36.0339 50.746 36.0217 50.7577 36.0073 50.7722C36.0028 50.7766 35.9792 50.8001 35.9506 50.8312C35.94 50.8427 35.9003 50.8856 35.8539 50.9442C35.8339 50.9694 35.7794 51.0389 35.72 51.1347C35.6896 51.1856 35.6201 51.3168 35.5831 51.3979C35.5307 51.5333 35.4377 51.9274 35.4208 52.1871H39.4208Z" fill="black" mask="url(#path-3-outside-1_1204_15)"/>
<path d="M30.7216 7L31.4289 6.29311L28.8573 3.71989L29.7523 7.24603C30.3419 9.5687 30.109 11.4271 29.4087 13.0207C28.6964 14.6417 27.4705 16.0567 25.9612 17.4235C24.9464 18.3424 23.8615 19.1917 22.7508 20.061C22.1861 20.5031 21.6147 20.9503 21.0425 21.4146C19.3897 22.7556 17.7763 24.2062 16.6391 25.9136L16.6389 25.9139C15.8051 27.1664 15.4725 28.481 15.579 29.8304C15.6838 31.1568 16.2071 32.452 16.9738 33.7058C18.4931 36.1904 21.116 38.7416 24.0102 41.3525L25.5945 40.2054C25.0387 38.9491 24.1881 37.7387 23.397 36.6131C23.3125 36.4929 23.2287 36.3736 23.146 36.2553C22.2572 34.9846 21.4748 33.8037 21.0466 32.5801C20.6332 31.399 20.5574 30.1959 21.0965 28.8515C21.6503 27.4705 22.8902 25.8488 25.303 23.9431C31.6443 18.9377 33.4003 14.6327 33.3534 11.3934C33.3302 9.7951 32.8662 8.53674 32.4032 7.67481C32.1719 7.24432 31.9401 6.91093 31.7612 6.68011C31.6716 6.56454 31.5948 6.47412 31.5374 6.40953C31.5087 6.37722 31.4848 6.35132 31.4664 6.3319L31.4432 6.30763L31.4349 6.29915L31.4316 6.29582L31.4302 6.29439C31.4295 6.29374 31.4289 6.29311 30.7216 7ZM30.0091 7.70167C30.0088 7.7014 30.01 7.70259 30.0125 7.70523L30.0121 7.70476L30.0106 7.70318L30.0091 7.70167Z" fill="#EA2D2E" stroke="black" stroke-width="2"/>
<path d="M18.7426 69.0683L18.743 69.0683C24.3079 69.4241 31.3749 69.327 37.1273 68.4753C39.9951 68.0506 42.6024 67.4293 44.5446 66.5465C46.4204 65.6939 48.0342 64.4267 48.1796 62.5344L46.2648 62.0979C46.2516 62.0924 46.2518 62.092 46.2519 62.0917L46.2531 62.0886L46.2555 62.0828L46.2601 62.0716C46.2631 62.0644 46.266 62.0578 46.2687 62.0517C46.2743 62.0395 46.2792 62.0294 46.2833 62.0214C46.291 62.0066 46.2957 61.9992 46.2961 61.9986C46.2954 61.9997 46.2726 62.0343 46.212 62.0971C46.09 62.2235 45.8158 62.4631 45.2657 62.7706C44.1587 63.3894 41.9948 64.2499 37.8803 65.0239L37.8802 65.0239C28.5861 66.7736 17.0883 66.5683 10.3088 65.4489L9.14587 65.2569V66.4356C9.22147 66.817 9.45414 67.1577 9.47188 67.1743L9.49212 67.1923L9.5055 67.2036L9.51824 67.2141L9.53788 67.2296C9.55071 67.2396 9.56474 67.2501 9.58004 67.261C9.6107 67.2831 9.64754 67.3079 9.69144 67.3353C9.77919 67.3901 9.89618 67.4555 10.0499 67.5286C10.3567 67.6746 10.8152 67.8541 11.4895 68.0417C12.8352 68.4162 15.0732 68.8323 18.7426 69.0683Z" fill="#0074BD" stroke="black" stroke-width="2"/>
</svg>
