<svg width="70" height="71" viewBox="0 0 70 71" fill="none" xmlns="http://www.w3.org/2000/svg">
<path d="M26.9126 14.7384L14.1154 37.6733L19.7238 1.5756L19.7238 1.5756L19.7247 1.56951C19.7288 1.5422 19.7346 1.53116 19.7352 1.53008L19.7352 1.53005C19.7359 1.52873 19.736 1.52861 19.7369 1.5278C19.7403 1.52455 19.7581 1.51086 19.7925 1.50506C19.8269 1.49924 19.8481 1.50636 19.852 1.50815C19.8524 1.50834 19.8526 1.50841 19.8527 1.50852C19.8529 1.50864 19.8531 1.5088 19.8535 1.50919C19.8539 1.50955 19.8627 1.51759 19.8755 1.54184L19.8754 1.54185L19.8799 1.55018L26.9126 14.7384ZM39.8734 20.5704L16.9215 43.6646L34.91 11.4167L34.9192 11.4001L34.928 11.3834C34.9364 11.3674 34.943 11.36 34.9458 11.3571C34.9488 11.3539 34.9517 11.3517 34.955 11.3498C34.9626 11.3454 34.9785 11.3394 35.0011 11.3394C35.0237 11.3394 35.0395 11.3454 35.0472 11.3498C35.0505 11.3517 35.0534 11.3539 35.0564 11.3571C35.0592 11.3599 35.0656 11.3672 35.0738 11.3825C35.0739 11.3828 35.0741 11.3831 35.0742 11.3834L39.8734 20.5704ZM33.3219 68.0875L33.3218 68.0875L12.1248 56.1351L52.1428 15.853C52.1547 15.8417 52.163 15.8366 52.1672 15.8344C52.172 15.8318 52.1763 15.8302 52.181 15.8292C52.1915 15.8269 52.2097 15.8263 52.2315 15.8332C52.2532 15.8401 52.2659 15.8505 52.2711 15.8562C52.2734 15.8587 52.2752 15.8613 52.277 15.865C52.2786 15.8682 52.2822 15.8764 52.2852 15.8922L58.6794 55.6792L36.4798 68.0846L36.4755 68.0871C35.4949 68.6393 34.2992 68.6387 33.3219 68.0875Z" fill="#FCCA3F" stroke="black" stroke-width="3"/>
</svg>
