<svg width="70" height="70" viewBox="0 0 70 70" fill="none" xmlns="http://www.w3.org/2000/svg">
<path d="M33.9914 17.4475V1.5H42.4899V51.7607C38.0663 52.5981 33.5755 53.0309 29.0726 53.0533C22.2489 53.0456 17.3217 51.5056 14.115 48.7364C10.9471 46.0007 9.2254 41.8615 9.2254 36.1142C9.2254 30.6221 11.0423 26.2188 14.1503 23.1881C17.262 20.1539 21.8032 18.3642 27.4918 18.3642H27.5065L27.5212 18.3639C29.0703 18.3335 30.6164 18.5139 32.1176 18.9002L33.9914 19.3824V17.4475ZM33.9914 26.6642V25.5814L32.9637 25.2405C31.5562 24.7735 30.0799 24.5504 28.5979 24.5808C25.3915 24.5842 22.6694 25.581 20.7583 27.6199C18.8569 29.6485 17.9414 32.5137 17.9414 35.8983C17.9414 39.1929 18.8123 41.9788 20.7014 43.944C22.5994 45.9187 25.3138 46.8454 28.5416 46.8454H28.542C29.9374 46.8451 31.3309 46.7422 32.7114 46.5375L33.9914 46.3478V45.0537V26.6787V26.6642Z" fill="#44B78B" stroke="black" stroke-width="3"/>
<path d="M50.2223 68.3568L43.0803 64.9722C45.9429 63.3363 48.3251 60.9329 49.943 58.0026L49.9573 57.9768L49.9705 57.9505C51.7917 54.3227 52.2904 50.1909 52.2904 40.2529V19.1721H60.7599V44.2138C60.7599 53.3235 60.0679 57.393 58.2563 60.8335C56.4863 64.1812 53.6542 66.8268 50.2223 68.3568Z" fill="#44B78B" stroke="black" stroke-width="3"/>
<path d="M52.2788 1.55835H60.7744V10.3067H52.2788V1.55835Z" fill="#44B78B" stroke="black" stroke-width="3"/>
</svg>
